<svg width="65" height="65" viewBox="0 0 65 65" fill="none" xmlns="http://www.w3.org/2000/svg">
<circle cx="32.5" cy="32.5" r="32.5" fill="#EAEDFC"/>
<path d="M47.1191 21H16.8792C16.4337 21 16.0062 21.177 15.6912 21.492C15.3763 21.807 15.1992 22.2345 15.1992 22.68V42.5737C15.1992 43.0192 15.3762 43.4465 15.6912 43.7615C16.0062 44.0767 16.4337 44.2537 16.8792 44.2537H28.5483L27.7706 46.7985L26.3106 46.7982C26.0013 46.7982 25.7506 47.049 25.7506 47.3582C25.7506 47.6675 26.0013 47.9182 26.3106 47.9182H37.6878C37.9971 47.9182 38.2478 47.6675 38.2478 47.3582C38.2478 47.049 37.9971 46.7982 37.6878 46.7982H36.2279L35.4502 44.2537H47.1193C47.5647 44.2537 47.9923 44.0767 48.3072 43.7615C48.6222 43.4465 48.7992 43.0192 48.7992 42.5737V22.68C48.7992 22.2345 48.6222 21.8069 48.3072 21.492C47.9922 21.1771 47.5647 21 47.1193 21L47.1191 21ZM16.8792 22.12H47.1191C47.2676 22.12 47.4101 22.179 47.5151 22.284C47.6201 22.389 47.6791 22.5315 47.6791 22.68V38.7868H16.3192V22.68C16.3192 22.3707 16.5699 22.12 16.8792 22.12ZM35.0564 46.7977H28.9414L29.7192 44.2529H34.2786L35.0564 46.7977ZM47.1191 43.1332H16.8792C16.5699 43.1332 16.3192 42.8825 16.3192 42.5732V39.9065H47.6791V42.5732C47.6791 42.7217 47.6201 42.864 47.5151 42.9692C47.4101 43.0742 47.2676 43.1332 47.1191 43.1332Z" fill="#007399"/>
<path d="M32.3968 40.9598H31.6018C31.2923 40.9598 31.0418 41.2106 31.0418 41.5198C31.0418 41.8291 31.2923 42.0798 31.6018 42.0798H32.3971H32.3969C32.7063 42.0798 32.9568 41.8291 32.9568 41.5198C32.9568 41.2106 32.7063 40.9598 32.3969 40.9598H32.3968Z" fill="#007399"/>
<path d="M18.7871 36.6526H26.6713C26.8198 36.6526 26.9623 36.5936 27.0673 36.4886C27.1723 36.3836 27.2313 36.2411 27.2313 36.0926V24.8145C27.2313 24.666 27.1723 24.5238 27.0673 24.4188C26.9623 24.3135 26.8198 24.2545 26.6713 24.2545H18.7871C18.4779 24.2545 18.2271 24.5053 18.2271 24.8145V36.0926C18.2271 36.2411 18.2861 36.3836 18.3914 36.4886C18.4964 36.5936 18.6386 36.6526 18.7871 36.6526ZM19.3471 25.3752L26.1113 25.3749V35.533H19.3471V25.3752Z" fill="#007399"/>
<path d="M31.6387 29.868H45.2124C45.3609 29.868 45.5032 29.809 45.6082 29.704C45.7134 29.599 45.7724 29.4565 45.7724 29.308V24.8167C45.7724 24.6682 45.7134 24.5257 45.6082 24.4207C45.5032 24.3157 45.3609 24.2567 45.2124 24.2567H31.6387C31.3294 24.2567 31.0787 24.5075 31.0787 24.8167V29.308C31.0787 29.4565 31.1377 29.599 31.2429 29.704C31.3479 29.809 31.4902 29.868 31.6387 29.868ZM32.1987 25.3767H44.6524V28.748H32.1987V25.3767Z" fill="#007399"/>
<path d="M31.6387 36.6526H40.7324C40.8809 36.6526 41.0232 36.5936 41.1282 36.4886C41.2334 36.3836 41.2924 36.2411 41.2924 36.0926V31.6036C41.2924 31.4551 41.2334 31.3126 41.1282 31.2076C41.0232 31.1026 40.8809 31.0436 40.7324 31.0436H31.6387C31.3294 31.0436 31.0787 31.2943 31.0787 31.6036V36.0948C31.0799 36.4031 31.3304 36.6526 31.6387 36.6526V36.6526ZM32.1987 32.1613H40.1724V35.5326H32.1987V32.1613Z" fill="#007399"/>
</svg>
