<svg width="65" height="65" viewBox="0 0 65 65" fill="none" xmlns="http://www.w3.org/2000/svg">
<circle cx="32.5" cy="32.5" r="32.5" fill="#EAEDFC"/>
<path d="M32.5914 37.0956L32.6427 37.1263L32.694 37.0956L50.7645 26.3005L50.9082 26.2146L50.7645 26.1288L32.694 15.3336L32.6427 15.3029L32.5914 15.3336L14.5211 26.1294L14.3774 26.2153L14.5211 26.3011L32.5914 37.0956ZM32.6428 35.3215L17.3982 26.2153L32.6427 17.1077L47.8875 26.2146L32.6428 35.3215Z" fill="#007399" stroke="#007399" stroke-width="0.2"/>
<path d="M32.5916 43.8412L32.6428 43.8719L32.6941 43.8412L49.7953 33.6255L49.8811 33.5743L49.8298 33.4884L49.1377 32.3302L49.0864 32.2443L49.0006 32.2956L32.6428 42.0672L16.2852 32.2956L16.1993 32.2443L16.1481 32.3302L15.456 33.4884L15.4046 33.5743L15.4905 33.6255L32.5916 43.8412Z" fill="#007399" stroke="#007399" stroke-width="0.2"/>
<path d="M32.5916 50.5868L32.6428 50.6175L32.6941 50.5868L49.7953 40.3711L49.8811 40.3199L49.8298 40.234L49.1377 39.0758L49.0864 38.99L49.0006 39.0412L32.6428 48.8127L16.2852 39.0412L16.1993 38.99L16.1481 39.0758L15.456 40.234L15.4046 40.3199L15.4905 40.3711L32.5916 50.5868Z" fill="#007399" stroke="#007399" stroke-width="0.2"/>
</svg>
