<svg width="65" height="65" viewBox="0 0 65 65" fill="none" xmlns="http://www.w3.org/2000/svg">
<circle cx="32.5" cy="32.5" r="32.5" fill="#EAEDFC"/>
<path d="M18.1525 24.1724C18.6164 24.1724 18.9925 23.7964 18.9925 23.3324C18.9925 22.8685 18.6164 22.4924 18.1525 22.4924C17.6886 22.4924 17.3125 22.8685 17.3125 23.3324C17.3125 23.7964 17.6886 24.1724 18.1525 24.1724Z" fill="#007399" stroke="#007399" stroke-width="0.1"/>
<path d="M20.9641 24.1724C21.428 24.1724 21.8041 23.7964 21.8041 23.3324C21.8041 22.8685 21.428 22.4924 20.9641 22.4924C20.5002 22.4924 20.1241 22.8685 20.1241 23.3324C20.1241 23.7964 20.5002 24.1724 20.9641 24.1724Z" fill="#007399" stroke="#007399" stroke-width="0.1"/>
<path d="M23.7397 24.1724C24.2036 24.1724 24.5797 23.7964 24.5797 23.3324C24.5797 22.8685 24.2036 22.4924 23.7397 22.4924C23.2758 22.4924 22.8997 22.8685 22.8997 23.3324C22.8997 23.7964 23.2758 24.1724 23.7397 24.1724Z" fill="#007399" stroke="#007399" stroke-width="0.1"/>
<path d="M46.5296 19.8997H17.7139C15.9243 19.8997 14.5 21.3605 14.5 23.1136V41.8857C14.5 43.6753 15.9609 45.0997 17.7139 45.0997H46.493C48.2826 45.0997 49.707 43.6388 49.707 41.8857V23.1136C49.7435 21.324 48.2826 19.8997 46.5296 19.8997ZM48.5383 41.8857C48.5383 43.0179 47.6252 43.931 46.493 43.931H17.7139C16.5817 43.931 15.6687 43.0179 15.6687 41.8857V23.1136C15.6687 21.9814 16.5817 21.0684 17.7139 21.0684H46.493C47.6252 21.0684 48.5383 21.9814 48.5383 23.1136V41.8857Z" fill="#007399" stroke="#007399" stroke-width="0.1"/>
<path d="M24.3916 37.7432L26.8273 40.1783L36.9581 30.0475L34.5224 27.6124L24.3916 37.7432ZM25.3663 37.7432L32.5743 30.5345L34.0361 31.9955L26.8273 39.2049L25.3663 37.7432ZM34.5231 31.5092L33.0613 30.0482L34.5231 28.5871L35.9848 30.0482L34.5231 31.5092Z" fill="#007399" stroke="#007399" stroke-width="0.5"/>
<path d="M38.3118 26.2592V24.6549H37.623V26.2592H35.9009V26.9481H37.623V28.788H38.3118V26.9481H40.0339V26.2592H38.3118Z" fill="#007399" stroke="#007399" stroke-width="0.5"/>
<path d="M39.0002 32.1151H38.3114V33.2662H37.2781V33.955H38.3114V34.8705H39.0002V33.955H40.0335V33.2662H39.0002V32.1151Z" fill="#007399" stroke="#007399" stroke-width="0.5"/>
<path d="M36.5895 34.5259H35.2118V35.2147H36.5895V34.5259Z" fill="#007399" stroke="#007399" stroke-width="0.5"/>
<path d="M33.1451 26.2589H31.7674V26.9477H33.1451V26.2589Z" fill="#007399" stroke="#007399" stroke-width="0.5"/>
</svg>
