<svg width="65" height="65" viewBox="0 0 65 65" fill="none" xmlns="http://www.w3.org/2000/svg">
<circle cx="32.5" cy="32.5" r="32.5" fill="#EAEDFC"/>
<path d="M17.4 36.4311C17.4 33.9674 19.4038 31.9636 21.8666 31.9635L17.4 36.4311ZM17.4 36.4311V36.7187M17.4 36.4311V36.7187M17.4 36.7187C17.4 37.0083 17.6345 37.2425 17.9238 37.2425M17.4 36.7187L17.9238 37.2425M17.9238 37.2425H25.8087M17.9238 37.2425H25.8087M25.8087 37.2425C26.0976 37.2425 26.3325 37.0083 26.3325 36.7187M25.8087 37.2425L26.3325 36.7187M26.3325 36.7187V36.4311M26.3325 36.7187V36.4311M26.3325 36.4311C26.3325 33.9674 24.3297 31.9636 21.8668 31.9635L26.3325 36.4311ZM25.277 36.1949H18.4558C18.5772 34.419 20.0612 33.0111 21.8668 33.0111C23.6724 33.0111 25.1556 34.4191 25.277 36.1949Z" fill="#007399" stroke="#0F5EF7" stroke-width="0.2"/>
<path d="M21.8671 31.5218C23.6409 31.5218 25.0832 30.0788 25.0832 28.3051C25.0832 26.5313 23.6409 25.089 21.8671 25.089C20.0933 25.089 18.651 26.5319 18.651 28.3051C18.651 30.0782 20.0936 31.5218 21.8671 31.5218ZM21.8671 26.1359C23.0629 26.1359 24.0359 27.109 24.0359 28.3047C24.0359 29.5011 23.0629 30.4738 21.8671 30.4738C20.6714 30.4738 19.6983 29.5005 19.6983 28.3047C19.6983 27.1087 20.6711 26.1359 21.8671 26.1359Z" fill="#007399" stroke="#0F5EF7" stroke-width="0.2"/>
<path d="M27.5602 31.8828C27.5602 29.4193 29.564 27.4152 32.0269 27.4151L27.5602 31.8828ZM27.5602 31.8828V32.1703M27.5602 31.8828V32.1703M27.5602 32.1703C27.5602 32.4593 27.7946 32.6941 28.084 32.6941M27.5602 32.1703L28.084 32.6941M28.084 32.6941H35.9696M28.084 32.6941H35.9696M35.9696 32.6941C36.2592 32.6941 36.4934 32.4596 36.4934 32.1703M35.9696 32.6941L36.4934 32.1703M36.4934 32.1703V31.8828M36.4934 32.1703V31.8828M36.4934 31.8828C36.4931 29.4193 34.4896 27.4152 32.027 27.4151L36.4934 31.8828ZM35.4375 31.6463H28.6159C28.7373 29.8703 30.2214 28.4624 32.027 28.4624C33.8325 28.4624 35.3157 29.8702 35.4375 31.6463Z" fill="#007399" stroke="#0F5EF7" stroke-width="0.2"/>
<path d="M29.9474 24.1158L29.9474 24.1157C29.9468 22.9197 30.92 21.947 32.1161 21.947C33.3115 21.947 34.2843 22.92 34.2843 24.1158C34.2843 25.3121 33.3113 26.2848 32.1161 26.2848C30.9204 26.2848 29.9474 25.3115 29.9474 24.1158ZM32.1161 27.3328C33.8899 27.3328 35.332 25.8899 35.332 24.1161C35.332 22.3424 33.8896 20.9 32.1161 20.9C30.343 20.9 28.9 22.3429 28.9 24.1161C28.8994 25.8899 30.3424 27.3328 32.1161 27.3328Z" fill="#007399" stroke="#0F5EF7" stroke-width="0.2"/>
<path d="M38.6234 24.9921C38.6234 22.5287 40.6271 20.5246 43.09 20.5245L38.6234 24.9921ZM38.6234 24.9921V25.2797M38.6234 24.9921V25.2797M38.6234 25.2797C38.6234 25.5686 38.8575 25.8035 39.1472 25.8035M38.6234 25.2797L39.1472 25.8035M39.1472 25.8035H47.0321M39.1472 25.8035H47.0321M47.0321 25.8035C47.3217 25.8035 47.5559 25.5689 47.5559 25.2797M47.0321 25.8035L47.5559 25.2797M47.5559 25.2797V24.9921M47.5559 25.2797V24.9921M47.5559 24.9921C47.5559 22.5284 45.5527 20.5246 43.0902 20.5245L47.5559 24.9921ZM46.5007 24.7557H39.6789C39.8008 22.9797 41.2844 21.5718 43.0902 21.5718C44.8958 21.5718 46.379 22.9796 46.5007 24.7557Z" fill="#007399" stroke="#0F5EF7" stroke-width="0.2"/>
<path d="M39.8729 16.8661C39.8726 18.6393 41.3156 20.0828 43.089 20.0828C44.8628 20.0828 46.3049 18.6399 46.3049 16.8661C46.3049 15.0924 44.8625 13.65 43.089 13.65C41.3159 13.65 39.8729 15.0929 39.8729 16.8661ZM39.8729 16.8661L39.9729 16.8661L39.8729 16.8661ZM43.089 14.697C44.2844 14.697 45.2572 15.67 45.2572 16.8658C45.2572 18.0621 44.2842 19.0348 43.089 19.0348C41.8933 19.0348 40.9203 18.0615 40.9203 16.8658C40.9203 15.6697 41.893 14.697 43.089 14.697Z" fill="#007399" stroke="#0F5EF7" stroke-width="0.2"/>
<path d="M22.1684 37.7174C22.1685 37.7175 22.1686 37.7175 22.1686 37.7176L25.6429 41.7906C25.6429 41.7906 25.6429 41.7906 25.643 41.7906C25.7756 41.946 25.8055 42.1644 25.72 42.3496C25.6345 42.5352 25.4486 42.6539 25.2445 42.6539H23.9791V50.8261C23.9791 51.1158 23.7442 51.3499 23.4553 51.3499H20.2777C19.9885 51.3499 19.7539 51.1158 19.7539 50.8261V42.6539H18.488C18.2866 42.6539 18.1027 42.5389 18.0157 42.3565C17.9281 42.1743 17.9533 41.959 18.08 41.8019L22.1684 37.7174ZM22.1684 37.7174C22.0696 37.6007 21.9358 37.5291 21.7621 37.533M22.1684 37.7174L18.08 41.8019L21.3618 37.7284C21.4596 37.6068 21.6066 37.5353 21.7621 37.533M21.7621 37.533C21.7622 37.533 21.7624 37.533 21.7625 37.533L21.7639 37.6329L21.7616 37.533C21.7618 37.533 21.7619 37.533 21.7621 37.533ZM23.455 41.6072C23.1661 41.6072 22.9312 41.8413 22.9312 42.131V50.3032H20.8009V42.131C20.8009 41.8413 20.5664 41.6072 20.2771 41.6072H19.5827L21.7815 38.8775L24.1098 41.6072H23.455Z" fill="#007399" stroke="#0F5EF7" stroke-width="0.2"/>
<path d="M29.9141 38.4167H28.6481C28.4468 38.4167 28.2629 38.3017 28.1758 38.1194C28.0882 37.9371 28.1134 37.7218 28.2401 37.5648L29.9141 38.4167ZM29.9141 38.4167V50.8257C29.9141 51.1153 30.1486 51.3495 30.4379 51.3495H33.6154C33.905 51.3495 34.1392 51.1153 34.1392 50.8257L34.139 38.4167H35.4049C35.6092 38.4167 35.7947 38.2979 35.8805 38.1125L35.8805 38.1124C35.966 37.9271 35.9357 37.7087 35.8035 37.5535L35.8034 37.5534L32.329 33.4806C32.3289 33.4805 32.3288 33.4805 32.3287 33.4804C32.2287 33.3615 32.0952 33.295 31.9237 33.2958L31.9227 33.2958C31.767 33.298 31.6199 33.3695 31.522 33.4912L28.2402 37.5647L29.9141 38.4167ZM33.6149 37.37C33.3253 37.37 33.0911 37.6042 33.0911 37.8938V50.3028H30.9608L30.9611 37.8938C30.9611 37.6041 30.7265 37.37 30.4373 37.37H29.7425L31.9414 34.6403L34.2697 37.37H33.6149Z" fill="#007399" stroke="#0F5EF7" stroke-width="0.2"/>
<path d="M40.9764 31.6374H39.7102C39.5092 31.6374 39.3248 31.5217 39.2378 31.34C39.1508 31.1583 39.1761 30.9424 39.3028 30.7854L42.5846 26.7119C42.6825 26.5903 42.8293 26.5187 42.9853 26.5165L42.9867 26.5164V26.5165H42.9926C43.1458 26.5165 43.2916 26.5832 43.3912 26.7002L40.9764 31.6374ZM40.9764 31.6374V50.8259C40.9764 51.1155 41.2106 51.3497 41.5002 51.3497H44.6775C44.9671 51.3497 45.2013 51.1155 45.2013 50.8259V31.6381H46.4673C46.6715 31.6381 46.857 31.5194 46.9428 31.3339L46.9428 31.3339C47.0284 31.1485 46.998 30.9302 46.8659 30.7747L46.8658 30.7746L43.3913 26.7003L40.9764 31.6374ZM44.6781 30.5904C44.3885 30.5904 44.1543 30.8249 44.1543 31.1142V50.3027H42.0246V31.1142C42.0246 30.8253 41.7905 30.5904 41.5008 30.5904H40.8052L43.004 27.861L45.3326 30.5904H44.6781Z" fill="#007399" stroke="#0F5EF7" stroke-width="0.2"/>
</svg>
