<svg width="50" height="50" viewBox="0 0 50 50" fill="none" xmlns="http://www.w3.org/2000/svg">
<path d="M50 0H0V50H50V0Z" fill="white"/>
<path d="M9.05809 15.7475C9.57356 15.7475 9.99142 15.3297 9.99142 14.8142C9.99142 14.2987 9.57356 13.8809 9.05809 13.8809C8.54262 13.8809 8.12476 14.2987 8.12476 14.8142C8.12476 15.3297 8.54262 15.7475 9.05809 15.7475Z" fill="#0F5EF7" stroke="#0F5EF7" stroke-width="0.1"/>
<path d="M12.1826 15.7475C12.6981 15.7475 13.1159 15.3297 13.1159 14.8142C13.1159 14.2987 12.6981 13.8809 12.1826 13.8809C11.6671 13.8809 11.2493 14.2987 11.2493 14.8142C11.2493 15.3297 11.6671 15.7475 12.1826 15.7475Z" fill="#0F5EF7" stroke="#0F5EF7" stroke-width="0.1"/>
<path d="M15.2666 15.7475C15.7821 15.7475 16.1999 15.3297 16.1999 14.8142C16.1999 14.2987 15.7821 13.8809 15.2666 13.8809C14.7511 13.8809 14.3333 14.2987 14.3333 14.8142C14.3333 15.3297 14.7511 15.7475 15.2666 15.7475Z" fill="#0F5EF7" stroke="#0F5EF7" stroke-width="0.1"/>
<path d="M40.5884 11H8.57101C6.58261 11 5 12.6232 5 14.571V35.429C5 37.4174 6.62319 39 8.57101 39H40.5478C42.5362 39 44.1188 37.3768 44.1188 35.429V14.571C44.1594 12.5826 42.5362 11 40.5884 11ZM42.8203 35.429C42.8203 36.687 41.8058 37.7014 40.5478 37.7014H8.57101C7.31304 37.7014 6.29855 36.687 6.29855 35.429V14.571C6.29855 13.313 7.31304 12.2986 8.57101 12.2986H40.5478C41.8058 12.2986 42.8203 13.313 42.8203 14.571V35.429Z" fill="#0F5EF7"/>
<path d="M15.9912 30.8267L18.6976 33.5323L29.954 22.2759L27.2476 19.5703L15.9912 30.8267ZM17.0742 30.8267L25.0831 22.817L26.7073 24.4404L18.6976 32.4509L17.0742 30.8267ZM27.2484 23.9001L25.6243 22.2767L27.2484 20.6533L28.8725 22.2767L27.2484 23.9001Z" fill="#0F5EF7" stroke="#0F5EF7" stroke-width="0.4"/>
<path d="M31.4579 18.0667V16.2842H30.6925V18.0667H28.7791V18.8321H30.6925V20.8764H31.4579V18.8321H33.3713V18.0667H31.4579Z" fill="#0F5EF7" stroke="#0F5EF7" stroke-width="0.4"/>
<path d="M32.2233 24.5732H31.4579V25.8522H30.3098V26.6176H31.4579V27.6348H32.2233V26.6176H33.3713V25.8522H32.2233V24.5732Z" fill="#0F5EF7" stroke="#0F5EF7" stroke-width="0.4"/>
<path d="M29.5444 27.252H28.0137V28.0173H29.5444V27.252Z" fill="#0F5EF7" stroke="#0F5EF7" stroke-width="0.4"/>
<path d="M25.7175 18.0664H24.1868V18.8318H25.7175V18.0664Z" fill="#0F5EF7" stroke="#0F5EF7" stroke-width="0.4"/>
</svg>
