<svg width="50" height="50" viewBox="0 0 50 50" fill="none" xmlns="http://www.w3.org/2000/svg">
<path d="M50 0H0V50H50V0Z" fill="white"/>
<path d="M25.7833 29.4328C23.3178 29.4328 21.3455 27.4584 21.3455 24.9903C21.3455 22.5223 23.3178 20.5479 25.7833 20.5479C28.2487 20.5479 30.2211 22.5223 30.2211 24.9903C30.2211 27.4584 28.2487 29.4328 25.7833 29.4328ZM25.7833 21.7819C23.9958 21.7819 22.5782 23.201 22.5782 24.9903C22.5782 26.7797 23.9958 28.1988 25.7833 28.1988C27.5707 28.1988 28.9884 26.7797 28.9884 24.9903C28.9884 23.201 27.5707 21.7819 25.7833 21.7819Z" fill="#007399" stroke="#007399" stroke-width="0.5"/>
<path d="M27.6323 37.3314H23.9342L23.3178 33.3208C22.7631 33.1357 22.27 32.9506 21.7769 32.7038L18.5102 35.1102L15.9214 32.5187L18.2636 29.3103C17.9554 28.8166 17.7089 28.2613 17.524 27.6443L13.7025 27.089V23.3869L17.4623 22.8316C17.6472 22.2146 17.8938 21.5976 18.202 20.9806L15.9831 17.9572L18.5718 15.3658L21.4687 17.5253C22.0851 17.1551 22.7631 16.9083 23.4411 16.7232L23.9342 13.1445H27.6323L28.1254 16.7232C28.8034 16.9083 29.4814 17.2168 30.0978 17.5253L32.9947 15.3658L35.5834 17.9572L33.3645 20.9806C33.6727 21.5976 33.9192 22.2146 34.1042 22.8316L37.864 23.3869V27.089L33.9809 27.6443C33.796 28.1996 33.5494 28.7549 33.2412 29.3103L35.5834 32.5187L32.9947 35.1102L29.7896 32.6421C29.2965 32.8889 28.8034 33.1357 28.2487 33.2591L27.6323 37.3314ZM25.0436 36.0974H26.5845L27.1392 32.3336L27.5707 32.2102C28.1871 32.0251 28.8651 31.7166 29.4814 31.4081L29.8512 31.223L32.8714 33.5059L33.9809 32.3953L31.762 29.372L32.0085 29.0017C32.44 28.3847 32.7482 27.6443 32.9331 26.9039L33.0563 26.5337L36.6929 25.9784V24.4359L33.1796 23.9422L33.118 23.5103C32.9331 22.7082 32.6865 21.9678 32.2551 21.2274L31.8852 20.9189L33.9809 18.1423L32.8714 17.0317L30.1594 19.0678L29.7896 18.821C29.05 18.3274 28.3103 18.0189 27.4474 17.8338L27.016 17.7721L26.5229 14.4403H24.982L24.5505 17.7721L24.1191 17.8338C23.2562 18.0189 22.5165 18.3891 21.7769 18.821L21.4071 19.0678L18.6951 17.0317L17.5856 18.1423L19.6812 20.9189L19.4963 21.2891C19.0649 22.0295 18.7567 22.7699 18.6334 23.572L18.5718 24.0039L15.0585 24.4976V26.0401L18.6951 26.5954L18.8183 26.9656C19.0032 27.706 19.3114 28.3847 19.7429 29.0634L19.9894 29.4337L17.7705 32.457L18.88 33.5676L21.9002 31.2847L22.0851 31.4081C22.7014 31.7783 23.3794 32.0251 24.0574 32.2102L24.4889 32.3336L25.0436 36.0974Z" fill="#007399" stroke="#007399" stroke-width="0.5"/>
<path d="M25.7832 45.4761C16.661 45.4761 8.6483 39.306 6.30612 30.4827C6.24448 30.1742 6.42939 29.804 6.73758 29.7423C7.04576 29.6806 7.41558 29.8657 7.47721 30.1742C9.69612 38.4422 17.2158 44.2421 25.7832 44.2421C36.2614 44.2421 44.7672 35.7273 44.7672 25.2381C44.7672 24.8679 45.0138 24.6211 45.3836 24.6211C45.7534 24.6211 45.9999 24.8679 45.9999 25.2381C45.9999 36.406 36.9394 45.4761 25.7832 45.4761Z" fill="#007399" stroke="#007399" stroke-width="0.5"/>
<path d="M6.24466 25.855C5.87484 25.855 5.6283 25.6082 5.6283 25.238C5.6283 14.0701 14.6888 5 25.845 5C34.2276 5 41.8705 10.3063 44.7674 18.2041C44.8907 18.5126 44.7058 18.8828 44.3976 19.0062C44.0894 19.1296 43.7196 18.9445 43.5963 18.636C40.8227 11.2318 33.7345 6.23402 25.845 6.23402C15.3052 6.29573 6.86102 14.7488 6.86102 25.238C6.86102 25.6082 6.55284 25.855 6.24466 25.855Z" fill="#007399" stroke="#007399" stroke-width="0.5"/>
<path d="M5.62817 34.4928C5.56654 34.4928 5.5049 34.4928 5.44326 34.4928C5.13508 34.3694 4.95017 34.0609 5.01181 33.7523L5.93636 30.5439C6.05963 30.112 6.36781 29.8035 6.79926 29.6801C7.23072 29.5567 7.66217 29.6801 7.97036 30.0503L10.2509 32.4566C10.4974 32.7034 10.4974 33.0736 10.2509 33.3204C10.0044 33.5672 9.63454 33.5672 9.38799 33.3204L7.10745 30.9141L6.1829 34.1226C6.12126 34.3077 5.87472 34.4928 5.62817 34.4928Z" fill="#007399" stroke="#007399" stroke-width="0.5"/>
<path d="M44.2743 19.623C44.0277 19.623 43.7812 19.5613 43.5963 19.3762L40.8843 17.5252C40.5761 17.3401 40.5144 16.9699 40.6993 16.6614C40.8843 16.3529 41.2541 16.2912 41.5623 16.4763L44.2743 18.3273L44.5208 14.9954C44.5208 14.6252 44.829 14.3784 45.1988 14.4401C45.5686 14.4401 45.8152 14.7486 45.7535 15.1188L45.507 18.4507C45.4453 18.8826 45.1988 19.2528 44.829 19.4379C44.6441 19.5613 44.4592 19.623 44.2743 19.623Z" fill="#007399" stroke="#007399" stroke-width="0.5"/>
</svg>
