<svg width="50" height="50" viewBox="0 0 50 50" fill="none" xmlns="http://www.w3.org/2000/svg">
<path d="M50 0H0V50H50V0Z" fill="white"/>
<path d="M25.7833 29.4328C23.3178 29.4328 21.3455 27.4584 21.3455 24.9903C21.3455 22.5223 23.3178 20.5479 25.7833 20.5479C28.2487 20.5479 30.2211 22.5223 30.2211 24.9903C30.2211 27.4584 28.2487 29.4328 25.7833 29.4328ZM25.7833 21.7819C23.9958 21.7819 22.5782 23.201 22.5782 24.9903C22.5782 26.7797 23.9958 28.1988 25.7833 28.1988C27.5707 28.1988 28.9884 26.7797 28.9884 24.9903C28.9884 23.201 27.5707 21.7819 25.7833 21.7819Z" fill="#0F5EF7" stroke="#0F5EF7" stroke-width="0.5"/>
<path d="M27.6325 37.3314H23.9343L23.3179 33.3208C22.7632 33.1357 22.2701 32.9506 21.777 32.7038L18.5103 35.1102L15.9215 32.5187L18.2637 29.3103C17.9555 28.8166 17.709 28.2613 17.5241 27.6443L13.7026 27.089V23.3869L17.4625 22.8316C17.6474 22.2146 17.8939 21.5976 18.2021 20.9806L15.9832 17.9572L18.5719 15.3658L21.4688 17.5253C22.0852 17.1551 22.7632 16.9083 23.4412 16.7232L23.9343 13.1445H27.6325L28.1255 16.7232C28.8035 16.9083 29.4815 17.2168 30.0979 17.5253L32.9948 15.3658L35.5835 17.9572L33.3646 20.9806C33.6728 21.5976 33.9194 22.2146 34.1043 22.8316L37.8641 23.3869V27.089L33.981 27.6443C33.7961 28.1996 33.5495 28.7549 33.2414 29.3103L35.5835 32.5187L32.9948 35.1102L29.7897 32.6421C29.2966 32.8889 28.8035 33.1357 28.2488 33.2591L27.6325 37.3314ZM25.0437 36.0974H26.5846L27.1394 32.3336L27.5708 32.2102C28.1872 32.0251 28.8652 31.7166 29.4815 31.4081L29.8514 31.223L32.8715 33.5059L33.981 32.3953L31.7621 29.372L32.0086 29.0017C32.4401 28.3847 32.7483 27.6443 32.9332 26.9039L33.0565 26.5337L36.693 25.9784V24.4359L33.1797 23.9422L33.1181 23.5103C32.9332 22.7082 32.6866 21.9678 32.2552 21.2274L31.8854 20.9189L33.981 18.1423L32.8715 17.0317L30.1595 19.0678L29.7897 18.821C29.0501 18.3274 28.3105 18.0189 27.4475 17.8338L27.0161 17.7721L26.523 14.4403H24.9821L24.5506 17.7721L24.1192 17.8338C23.2563 18.0189 22.5166 18.3891 21.777 18.821L21.4072 19.0678L18.6952 17.0317L17.5857 18.1423L19.6814 20.9189L19.4965 21.2891C19.065 22.0295 18.7568 22.7699 18.6335 23.572L18.5719 24.0039L15.0586 24.4976V26.0401L18.6952 26.5954L18.8185 26.9656C19.0034 27.706 19.3115 28.3847 19.743 29.0634L19.9895 29.4337L17.7706 32.457L18.8801 33.5676L21.9003 31.2847L22.0852 31.4081C22.7015 31.7783 23.3795 32.0251 24.0575 32.2102L24.489 32.3336L25.0437 36.0974Z" fill="#0F5EF7" stroke="#0F5EF7" stroke-width="0.5"/>
<path d="M25.7831 45.4761C16.6609 45.4761 8.64818 39.306 6.306 30.4827C6.24436 30.1742 6.42927 29.804 6.73745 29.7423C7.04564 29.6806 7.41545 29.8657 7.47709 30.1742C9.696 38.4422 17.2156 44.2421 25.7831 44.2421C36.2613 44.2421 44.7671 35.7273 44.7671 25.2381C44.7671 24.8679 45.0136 24.6211 45.3835 24.6211C45.7533 24.6211 45.9998 24.8679 45.9998 25.2381C45.9998 36.406 36.9393 45.4761 25.7831 45.4761Z" fill="#0F5EF7" stroke="#0F5EF7" stroke-width="0.5"/>
<path d="M6.24454 25.855C5.87472 25.855 5.62817 25.6082 5.62817 25.238C5.62817 14.0701 14.6887 5 25.8449 5C34.2275 5 41.8704 10.3063 44.7673 18.2041C44.8905 18.5126 44.7056 18.8828 44.3975 19.0062C44.0893 19.1296 43.7195 18.9445 43.5962 18.636C40.8225 11.2318 33.7344 6.23402 25.8449 6.23402C15.3051 6.29573 6.8609 14.7488 6.8609 25.238C6.8609 25.6082 6.55272 25.855 6.24454 25.855Z" fill="#0F5EF7" stroke="#0F5EF7" stroke-width="0.5"/>
<path d="M5.62817 34.4928C5.56654 34.4928 5.5049 34.4928 5.44326 34.4928C5.13508 34.3694 4.95017 34.0609 5.01181 33.7523L5.93636 30.5439C6.05963 30.112 6.36781 29.8035 6.79926 29.6801C7.23072 29.5567 7.66217 29.6801 7.97036 30.0503L10.2509 32.4566C10.4974 32.7034 10.4974 33.0736 10.2509 33.3204C10.0044 33.5672 9.63454 33.5672 9.38799 33.3204L7.10745 30.9141L6.1829 34.1226C6.12126 34.3077 5.87472 34.4928 5.62817 34.4928Z" fill="#0F5EF7" stroke="#0F5EF7" stroke-width="0.5"/>
<path d="M44.2744 19.623C44.0278 19.623 43.7813 19.5613 43.5964 19.3762L40.8844 17.5252C40.5762 17.3401 40.5146 16.9699 40.6995 16.6614C40.8844 16.3529 41.2542 16.2912 41.5624 16.4763L44.2744 18.3273L44.5209 14.9954C44.5209 14.6252 44.8291 14.3784 45.1989 14.4401C45.5687 14.4401 45.8153 14.7486 45.7536 15.1188L45.5071 18.4507C45.4455 18.8826 45.1989 19.2528 44.8291 19.4379C44.6442 19.5613 44.4593 19.623 44.2744 19.623Z" fill="#0F5EF7" stroke="#0F5EF7" stroke-width="0.5"/>
</svg>
