<svg width="50" height="50" viewBox="0 0 50 50" fill="none" xmlns="http://www.w3.org/2000/svg">
<path d="M50 0H0V50H50V0Z" fill="white"/>
<path d="M27.8076 12.131C28.4286 11.469 28.8119 10.5808 28.8119 9.60344C28.8119 7.56096 27.1509 5.9 25.1084 5.9C23.066 5.9 21.4041 7.56093 21.4041 9.60344C21.4041 10.5807 21.7876 11.4692 22.409 12.131C20.0311 12.8181 18.3656 14.4069 18.3656 16.3387V19.1042C18.3656 19.5315 18.7123 19.8781 19.1395 19.8781H31.0773C31.5045 19.8781 31.8512 19.5315 31.8512 19.1042V16.3388C31.8512 16.3388 31.8512 16.3387 31.8512 16.3387C31.8518 14.4075 30.1854 12.8179 27.8076 12.131ZM21.4357 14.223C22.3832 13.6626 23.6888 13.3078 25.1084 13.3078H25.1088C26.5284 13.3078 27.8342 13.6627 28.782 14.223C29.733 14.7853 30.3046 15.5415 30.3046 16.3396V18.3312H19.9135V16.3396C19.9135 15.5414 20.4849 14.7853 21.4357 14.223ZM22.9516 9.60344C22.9516 8.41427 23.9195 7.44753 25.1084 7.44753C26.2976 7.44753 27.2643 8.41451 27.2643 9.60344C27.2643 10.7924 26.2976 11.7603 25.1084 11.7603C23.9192 11.7603 22.9516 10.7924 22.9516 9.60344Z" fill="#0F5EF7" stroke="#0F5EF7" stroke-width="0.2"/>
<path d="M14.3429 35.2717C14.9638 34.6098 15.3471 33.7224 15.3471 32.745C15.3471 30.7025 13.6853 29.0406 11.6428 29.0406C9.60112 29.0406 7.93935 30.7024 7.93935 32.745C7.93935 33.7222 8.32284 34.6096 8.94346 35.2708C6.56548 35.9579 4.9 37.5476 4.9 39.4794V42.2449C4.9 42.6722 5.24668 43.0188 5.67391 43.0188H17.6117C18.039 43.0188 18.3856 42.6722 18.3856 42.2449V39.4795C18.3856 39.4795 18.3856 39.4795 18.3856 39.4794C18.3862 37.5477 16.7205 35.958 14.3429 35.2717ZM7.97048 37.3623C8.91802 36.8018 10.2237 36.4467 11.6434 36.4467H11.6435C13.0631 36.4467 14.3691 36.8017 15.3169 37.3622C16.268 37.9246 16.8395 38.6808 16.8395 39.4785V41.4701H6.44843V39.4785C6.44843 38.6809 7.01974 37.9248 7.97048 37.3623ZM9.48748 32.745C9.48748 31.5557 10.4545 30.5882 11.6434 30.5882C12.8326 30.5882 13.8002 31.556 13.8002 32.745C13.8002 33.9329 12.8324 34.8999 11.6435 34.9C10.4544 34.8991 9.48748 33.9323 9.48748 32.745Z" fill="#0F5EF7" stroke="#0F5EF7" stroke-width="0.2"/>
<path d="M41.2717 35.2707C41.8925 34.6089 42.2758 33.7223 42.2758 32.745C42.2758 30.7025 40.6149 29.0406 38.5724 29.0406C36.5299 29.0406 34.869 30.7024 34.869 32.745C34.869 33.7222 35.2525 34.6096 35.8731 35.2708C33.4951 35.9579 31.8287 37.5476 31.8287 39.4794V42.2449C31.8287 42.6722 32.1754 43.0188 32.6026 43.0188H44.5419C44.9692 43.0188 45.3159 42.6722 45.3159 42.2449V39.4795C45.3159 39.4795 45.3159 39.4795 45.3159 39.4794C45.3164 37.5475 43.6495 35.9578 41.2717 35.2707ZM34.8991 37.3623C35.8467 36.8018 37.1523 36.4467 38.572 36.4467H38.5721C39.9918 36.4467 41.2977 36.8017 42.2456 37.3622C43.1966 37.9246 43.7682 38.6808 43.7682 39.4785V41.4701H33.3771V39.4785C33.3771 38.6809 33.9484 37.9248 34.8991 37.3623ZM36.417 32.745C36.417 31.5557 37.384 30.5882 38.5729 30.5882C39.7621 30.5882 40.7288 31.556 40.7288 32.745C40.7288 33.933 39.7619 34.9 38.5729 34.9C37.384 34.9 36.417 33.9324 36.417 32.745Z" fill="#0F5EF7" stroke="#0F5EF7" stroke-width="0.2"/>
<path d="M28.804 31.8463C28.804 32.6996 28.5053 33.4196 27.908 34.0063C27.3213 34.5929 26.5266 34.9609 25.524 35.1103V36.1183C25.524 36.3636 25.4493 36.5609 25.3 36.7103C25.1506 36.8703 24.9533 36.9503 24.708 36.9503C24.4626 36.9503 24.2653 36.8703 24.116 36.7103C23.9666 36.5609 23.892 36.3636 23.892 36.1183V35.1423C23.284 35.0889 22.692 34.9609 22.116 34.7583C21.54 34.5556 21.044 34.2889 20.628 33.9583C20.4893 33.8623 20.3933 33.7556 20.34 33.6383C20.2866 33.5209 20.26 33.3769 20.26 33.2063C20.26 32.9823 20.324 32.7849 20.452 32.6143C20.5906 32.4436 20.7453 32.3583 20.916 32.3583C21.0226 32.3583 21.1186 32.3796 21.204 32.4223C21.3 32.4543 21.4226 32.5129 21.572 32.5983C22.0626 32.9183 22.5426 33.1529 23.012 33.3023C23.492 33.4516 23.9933 33.5263 24.516 33.5263C25.2306 33.5263 25.78 33.3876 26.164 33.1103C26.5586 32.8329 26.756 32.4329 26.756 31.9103C26.756 31.6009 26.6493 31.3503 26.436 31.1583C26.2226 30.9663 25.956 30.8169 25.636 30.7103C25.316 30.5929 24.868 30.4596 24.292 30.3103C23.492 30.1076 22.8413 29.9049 22.34 29.7023C21.8386 29.4889 21.4066 29.1689 21.044 28.7423C20.6813 28.3156 20.5 27.7396 20.5 27.0143C20.5 26.1503 20.8093 25.4143 21.428 24.8063C22.0466 24.1983 22.8573 23.8196 23.86 23.6703V22.6623C23.86 22.4169 23.9346 22.2196 24.084 22.0703C24.2333 21.9103 24.4306 21.8303 24.676 21.8303C24.9213 21.8303 25.1186 21.9103 25.268 22.0703C25.4173 22.2196 25.492 22.4169 25.492 22.6623V23.6543C26.5693 23.7929 27.4973 24.1823 28.276 24.8223C28.532 25.0143 28.66 25.2649 28.66 25.5743C28.66 25.7983 28.5906 25.9956 28.452 26.1663C28.324 26.3369 28.1693 26.4223 27.988 26.4223C27.892 26.4223 27.796 26.4063 27.7 26.3743C27.6146 26.3423 27.4973 26.2783 27.348 26.1823C26.9106 25.8729 26.4946 25.6436 26.1 25.4943C25.716 25.3343 25.2573 25.2543 24.724 25.2543C24.0626 25.2543 23.5346 25.4036 23.14 25.7023C22.7453 25.9903 22.548 26.3903 22.548 26.9023C22.548 27.2543 22.66 27.5423 22.884 27.7663C23.108 27.9796 23.3906 28.1449 23.732 28.2623C24.0733 28.3796 24.5373 28.5129 25.124 28.6623C25.9026 28.8543 26.5373 29.0516 27.028 29.2543C27.5186 29.4569 27.9346 29.7663 28.276 30.1823C28.628 30.5876 28.804 31.1423 28.804 31.8463Z" fill="#0F5EF7"/>
</svg>
