<svg width="50" height="50" viewBox="0 0 50 50" fill="none" xmlns="http://www.w3.org/2000/svg">
<path d="M50 0H0V50H50V0Z" fill="white"/>
<path d="M27.8077 12.131C28.4287 11.469 28.812 10.5808 28.812 9.60344C28.812 7.56096 27.151 5.9 25.1086 5.9C23.0661 5.9 21.4042 7.56093 21.4042 9.60344C21.4042 10.5807 21.7877 11.4692 22.4091 12.131C20.0312 12.8181 18.3657 14.4069 18.3657 16.3387V19.1042C18.3657 19.5315 18.7124 19.8781 19.1396 19.8781H31.0774C31.5047 19.8781 31.8513 19.5315 31.8513 19.1042V16.3388C31.8513 16.3388 31.8513 16.3387 31.8513 16.3387C31.8519 14.4075 30.1856 12.8179 27.8077 12.131ZM21.4358 14.223C22.3833 13.6626 23.689 13.3078 25.1086 13.3078H25.1089C26.5285 13.3078 27.8343 13.6627 28.7821 14.223C29.7331 14.7853 30.3047 15.5415 30.3047 16.3396V18.3312H19.9136V16.3396C19.9136 15.5414 20.485 14.7853 21.4358 14.223ZM22.9517 9.60344C22.9517 8.41427 23.9196 7.44753 25.1086 7.44753C26.2978 7.44753 27.2645 8.41451 27.2645 9.60344C27.2645 10.7924 26.2977 11.7603 25.1086 11.7603C23.9193 11.7603 22.9517 10.7924 22.9517 9.60344Z" fill="#007399" stroke="#007399" stroke-width="0.2"/>
<path d="M14.3429 35.2717C14.9638 34.6098 15.3471 33.7224 15.3471 32.745C15.3471 30.7025 13.6853 29.0406 11.6428 29.0406C9.60112 29.0406 7.93935 30.7024 7.93935 32.745C7.93935 33.7222 8.32284 34.6096 8.94346 35.2708C6.56548 35.9579 4.9 37.5476 4.9 39.4794V42.2449C4.9 42.6722 5.24668 43.0188 5.67391 43.0188H17.6117C18.039 43.0188 18.3856 42.6722 18.3856 42.2449V39.4795C18.3856 39.4795 18.3856 39.4795 18.3856 39.4794C18.3862 37.5477 16.7205 35.958 14.3429 35.2717ZM7.97048 37.3623C8.91802 36.8018 10.2237 36.4467 11.6434 36.4467H11.6435C13.0631 36.4467 14.3691 36.8017 15.3169 37.3622C16.268 37.9246 16.8395 38.6808 16.8395 39.4785V41.4701H6.44843V39.4785C6.44843 38.6809 7.01974 37.9248 7.97048 37.3623ZM9.48748 32.745C9.48748 31.5557 10.4545 30.5882 11.6434 30.5882C12.8326 30.5882 13.8002 31.556 13.8002 32.745C13.8002 33.9329 12.8324 34.8999 11.6435 34.9C10.4544 34.8991 9.48748 33.9323 9.48748 32.745Z" fill="#007399" stroke="#007399" stroke-width="0.2"/>
<path d="M41.2717 35.2707C41.8925 34.6089 42.2758 33.7223 42.2758 32.745C42.2758 30.7025 40.6148 29.0406 38.5723 29.0406C36.5298 29.0406 34.8689 30.7024 34.8689 32.745C34.8689 33.7222 35.2524 34.6096 35.873 35.2708C33.495 35.9579 31.8286 37.5476 31.8286 39.4794V42.2449C31.8286 42.6722 32.1753 43.0188 32.6026 43.0188H44.5419C44.9691 43.0188 45.3158 42.6722 45.3158 42.2449V39.4795C45.3158 39.4795 45.3158 39.4795 45.3158 39.4794C45.3164 37.5475 43.6495 35.9578 41.2717 35.2707ZM34.899 37.3623C35.8466 36.8018 37.1523 36.4467 38.572 36.4467H38.572C39.9917 36.4467 41.2977 36.8017 42.2455 37.3622C43.1965 37.9246 43.7681 38.6808 43.7681 39.4785V41.4701H33.377V39.4785C33.377 38.6809 33.9483 37.9248 34.899 37.3623ZM36.417 32.745C36.417 31.5557 37.384 30.5882 38.5729 30.5882C39.762 30.5882 40.7288 31.556 40.7288 32.745C40.7288 33.933 39.7618 34.9 38.5729 34.9C37.3839 34.9 36.417 33.9324 36.417 32.745Z" fill="#007399" stroke="#007399" stroke-width="0.2"/>
<path d="M24.7079 36.9983C24.4732 36.9983 24.2812 36.9183 24.1319 36.7583C23.9826 36.6089 23.9079 36.4223 23.9079 36.1983V34.7743L24.2759 35.1263C23.5399 35.1049 22.8839 35.0089 22.3079 34.8383C21.7426 34.6676 21.2626 34.4703 20.8679 34.2463C20.6759 34.1289 20.5426 33.9849 20.4679 33.8143C20.3932 33.6329 20.3666 33.4516 20.3879 33.2703C20.4092 33.0889 20.4732 32.9343 20.5799 32.8063C20.6972 32.6676 20.8412 32.5823 21.0119 32.5503C21.1826 32.5076 21.3799 32.5503 21.6039 32.6783C21.9026 32.8489 22.2919 33.0143 22.7719 33.1743C23.2626 33.3236 23.8492 33.3983 24.5319 33.3983C25.0652 33.3983 25.4972 33.3343 25.8279 33.2063C26.1586 33.0783 26.3986 32.9023 26.5479 32.6783C26.7079 32.4543 26.7879 32.1983 26.7879 31.9103C26.7879 31.6756 26.7346 31.4729 26.6279 31.3023C26.5212 31.1209 26.3452 30.9663 26.0999 30.8383C25.8546 30.6996 25.5239 30.5876 25.1079 30.5023L23.4119 30.1343C22.4412 29.9209 21.7159 29.5636 21.2359 29.0623C20.7559 28.5609 20.5159 27.9049 20.5159 27.0943C20.5159 26.4649 20.6706 25.9049 20.9799 25.4143C21.2892 24.9129 21.7212 24.5129 22.2759 24.2143C22.8306 23.9156 23.4812 23.7396 24.2279 23.6863L23.9079 23.9263V22.5823C23.9079 22.3583 23.9826 22.1716 24.1319 22.0223C24.2812 21.8623 24.4732 21.7823 24.7079 21.7823C24.9319 21.7823 25.1186 21.8623 25.2679 22.0223C25.4279 22.1716 25.5079 22.3583 25.5079 22.5823V23.9263L25.1719 23.6703C25.6306 23.6809 26.1319 23.7716 26.6759 23.9423C27.2306 24.1129 27.7052 24.3529 28.0999 24.6623C28.2599 24.7903 28.3666 24.9396 28.4199 25.1103C28.4732 25.2703 28.4786 25.4303 28.4359 25.5903C28.3932 25.7396 28.3132 25.8676 28.1959 25.9743C28.0786 26.0809 27.9292 26.1449 27.7479 26.1663C27.5772 26.1769 27.3799 26.1183 27.1559 25.9903C26.8466 25.8089 26.4999 25.6649 26.1159 25.5583C25.7319 25.4409 25.2732 25.3823 24.7399 25.3823C24.0572 25.3823 23.5186 25.5369 23.1239 25.8463C22.7399 26.1449 22.5479 26.5396 22.5479 27.0303C22.5479 27.3929 22.6652 27.6863 22.8999 27.9103C23.1346 28.1236 23.5346 28.2943 24.0999 28.4223L25.8439 28.8063C26.8679 29.0303 27.6199 29.3876 28.0999 29.8783C28.5799 30.3583 28.8199 30.9929 28.8199 31.7823C28.8199 32.4009 28.6652 32.9503 28.3559 33.4303C28.0466 33.8996 27.6199 34.2783 27.0759 34.5663C26.5426 34.8436 25.9186 35.0196 25.2039 35.0943L25.5079 34.7583V36.1983C25.5079 36.4223 25.4332 36.6089 25.2839 36.7583C25.1346 36.9183 24.9426 36.9983 24.7079 36.9983Z" fill="#007399"/>
</svg>
