<svg width="50" height="50" viewBox="0 0 50 50" fill="none" xmlns="http://www.w3.org/2000/svg">
<path d="M50 0H0V50H50V0Z" fill="white"/>
<path d="M40.2107 27.3812H31.3193C29.1472 27.3812 27.3803 29.1481 27.3803 31.3203V40.2109C27.3803 42.3831 29.1472 44.15 31.3193 44.15H40.2107C42.3829 44.15 44.1498 42.3831 44.1498 40.2109V31.3203C44.1498 29.1481 42.3829 27.3812 40.2107 27.3812ZM42.5124 40.2108C42.5124 41.4796 41.4793 42.5125 40.2107 42.5125H31.3193C30.0505 42.5125 29.0176 41.4794 29.0176 40.2108V31.3201C29.0176 30.0513 30.0507 29.0184 31.3193 29.0184H40.2107C41.4796 29.0184 42.5124 30.0516 42.5124 31.3201V40.2108Z" fill="#007399" stroke="#007399" stroke-width="0.3"/>
<path d="M19.6805 6.85H10.789C8.61688 6.85 6.85 8.61688 6.85 10.789V19.6797C6.85 21.8518 8.61688 23.6187 10.789 23.6187H19.6805C21.8526 23.6187 23.6195 21.8518 23.6195 19.6797V10.789C23.6195 8.61688 21.8526 6.85 19.6805 6.85ZM21.9821 19.6795C21.9821 20.9486 20.9495 21.9812 19.6805 21.9812H10.789C9.51994 21.9812 8.48734 20.9486 8.48734 19.6795V10.7889C8.48734 9.51979 9.51994 8.48719 10.789 8.48719H19.6805C20.9495 8.48719 21.9821 9.51979 21.9821 10.7889V19.6795Z" fill="#007399" stroke="#007399" stroke-width="0.3"/>
<path d="M40.2107 6.85H31.3193C29.1472 6.85 27.3803 8.61688 27.3803 10.789V19.6797C27.3803 21.8518 29.1472 23.6187 31.3193 23.6187H40.2107C42.3829 23.6187 44.1498 21.8518 44.1498 19.6797V10.789C44.1498 8.61688 42.3829 6.85 40.2107 6.85ZM42.5124 19.6795C42.5124 20.9486 41.4793 21.9812 40.2107 21.9812H31.3193C30.0504 21.9812 29.0176 20.9486 29.0176 19.6795V10.7889C29.0176 9.51981 30.0507 8.48719 31.3193 8.48719H40.2107C41.4796 8.48719 42.5124 9.5198 42.5124 10.7889V19.6795Z" fill="#007399" stroke="#007399" stroke-width="0.3"/>
<path d="M19.6805 27.3812H10.789C8.61688 27.3812 6.85 29.1481 6.85 31.3203V40.2109C6.85 42.3831 8.61688 44.15 10.789 44.15H19.6805C21.8526 44.15 23.6195 42.3831 23.6195 40.2109V31.3203C23.6195 29.1481 21.8526 27.3812 19.6805 27.3812ZM21.9821 40.2108C21.9821 41.4797 20.9495 42.5125 19.6805 42.5125H10.789C9.51996 42.5125 8.48734 41.4794 8.48734 40.2108V31.3201C8.48734 30.0513 9.51995 29.0184 10.789 29.0184H19.6805C20.9495 29.0184 21.9821 30.0516 21.9821 31.3201V40.2108Z" fill="#007399" stroke="#007399" stroke-width="0.3"/>
</svg>
