<svg width="60" height="60" viewBox="0 0 60 60" fill="none" xmlns="http://www.w3.org/2000/svg">
<path d="M60 0H0V60H60V0Z" fill="white"/>
<path d="M46.791 39.3276C47.7742 39.3276 48.6327 38.4691 48.6327 37.486C48.6327 36.5028 47.7742 35.6443 46.791 35.6443C45.8079 35.6443 44.9494 36.5028 44.9494 37.486C44.9494 38.4691 45.8079 39.3276 46.791 39.3276ZM46.791 36.9388C46.9588 36.9388 47.0948 36.9945 47.1887 37.0884C47.2825 37.1822 47.3382 37.3182 47.3382 37.486C47.3382 37.6538 47.2825 37.7897 47.1887 37.8836C47.0948 37.9775 46.9588 38.0332 46.791 38.0332C46.6232 38.0332 46.4873 37.9775 46.3934 37.8836C46.2995 37.7897 46.2438 37.6538 46.2438 37.486C46.2438 37.3182 46.2995 37.1822 46.3934 37.0884C46.4873 36.9945 46.6232 36.9388 46.791 36.9388Z" fill="#0F5EF7" stroke="#0F5EF7" stroke-width="0.1"/>
<path d="M46.791 42.8104C45.8079 42.8104 44.9494 43.6688 44.9494 44.652C44.9494 45.6351 45.8079 46.4936 46.791 46.4936C47.7742 46.4936 48.6327 45.6351 48.6327 44.652C48.6327 43.6688 47.7742 42.8104 46.791 42.8104ZM46.791 45.1992C46.6232 45.1992 46.4873 45.1435 46.3934 45.0496C46.2995 44.9557 46.2438 44.8198 46.2438 44.652C46.2438 44.4842 46.2995 44.3482 46.3934 44.2544C46.4873 44.1605 46.6232 44.1048 46.791 44.1048C46.9588 44.1048 47.0948 44.1605 47.1887 44.2544C47.2825 44.3482 47.3382 44.4842 47.3382 44.652C47.3382 44.8198 47.2825 44.9557 47.1887 45.0496C47.0948 45.1435 46.9588 45.1992 46.791 45.1992Z" fill="#0F5EF7" stroke="#0F5EF7" stroke-width="0.1"/>
<path d="M46.791 53.6616C47.7742 53.6616 48.6327 52.8031 48.6327 51.82C48.6327 50.8368 47.7742 49.9783 46.791 49.9783C45.8079 49.9783 44.9494 50.8368 44.9494 51.82C44.9494 52.8031 45.8079 53.6616 46.791 53.6616ZM46.791 51.2727C46.9588 51.2727 47.0948 51.3285 47.1887 51.4223C47.2825 51.5162 47.3382 51.6522 47.3382 51.82C47.3382 51.9878 47.2825 52.1237 47.1887 52.2176C47.0948 52.3115 46.9588 52.3672 46.791 52.3672C46.6232 52.3672 46.4873 52.3115 46.3934 52.2176C46.2995 52.1237 46.2438 51.9878 46.2438 51.82C46.2438 51.6522 46.2995 51.5162 46.3934 51.4223C46.4873 51.3285 46.6232 51.2727 46.791 51.2727Z" fill="#0F5EF7" stroke="#0F5EF7" stroke-width="0.1"/>
<mask id="path-5-outside-1_1242_412" maskUnits="userSpaceOnUse" x="1" y="12" width="58" height="45" fill="black">
<rect fill="white" x="1" y="12" width="58" height="45"/>
<path d="M2.59721 46.4446H10.361V54.8056H4.98606C4.62774 54.8056 4.38885 55.0445 4.38885 55.4028C4.38885 55.7611 4.62774 56 4.98606 56H16.9303C17.2886 56 17.5275 55.7611 17.5275 55.4028C17.5275 55.0445 17.2886 54.8056 16.9303 54.8056H11.5554V46.4446H22.9024C23.2608 46.4446 23.4997 46.2057 23.4997 45.8474V44.653C23.4997 41.0697 20.5136 38.0836 16.9303 38.0836H12.7498V34.5003H35.4439V55.4021C35.4439 55.7604 35.6828 55.9993 36.0411 55.9993H57.5408C57.8991 55.9993 58.138 55.7604 58.138 55.4021V30.3192C58.138 29.9608 57.8991 29.722 57.5408 29.722H53.5992L55.7491 23.3915C55.8686 23.1526 55.7491 23.0332 55.6297 22.7943C55.5103 22.6748 55.3908 22.5554 55.1519 22.5554H50.9714V17.7777H52.1659C53.4797 17.7777 54.5547 16.7027 54.5547 15.3889V13.5972C54.5547 13.2389 54.3158 13 53.9575 13H52.1659C50.852 13 49.777 14.075 49.777 15.3889V16.5833H48.5826C47.2687 16.5833 46.1937 17.6583 46.1937 18.9721V20.7638C46.1937 21.1221 46.4326 21.361 46.791 21.361H48.5826C49.0604 21.361 49.4187 21.2415 49.777 21.0027V22.5554H45.5965C45.3576 22.5554 45.2382 22.6748 45.1188 22.7943C44.9993 22.9137 44.9993 23.1526 44.9993 23.3915L47.1493 29.722H34.2495V29.1247C34.2495 28.1692 33.4134 27.3331 32.4578 27.3331H31.8606V26.1387H40.8188C41.1772 26.1387 41.416 25.8998 41.416 25.5415V13.5972C41.416 13.2389 41.1772 13 40.8188 13H19.3192C18.9608 13 18.722 13.2389 18.722 13.5972V25.5415C18.722 25.8998 18.9608 26.1387 19.3192 26.1387H28.2774V27.3331H27.6801C26.7246 27.3331 25.8885 28.1692 25.8885 29.1247V29.722H12.7498V24.347C12.7498 20.0471 9.286 16.5833 4.98606 16.5833H2.59721C2.23889 16.5833 2 16.8222 2 17.1805V45.8467C2 46.205 2.23889 46.4439 2.59721 46.4439V46.4446ZM50.9721 15.3895C50.9721 14.6729 51.4499 14.1951 52.1666 14.1951H53.361V15.3895C53.361 16.1062 52.8832 16.584 52.1666 16.584H50.9721V15.3895ZM48.5833 20.1672H47.3889V18.9728C47.3889 18.2562 47.8666 17.7784 48.5833 17.7784H49.7777V18.9728C49.7777 19.6895 49.2999 20.1672 48.5833 20.1672ZM22.3059 44.6536V45.2509H3.19511V39.2787H16.9303C19.9164 39.2787 22.3052 41.6676 22.3052 44.6536H22.3059ZM36.639 41.6676H56.9443V47.6397H36.639V41.6676ZM56.9443 40.4732H36.639V34.501H56.9443V40.4732ZM56.9443 54.8063H36.639V48.8341H56.9443V54.8063ZM46.4333 23.7512H54.3165L52.286 29.7233H48.3444L46.4333 23.7512ZM19.9171 14.1958H40.2223V24.9456H19.9171V14.1958ZM29.4725 26.14H30.6669V27.3345H29.4725V26.14ZM27.0836 29.1261C27.0836 28.7678 27.3225 28.5289 27.6808 28.5289H32.4585C32.8169 28.5289 33.0557 28.7678 33.0557 29.1261V29.7233H27.0836V29.1261ZM47.9854 30.9177H56.9436V33.3066H12.7498V30.9177H47.9854ZM4.98606 17.7791C8.56934 17.7791 11.5554 20.7651 11.5554 24.3484V38.0836H3.19443V17.7784L4.98606 17.7791Z"/>
</mask>
<path d="M2.59721 46.4446H10.361V54.8056H4.98606C4.62774 54.8056 4.38885 55.0445 4.38885 55.4028C4.38885 55.7611 4.62774 56 4.98606 56H16.9303C17.2886 56 17.5275 55.7611 17.5275 55.4028C17.5275 55.0445 17.2886 54.8056 16.9303 54.8056H11.5554V46.4446H22.9024C23.2608 46.4446 23.4997 46.2057 23.4997 45.8474V44.653C23.4997 41.0697 20.5136 38.0836 16.9303 38.0836H12.7498V34.5003H35.4439V55.4021C35.4439 55.7604 35.6828 55.9993 36.0411 55.9993H57.5408C57.8991 55.9993 58.138 55.7604 58.138 55.4021V30.3192C58.138 29.9608 57.8991 29.722 57.5408 29.722H53.5992L55.7491 23.3915C55.8686 23.1526 55.7491 23.0332 55.6297 22.7943C55.5103 22.6748 55.3908 22.5554 55.1519 22.5554H50.9714V17.7777H52.1659C53.4797 17.7777 54.5547 16.7027 54.5547 15.3889V13.5972C54.5547 13.2389 54.3158 13 53.9575 13H52.1659C50.852 13 49.777 14.075 49.777 15.3889V16.5833H48.5826C47.2687 16.5833 46.1937 17.6583 46.1937 18.9721V20.7638C46.1937 21.1221 46.4326 21.361 46.791 21.361H48.5826C49.0604 21.361 49.4187 21.2415 49.777 21.0027V22.5554H45.5965C45.3576 22.5554 45.2382 22.6748 45.1188 22.7943C44.9993 22.9137 44.9993 23.1526 44.9993 23.3915L47.1493 29.722H34.2495V29.1247C34.2495 28.1692 33.4134 27.3331 32.4578 27.3331H31.8606V26.1387H40.8188C41.1772 26.1387 41.416 25.8998 41.416 25.5415V13.5972C41.416 13.2389 41.1772 13 40.8188 13H19.3192C18.9608 13 18.722 13.2389 18.722 13.5972V25.5415C18.722 25.8998 18.9608 26.1387 19.3192 26.1387H28.2774V27.3331H27.6801C26.7246 27.3331 25.8885 28.1692 25.8885 29.1247V29.722H12.7498V24.347C12.7498 20.0471 9.286 16.5833 4.98606 16.5833H2.59721C2.23889 16.5833 2 16.8222 2 17.1805V45.8467C2 46.205 2.23889 46.4439 2.59721 46.4439V46.4446ZM50.9721 15.3895C50.9721 14.6729 51.4499 14.1951 52.1666 14.1951H53.361V15.3895C53.361 16.1062 52.8832 16.584 52.1666 16.584H50.9721V15.3895ZM48.5833 20.1672H47.3889V18.9728C47.3889 18.2562 47.8666 17.7784 48.5833 17.7784H49.7777V18.9728C49.7777 19.6895 49.2999 20.1672 48.5833 20.1672ZM22.3059 44.6536V45.2509H3.19511V39.2787H16.9303C19.9164 39.2787 22.3052 41.6676 22.3052 44.6536H22.3059ZM36.639 41.6676H56.9443V47.6397H36.639V41.6676ZM56.9443 40.4732H36.639V34.501H56.9443V40.4732ZM56.9443 54.8063H36.639V48.8341H56.9443V54.8063ZM46.4333 23.7512H54.3165L52.286 29.7233H48.3444L46.4333 23.7512ZM19.9171 14.1958H40.2223V24.9456H19.9171V14.1958ZM29.4725 26.14H30.6669V27.3345H29.4725V26.14ZM27.0836 29.1261C27.0836 28.7678 27.3225 28.5289 27.6808 28.5289H32.4585C32.8169 28.5289 33.0557 28.7678 33.0557 29.1261V29.7233H27.0836V29.1261ZM47.9854 30.9177H56.9436V33.3066H12.7498V30.9177H47.9854ZM4.98606 17.7791C8.56934 17.7791 11.5554 20.7651 11.5554 24.3484V38.0836H3.19443V17.7784L4.98606 17.7791Z" fill="#0F5EF7"/>
<path d="M2.59721 46.4446H10.361V54.8056H4.98606C4.62774 54.8056 4.38885 55.0445 4.38885 55.4028C4.38885 55.7611 4.62774 56 4.98606 56H16.9303C17.2886 56 17.5275 55.7611 17.5275 55.4028C17.5275 55.0445 17.2886 54.8056 16.9303 54.8056H11.5554V46.4446H22.9024C23.2608 46.4446 23.4997 46.2057 23.4997 45.8474V44.653C23.4997 41.0697 20.5136 38.0836 16.9303 38.0836H12.7498V34.5003H35.4439V55.4021C35.4439 55.7604 35.6828 55.9993 36.0411 55.9993H57.5408C57.8991 55.9993 58.138 55.7604 58.138 55.4021V30.3192C58.138 29.9608 57.8991 29.722 57.5408 29.722H53.5992L55.7491 23.3915C55.8686 23.1526 55.7491 23.0332 55.6297 22.7943C55.5103 22.6748 55.3908 22.5554 55.1519 22.5554H50.9714V17.7777H52.1659C53.4797 17.7777 54.5547 16.7027 54.5547 15.3889V13.5972C54.5547 13.2389 54.3158 13 53.9575 13H52.1659C50.852 13 49.777 14.075 49.777 15.3889V16.5833H48.5826C47.2687 16.5833 46.1937 17.6583 46.1937 18.9721V20.7638C46.1937 21.1221 46.4326 21.361 46.791 21.361H48.5826C49.0604 21.361 49.4187 21.2415 49.777 21.0027V22.5554H45.5965C45.3576 22.5554 45.2382 22.6748 45.1188 22.7943C44.9993 22.9137 44.9993 23.1526 44.9993 23.3915L47.1493 29.722H34.2495V29.1247C34.2495 28.1692 33.4134 27.3331 32.4578 27.3331H31.8606V26.1387H40.8188C41.1772 26.1387 41.416 25.8998 41.416 25.5415V13.5972C41.416 13.2389 41.1772 13 40.8188 13H19.3192C18.9608 13 18.722 13.2389 18.722 13.5972V25.5415C18.722 25.8998 18.9608 26.1387 19.3192 26.1387H28.2774V27.3331H27.6801C26.7246 27.3331 25.8885 28.1692 25.8885 29.1247V29.722H12.7498V24.347C12.7498 20.0471 9.286 16.5833 4.98606 16.5833H2.59721C2.23889 16.5833 2 16.8222 2 17.1805V45.8467C2 46.205 2.23889 46.4439 2.59721 46.4439V46.4446ZM50.9721 15.3895C50.9721 14.6729 51.4499 14.1951 52.1666 14.1951H53.361V15.3895C53.361 16.1062 52.8832 16.584 52.1666 16.584H50.9721V15.3895ZM48.5833 20.1672H47.3889V18.9728C47.3889 18.2562 47.8666 17.7784 48.5833 17.7784H49.7777V18.9728C49.7777 19.6895 49.2999 20.1672 48.5833 20.1672ZM22.3059 44.6536V45.2509H3.19511V39.2787H16.9303C19.9164 39.2787 22.3052 41.6676 22.3052 44.6536H22.3059ZM36.639 41.6676H56.9443V47.6397H36.639V41.6676ZM56.9443 40.4732H36.639V34.501H56.9443V40.4732ZM56.9443 54.8063H36.639V48.8341H56.9443V54.8063ZM46.4333 23.7512H54.3165L52.286 29.7233H48.3444L46.4333 23.7512ZM19.9171 14.1958H40.2223V24.9456H19.9171V14.1958ZM29.4725 26.14H30.6669V27.3345H29.4725V26.14ZM27.0836 29.1261C27.0836 28.7678 27.3225 28.5289 27.6808 28.5289H32.4585C32.8169 28.5289 33.0557 28.7678 33.0557 29.1261V29.7233H27.0836V29.1261ZM47.9854 30.9177H56.9436V33.3066H12.7498V30.9177H47.9854ZM4.98606 17.7791C8.56934 17.7791 11.5554 20.7651 11.5554 24.3484V38.0836H3.19443V17.7784L4.98606 17.7791Z" stroke="#0F5EF7" stroke-width="0.6" mask="url(#path-5-outside-1_1242_412)"/>
</svg>
