<svg width="50" height="50" viewBox="0 0 50 50" fill="none" xmlns="http://www.w3.org/2000/svg">
<path d="M50 0H0V50H50V0Z" fill="white"/>
<path d="M29.8142 7.83594H7.68774C5.65506 7.83594 4 9.1588 4 10.7861V28.4873C4 30.1146 5.65506 31.4375 7.68774 31.4375H29.8142C31.8469 31.4375 33.5019 30.1146 33.5019 28.4873V10.7861C33.5019 9.1588 31.8469 7.83594 29.8142 7.83594ZM32.0268 28.4873C32.0268 29.4632 31.0341 30.2574 29.8142 30.2574H7.68774C6.46784 30.2574 5.4751 29.4632 5.4751 28.4873V10.7861C5.4751 9.81021 6.46784 9.01601 7.68774 9.01601H29.8142C31.0341 9.01601 32.0268 9.81021 32.0268 10.7861V28.4873Z" fill="#007399"/>
<path d="M10.6379 10.7861H7.68774C7.28062 10.7861 6.9502 11.1166 6.9502 11.5237C6.9502 11.9308 7.28062 12.2612 7.68774 12.2612H10.6379C11.0451 12.2612 11.3755 11.9308 11.3755 11.5237C11.3755 11.1166 11.0451 10.7861 10.6379 10.7861Z" fill="#007399"/>
<path d="M13.5884 12.2612H16.5386C16.9457 12.2612 17.2761 11.9308 17.2761 11.5237C17.2761 11.1166 16.9457 10.7861 16.5386 10.7861H13.5884C13.1813 10.7861 12.8508 11.1166 12.8508 11.5237C12.8508 11.9308 13.1813 12.2612 13.5884 12.2612Z" fill="#007399"/>
<circle cx="34.3675" cy="33.3862" r="12.5658" fill="white"/>
<path d="M34.5353 25.4738C30.1935 25.4738 26.6615 29.0059 26.6615 33.3477C26.6615 37.6897 30.1935 41.2218 34.5353 41.2218C38.8771 41.2218 42.4091 37.6897 42.4091 33.3477C42.4091 29.0059 38.8771 25.4738 34.5353 25.4738ZM36.7636 32.1807L40.2277 29.4183C41.0014 30.5354 41.4555 31.8891 41.4555 33.3477C41.4555 33.7119 41.4259 34.0694 41.3708 34.419L37.0519 33.4333C37.0529 33.4049 37.0535 33.3764 37.0535 33.3477C37.0535 32.9259 36.9475 32.5293 36.7636 32.1807ZM34.5353 34.9122C33.6728 34.9122 32.9708 34.2102 32.9708 33.3477C32.9708 32.4855 33.6728 31.7834 34.5353 31.7834C35.3978 31.7834 36.0998 32.4855 36.0998 33.3477C36.0998 34.2102 35.3978 34.9122 34.5353 34.9122ZM35.0121 30.8768V26.4454C36.8352 26.5702 38.466 27.404 39.6314 28.6738L36.1695 31.4344C35.8447 31.1568 35.4483 30.9606 35.0121 30.8768ZM29.4391 28.6738C30.6046 27.404 32.2354 26.5702 34.0585 26.4454V30.8768C33.6223 30.9606 33.2259 31.1568 32.901 31.4344L29.4391 28.6738ZM32.0186 33.4333L27.6998 34.419C27.6447 34.0694 27.6151 33.7119 27.6151 33.3477C27.6151 31.8891 28.0692 30.5354 28.8429 29.4183L32.307 32.1807C32.1231 32.5293 32.0171 32.9259 32.0171 33.3477C32.0171 33.3764 32.0177 33.4049 32.0186 33.4333ZM33.0343 35.3659L31.1114 39.3588C29.5894 38.4883 28.4286 37.0569 27.9115 35.3487L32.2336 34.3623C32.4104 34.7623 32.6878 35.1075 33.0343 35.3659ZM34.5353 40.2681C33.629 40.2681 32.7637 40.092 31.9699 39.7737L33.8929 35.7807C34.0975 35.8355 34.3125 35.8658 34.5353 35.8658C34.7581 35.8658 34.9731 35.8355 35.1777 35.7807L37.1006 39.7737C36.3069 40.092 35.4416 40.2681 34.5353 40.2681ZM36.837 34.3623L41.159 35.3487C40.642 37.0569 39.4812 38.4883 37.9592 39.3588L36.0363 35.3659C36.3828 35.1075 36.6601 34.7623 36.837 34.3623Z" fill="#007399" stroke="#007399" stroke-width="0.4"/>
<path d="M25.9521 25.8927L27.1019 26.8094C28.8199 24.8586 31.2919 23.588 34.0585 23.4561V21.9887C34.0585 21.7252 34.2721 21.5119 34.5354 21.5119C34.7986 21.5119 35.0122 21.7252 35.0122 21.9887V23.4561C37.7788 23.588 40.2508 24.8587 41.9688 26.8095L43.1187 25.8926L43.241 26.0459L43.1187 25.8926C43.3243 25.7287 43.6248 25.762 43.789 25.9686L43.6324 26.093L43.7888 25.9683C43.953 26.1742 43.9191 26.4741 43.7134 26.6383L25.9521 25.8927ZM25.9521 25.8927C25.9521 25.8926 25.9521 25.8926 25.952 25.8926L25.9521 25.8927ZM45.7152 35.4101L44.2878 35.0844L25.8273 26.049C25.7081 25.9538 25.5336 25.9733 25.4383 26.093L25.282 25.9683C25.2819 25.9684 25.2819 25.9684 25.2818 25.9685C25.1178 26.1744 25.1517 26.4741 25.3573 26.6383L25.3574 26.6384L26.5053 27.5537C25.3257 29.184 24.629 31.186 24.629 33.3478C24.629 33.9404 24.6824 34.5205 24.7828 35.0845L23.3556 35.4101C23.0985 35.4685 22.9382 35.7244 22.9965 35.981L22.9966 35.9812C23.0472 36.2026 23.2439 36.3518 23.4612 36.3518C23.4957 36.3518 23.5315 36.3482 23.5681 36.3397C23.5683 36.3396 23.5685 36.3396 23.5686 36.3395L24.9936 36.0144C25.7217 38.6159 27.4882 40.7856 29.8143 42.052L29.1774 43.3743C29.063 43.6116 29.1629 43.8965 29.3998 44.0109L29.4001 44.011C29.467 44.0432 29.5376 44.0581 29.6068 44.0581C29.7836 44.0581 29.9542 43.9592 30.0365 43.7881C30.0365 43.788 30.0366 43.788 30.0366 43.788L30.6728 42.467C31.8605 42.9722 33.1654 43.2541 34.5354 43.2541C35.9054 43.2541 37.2102 42.9722 38.3979 42.467L39.034 43.788C39.034 43.788 39.0341 43.788 39.0341 43.7881C39.1164 43.9592 39.287 44.0581 39.4638 44.0581C39.5329 44.0581 39.6036 44.0432 39.6705 44.011L39.6708 44.0109C39.9077 43.8965 40.0076 43.6117 39.8932 43.3745C39.8932 43.3744 39.8932 43.3744 39.8932 43.3743L39.2564 42.052C41.5825 40.7856 43.349 38.6159 44.077 36.0144L45.5021 36.3395C45.5023 36.3396 45.5024 36.3396 45.5026 36.3396C45.5392 36.3482 45.5751 36.3518 45.6095 36.3518C45.8271 36.3518 46.0236 36.2022 46.0742 35.9812L46.0742 35.981C46.1326 35.7244 45.9722 35.4685 45.7152 35.4101ZM23.3998 35.6052C23.2509 35.639 23.1576 35.7874 23.1915 35.9366C23.2209 36.065 23.335 36.1518 23.4612 36.1518C23.4816 36.1518 23.5023 36.1496 23.5231 36.1448L23.3998 35.6052ZM34.5354 42.3005C29.599 42.3005 25.5826 38.2841 25.5826 33.3478C25.5826 28.4116 29.599 24.3952 34.5354 24.3952C39.4717 24.3952 43.488 28.4116 43.488 33.3478C43.488 38.2841 39.4717 42.3005 34.5354 42.3005Z" fill="#007399" stroke="#007399" stroke-width="0.4"/>
<path d="M14.1974 39.1819L14.194 39.1817L14.3423 39.3611C16.3342 41.771 18.8422 42.7398 20.8587 43.1044C22.874 43.4687 24.4034 43.2308 24.4501 43.2228L24.5484 43.2059L24.5317 43.1076L24.4439 42.5881L24.4272 42.4894L24.3285 42.5062C24.2881 42.513 21.8818 42.8891 19.1793 41.9039C16.4844 40.9215 13.4836 38.582 12.2445 33.1356L12.2223 33.0381L12.1248 33.0603L11.611 33.1773L11.5136 33.1995L11.5357 33.297C12.1153 35.8447 13.065 37.7532 14.1974 39.1819Z" fill="#007399" stroke="#007399" stroke-width="0.2"/>
<path d="M22.8202 41.8595L22.7307 41.8149C22.6415 41.9942 22.711 42.2122 22.8914 42.2982L22.8915 42.2983L24.0839 42.864L22.7037 43.9426C22.7037 43.9426 22.7037 43.9426 22.7037 43.9427C22.5475 44.0646 22.5102 44.2914 22.6309 44.4507L22.7106 44.3903L23.1369 44.5104L23.1368 44.5105L23.0752 44.4317L23.137 44.5103L24.9837 43.067L24.9838 43.067C25.0819 42.9902 25.1373 42.8683 25.1267 42.7433C25.1162 42.6192 25.0434 42.5086 24.9282 42.4546L24.9284 42.4547L24.8855 42.545M22.8202 41.8595L22.7307 41.815C22.8189 41.6372 23.0334 41.5554 23.2141 41.6413L23.2141 41.6413L23.1712 41.7317L23.2142 41.6414L24.9279 42.4544L24.8855 42.545M22.8202 41.8595C22.7548 41.9911 22.8068 42.1471 22.9344 42.2079M22.8202 41.8595L22.9344 42.2079M24.8855 42.545C24.967 42.5831 25.0195 42.6615 25.0271 42.7518C25.0347 42.842 24.9946 42.9315 24.9222 42.9882M24.8855 42.545L24.9222 42.9882M24.9222 42.9882L23.0752 44.4317C22.9797 44.5067 22.851 44.5067 22.7611 44.4402L24.9222 42.9882ZM22.9344 42.2079L24.172 42.7951L22.9344 42.2079Z" fill="#007399" stroke="#007399" stroke-width="0.2"/>
<path d="M45.4054 18.6341L45.4087 18.6349L45.2923 18.4333C43.729 15.7256 41.4172 14.3532 39.4894 13.6582C37.5628 12.9636 36.0151 12.9439 35.9678 12.944L35.868 12.9443L35.8681 13.044L35.8683 13.5709L35.8684 13.6709L35.9684 13.6708C36.0094 13.6708 38.4448 13.7003 40.9457 15.1213C43.4397 16.5382 46.0095 19.3443 46.3253 24.921L46.331 25.0209L46.4309 25.0152L46.9569 24.9852L47.0567 24.9796L47.0511 24.8798C46.9033 22.2712 46.2844 20.2313 45.4054 18.6341Z" fill="#007399" stroke="#007399" stroke-width="0.2"/>
<path d="M37.0097 14.6866C37.1436 14.5363 37.1284 14.3065 36.9798 14.1737L36.9796 14.1736L35.9669 13.2727L37.5752 12.629C37.5752 12.629 37.5752 12.629 37.5753 12.629C37.7614 12.5546 37.8524 12.3429 37.7776 12.1566L37.6848 12.1938L36.4964 14.7164M37.0097 14.6866C36.8763 14.8367 36.6466 14.8502 36.4964 14.7164M37.0097 14.6866C37.0097 14.6866 37.0097 14.6866 37.0097 14.6866L36.935 14.6202L37.0097 14.6867C37.0097 14.6867 37.0097 14.6866 37.0097 14.6866ZM36.4964 14.7164L36.4965 14.7164L36.5629 14.6417L36.4964 14.7163C36.4964 14.7163 36.4964 14.7163 36.4964 14.7164ZM35.0452 13.4254L35.1113 13.3503L35.0448 13.425L35.045 13.4252C35.0451 13.4253 35.0451 13.4253 35.0452 13.4254ZM37.3052 11.9543L37.3426 12.047L37.3054 11.9542L37.3053 11.9542C37.4667 11.8893 37.6468 11.9493 37.7405 12.0871L37.7405 12.0871C37.7547 12.108 37.7675 12.1312 37.7777 12.1568L37.3052 11.9543Z" fill="#007399" stroke="#007399" stroke-width="0.2"/>
</svg>
