<?xml version="1.0" encoding="utf-8"?>
<!-- Generator: Adobe Illustrator 22.1.0, SVG Export Plug-In . SVG Version: 6.00 Build 0)  -->
<svg version="1.1" id="Layer_1" xmlns="http://www.w3.org/2000/svg" xmlns:xlink="http://www.w3.org/1999/xlink" x="0px" y="0px"
	 viewBox="0 0 50 50" style="enable-background:new 0 0 50 50;" xml:space="preserve">
<rect style="fill:#FFFFFF;" width="50" height="50"/>
<path style="fill:#0F5EF7;" d="M32.03,28.49c0,0.98-0.99,1.77-2.21,1.77H7.69c-1.22,0-2.21-0.79-2.21-1.77v-17.7
	c0-0.98,0.99-1.77,2.21-1.77h22.13c1.22,0,2.21,0.79,2.21,1.77V28.49z M29.81,7.84H7.69C5.66,7.84,4,9.16,4,10.79v17.7
	c0,1.63,1.66,2.95,3.69,2.95h22.13c2.03,0,3.69-1.32,3.69-2.95v-17.7C33.5,9.16,31.85,7.84,29.81,7.84z"/>
<path style="fill:#0F5EF7;" d="M10.64,10.79H7.69c-0.41,0-0.74,0.33-0.74,0.74s0.33,0.74,0.74,0.74h2.95c0.41,0,0.74-0.33,0.74-0.74
	S11.05,10.79,10.64,10.79z"/>
<path style="fill:#0F5EF7;" d="M13.59,12.26h2.95c0.41,0,0.74-0.33,0.74-0.74s-0.33-0.74-0.74-0.74h-2.95
	c-0.41,0-0.74,0.33-0.74,0.74S13.18,12.26,13.59,12.26z"/>
<circle style="fill:#FFFFFF;" cx="34.37" cy="33.39" r="12.57"/>
<path style="fill:#0F5EF7;" d="M41.02,35.1c-0.49,1.81-1.72,3.32-3.34,4.19l0.38,0.71c1.82-0.97,3.19-2.66,3.74-4.68L41.02,35.1z
	 M36.63,34.52l4.69,1.07l0.18-0.78l-4.69-1.07L36.63,34.52z M36,35.64c0.5-0.32,0.89-0.8,1.09-1.37l-0.75-0.27
	c-0.14,0.4-0.42,0.74-0.77,0.97L36,35.64z M38.23,39.46l-2.09-4.34l-0.72,0.35l2.09,4.34L38.23,39.46z M34.54,40.07
	c-0.95,0-1.86-0.2-2.68-0.56l-0.32,0.73c0.92,0.4,1.93,0.62,3,0.62V40.07z M37.21,39.51c-0.82,0.36-1.73,0.56-2.68,0.56v0.8
	c1.06,0,2.08-0.22,3-0.62L37.21,39.51z M34.92,35.71l2.09,4.34l0.72-0.35l-2.09-4.34L34.92,35.71z M34.54,36.07
	c0.31,0,0.6-0.05,0.88-0.15l-0.26-0.76c-0.2,0.07-0.4,0.1-0.62,0.1V36.07z M33.66,35.92c0.27,0.09,0.57,0.15,0.88,0.15v-0.8
	c-0.22,0-0.42-0.04-0.62-0.1L33.66,35.92z M32.06,40.05l2.09-4.34l-0.72-0.35l-2.09,4.34L32.06,40.05z M31.39,39.28
	c-1.62-0.86-2.85-2.38-3.34-4.19l-0.77,0.21c0.55,2.03,1.92,3.72,3.74,4.68L31.39,39.28z M32.93,35.13l-2.09,4.34l0.72,0.35
	l2.09-4.34L32.93,35.13z M31.98,34.26c0.2,0.57,0.59,1.05,1.09,1.37l0.43-0.67c-0.35-0.23-0.63-0.57-0.77-0.97L31.98,34.26z
	 M27.75,35.59l4.69-1.07l-0.18-0.78l-4.69,1.07L27.75,35.59z M27.82,33.35c0-1.49,0.49-2.86,1.31-3.98l-0.64-0.47
	c-0.92,1.25-1.47,2.79-1.47,4.45H27.82z M27.93,34.59c-0.08-0.4-0.12-0.82-0.12-1.24h-0.8c0,0.47,0.05,0.94,0.13,1.39L27.93,34.59z
	 M32.14,33.2l-4.69,1.07l0.18,0.78l4.69-1.07L32.14,33.2z M31.82,33.35c0,0.1,0.01,0.19,0.02,0.28l0.8-0.08
	c-0.01-0.07-0.01-0.13-0.01-0.2H31.82z M32.23,31.92c-0.26,0.41-0.41,0.9-0.41,1.43h0.8c0-0.37,0.11-0.71,0.29-1.01L32.23,31.92z
	 M28.55,29.44l3.76,3l0.5-0.63l-3.76-3L28.55,29.44z M29.45,28.96c1.18-1.37,2.9-2.25,4.82-2.33l-0.03-0.8
	c-2.15,0.08-4.08,1.08-5.4,2.6L29.45,28.96z M33.16,31.38l-3.76-3l-0.5,0.63l3.76,3L33.16,31.38z M34.21,30.65
	c-0.61,0.07-1.16,0.35-1.58,0.76l0.56,0.57c0.3-0.29,0.68-0.49,1.12-0.54L34.21,30.65z M33.86,26.23v4.81h0.8v-4.81H33.86z
	 M34.8,26.63c1.92,0.07,3.64,0.96,4.82,2.33l0.61-0.52c-1.32-1.53-3.24-2.52-5.4-2.6L34.8,26.63z M35.21,31.05v-4.81h-0.8v4.81
	H35.21z M36.44,31.41c-0.42-0.41-0.97-0.69-1.58-0.76l-0.1,0.79c0.43,0.05,0.82,0.25,1.12,0.54L36.44,31.41z M39.67,28.39l-3.76,3
	l0.5,0.63l3.76-3L39.67,28.39z M35.9,33.35c0,0.75-0.61,1.36-1.36,1.36v0.8c1.19,0,2.16-0.97,2.16-2.16H35.9z M34.54,31.98
	c0.75,0,1.36,0.61,1.36,1.36h0.8c0-1.19-0.97-2.16-2.16-2.16V31.98z M33.17,33.35c0-0.75,0.61-1.36,1.36-1.36v-0.8
	c-1.19,0-2.16,0.97-2.16,2.16H33.17z M34.54,34.71c-0.75,0-1.36-0.61-1.36-1.36h-0.8c0,1.19,0.97,2.16,2.16,2.16V34.71z
	 M41.26,33.35c0,0.42-0.04,0.84-0.12,1.24l0.79,0.15c0.08-0.45,0.13-0.91,0.13-1.39H41.26z M39.95,29.37
	c0.82,1.12,1.31,2.49,1.31,3.98h0.8c0-1.67-0.55-3.21-1.47-4.45L39.95,29.37z M36.75,32.44l3.76-3l-0.5-0.63l-3.76,3L36.75,32.44z
	 M37.25,33.35c0-0.52-0.15-1.01-0.41-1.43l-0.68,0.42c0.18,0.29,0.29,0.64,0.29,1.01H37.25z M37.24,33.63
	c0.01-0.09,0.02-0.19,0.02-0.28h-0.8c0,0.07,0,0.13-0.01,0.2L37.24,33.63z M41.62,34.27l-4.69-1.07l-0.18,0.78l4.69,1.07
	L41.62,34.27z M42.61,33.35c0-4.45-3.62-8.07-8.07-8.07v0.8c4.01,0,7.27,3.26,7.27,7.27H42.61z M34.54,41.42
	c4.45,0,8.07-3.62,8.07-8.07h-0.8c0,4.01-3.26,7.27-7.27,7.27V41.42z M26.46,33.35c0,4.45,3.62,8.07,8.07,8.07v-0.8
	c-4.01,0-7.27-3.26-7.27-7.27H26.46z M34.54,25.27c-4.45,0-8.07,3.62-8.07,8.07h0.8c0-4.01,3.26-7.27,7.27-7.27V25.27z M41.41,35.2
	l0.39,0.1l0.11-0.4l-0.41-0.09L41.41,35.2z M36.72,34.13l0.09-0.39l-0.35-0.08l-0.12,0.33L36.72,34.13z M35.78,35.3l-0.22-0.34
	l-0.3,0.19l0.15,0.32L35.78,35.3z M37.87,39.64l-0.36,0.17l0.18,0.38l0.37-0.2L37.87,39.64z M37.37,39.88l0.16,0.37l0.38-0.17
	l-0.18-0.37L37.37,39.88z M35.28,35.54l0.36-0.17l-0.15-0.32l-0.34,0.12L35.28,35.54z M33.79,35.54l0.13-0.38l-0.34-0.12l-0.15,0.32
	L33.79,35.54z M31.7,39.88l-0.36-0.17l-0.18,0.37l0.38,0.17L31.7,39.88z M31.2,39.64l-0.19,0.35l0.37,0.2l0.18-0.38L31.2,39.64z
	 M33.29,35.3l0.36,0.17l0.15-0.32l-0.3-0.19L33.29,35.3z M32.36,34.13l0.38-0.14l-0.12-0.33l-0.35,0.08L32.36,34.13z M27.66,35.2
	l-0.09-0.39l-0.41,0.09l0.11,0.4L27.66,35.2z M27.42,33.35h-0.4H27.42z M27.54,34.66l-0.39,0.07l0.08,0.41l0.41-0.09L27.54,34.66z
	 M32.23,33.59l0.09,0.39l0.35-0.08l-0.04-0.35L32.23,33.59z M32.57,32.13l0.34,0.21l0.19-0.3l-0.28-0.22L32.57,32.13z M28.8,29.13
	l0.25-0.31l-0.32-0.26l-0.25,0.33L28.8,29.13z M29.15,28.7l-0.3-0.26l-0.27,0.31l0.33,0.26L29.15,28.7z M32.91,31.7l-0.25,0.31
	l0.28,0.22l0.25-0.25L32.91,31.7z M34.26,31.05l0.05,0.4l0.35-0.04v-0.35H34.26z M34.26,26.23h0.4v-0.42l-0.42,0.02L34.26,26.23z
	 M34.81,26.23l0.02-0.4l-0.42-0.02v0.42H34.81z M34.81,31.05h-0.4v0.35l0.35,0.04L34.81,31.05z M36.16,31.7l-0.28,0.29l0.25,0.25
	l0.28-0.22L36.16,31.7z M39.92,28.7l0.25,0.31l0.33-0.26l-0.27-0.31L39.92,28.7z M40.27,29.13l0.32-0.24l-0.25-0.33l-0.32,0.26
	L40.27,29.13z M36.5,32.13l-0.25-0.31l-0.28,0.22l0.19,0.3L36.5,32.13z M36.84,33.59l-0.4-0.04l-0.04,0.35l0.35,0.08L36.84,33.59z
	 M41.53,34.66l-0.09,0.39l0.41,0.09l0.08-0.41L41.53,34.66z"/>
<path style="fill:#0F5EF7;" d="M37.87,39.64l-2.09-4.34c0.43-0.27,0.76-0.68,0.93-1.17l4.69,1.07
	C40.89,37.12,39.59,38.72,37.87,39.64z M31.7,39.88l2.09-4.34c0.24,0.08,0.49,0.13,0.75,0.13c0.26,0,0.51-0.05,0.75-0.13l2.09,4.34
	c-0.87,0.38-1.83,0.59-2.84,0.59C33.53,40.47,32.57,40.26,31.7,39.88z M27.66,35.2l4.69-1.07c0.17,0.49,0.51,0.9,0.93,1.17
	l-2.09,4.34C29.48,38.72,28.18,37.12,27.66,35.2z M28.8,29.13l3.76,3c-0.22,0.35-0.35,0.77-0.35,1.22c0,0.08,0,0.16,0.01,0.24
	l-4.69,1.07c-0.08-0.43-0.12-0.86-0.12-1.31C27.42,31.77,27.93,30.31,28.8,29.13z M34.26,26.23v4.81c-0.52,0.06-0.99,0.3-1.35,0.65
	l-3.76-3C30.4,27.25,32.22,26.31,34.26,26.23z M39.92,28.7l-3.76,3c-0.36-0.35-0.83-0.59-1.35-0.65v-4.81
	C36.85,26.31,38.67,27.25,39.92,28.7z M34.54,35.11c-0.97,0-1.76-0.79-1.76-1.76c0-0.97,0.79-1.76,1.76-1.76
	c0.97,0,1.76,0.79,1.76,1.76C36.3,34.32,35.51,35.11,34.54,35.11z M41.53,34.66l-4.69-1.07c0.01-0.08,0.01-0.16,0.01-0.24
	c0-0.45-0.13-0.86-0.35-1.22l3.76-3c0.87,1.18,1.39,2.64,1.39,4.22C41.66,33.8,41.61,34.24,41.53,34.66z M34.54,25.67
	c-4.23,0-7.67,3.44-7.67,7.67c0,4.23,3.44,7.67,7.67,7.67c4.23,0,7.67-3.44,7.67-7.67C42.21,29.12,38.77,25.67,34.54,25.67z"/>
<path style="fill:#0F5EF7;" d="M43.29,33.35c0,4.83-3.93,8.75-8.75,8.75v0.8c5.27,0,9.55-4.29,9.55-9.55H43.29z M34.54,24.6
	c4.83,0,8.75,3.93,8.75,8.75h0.8c0-5.27-4.28-9.55-9.55-9.55V24.6z M25.78,33.35c0-4.83,3.93-8.75,8.75-8.75v-0.8
	c-5.27,0-9.55,4.28-9.55,9.55H25.78z M34.54,42.1c-4.83,0-8.75-3.93-8.75-8.75h-0.8c0,5.27,4.28,9.55,9.55,9.55V42.1z M46.27,36.03
	c0.08-0.36-0.14-0.73-0.51-0.81L45.58,36c-0.07-0.02-0.11-0.08-0.09-0.15L46.27,36.03z M45.61,36.55c0.31,0,0.59-0.21,0.66-0.53
	l-0.78-0.18c0.01-0.06,0.06-0.1,0.12-0.1V36.55z M45.46,36.53c0.05,0.01,0.1,0.02,0.15,0.02v-0.8c0.01,0,0.02,0,0.03,0L45.46,36.53z
	 M43.84,36.17l1.61,0.37l0.18-0.78l-1.61-0.37L43.84,36.17z M39.18,42.32c2.52-1.31,4.42-3.64,5.14-6.44l-0.77-0.2
	c-0.67,2.58-2.42,4.73-4.74,5.93L39.18,42.32z M40.07,43.29l-0.72-1.5l-0.72,0.35l0.72,1.5L40.07,43.29z M39.76,44.19
	c0.34-0.16,0.48-0.57,0.32-0.9l-0.72,0.35c-0.03-0.06,0-0.14,0.06-0.16L39.76,44.19z M39.46,44.26c0.1,0,0.2-0.02,0.29-0.07
	l-0.35-0.72c0.02-0.01,0.04-0.01,0.05-0.01V44.26z M38.85,43.87c0.12,0.24,0.36,0.38,0.61,0.38v-0.8c0.04,0,0.09,0.03,0.11,0.07
	L38.85,43.87z M38.13,42.38l0.72,1.49l0.72-0.35l-0.72-1.49L38.13,42.38z M34.54,43.45c1.47,0,2.86-0.32,4.12-0.88l-0.33-0.73
	c-1.16,0.52-2.44,0.81-3.8,0.81V43.45z M30.41,42.57c1.26,0.57,2.65,0.88,4.12,0.88v-0.8c-1.35,0-2.64-0.29-3.8-0.81L30.41,42.57z
	 M30.22,43.87l0.72-1.49l-0.72-0.35l-0.72,1.49L30.22,43.87z M29.61,44.26c0.25,0,0.49-0.14,0.61-0.38l-0.72-0.35
	c0.02-0.04,0.07-0.07,0.11-0.07V44.26z M29.31,44.19c0.09,0.05,0.2,0.07,0.29,0.07v-0.8c0.02,0,0.04,0,0.05,0.01L29.31,44.19z
	 M29,43.29c-0.16,0.34-0.02,0.74,0.32,0.9l0.35-0.72c0.06,0.03,0.09,0.1,0.06,0.16L29,43.29z M29.72,41.79L29,43.29l0.72,0.35
	l0.72-1.5L29.72,41.79z M24.75,35.88c0.73,2.8,2.63,5.14,5.14,6.44l0.37-0.71c-2.32-1.2-4.07-3.35-4.74-5.93L24.75,35.88z
	 M23.61,36.53l1.61-0.37l-0.18-0.78l-1.61,0.37L23.61,36.53z M23.46,36.55c0.05,0,0.1-0.01,0.15-0.02l-0.18-0.78
	c0.01,0,0.02,0,0.03,0V36.55z M22.8,36.03c0.07,0.31,0.35,0.53,0.66,0.53v-0.8c0.06,0,0.11,0.04,0.12,0.1L22.8,36.03z M23.31,35.22
	c-0.37,0.08-0.59,0.45-0.51,0.81l0.78-0.18c0.01,0.07-0.03,0.13-0.09,0.15L23.31,35.22z M24.93,34.85l-1.62,0.37L23.49,36l1.62-0.37
	L24.93,34.85z M24.43,33.35c0,0.67,0.07,1.33,0.19,1.97l0.78-0.16c-0.12-0.59-0.18-1.19-0.18-1.81H24.43z M26.46,27.28
	c-1.27,1.69-2.03,3.79-2.03,6.07h0.8c0-2.1,0.7-4.03,1.87-5.59L26.46,27.28z M25.23,26.79l1.3,1.04l0.5-0.63l-1.3-1.04L25.23,26.79z
	 M25.13,25.84c-0.23,0.29-0.18,0.72,0.11,0.95l0.5-0.63c0.05,0.04,0.06,0.12,0.02,0.17L25.13,25.84z M26.08,25.74
	c-0.29-0.23-0.72-0.19-0.95,0.11l0.63,0.5c-0.04,0.05-0.12,0.06-0.17,0.02L26.08,25.74z M27.38,26.77l-1.3-1.04l-0.5,0.63l1.3,1.04
	L27.38,26.77z M34.25,23.25c-2.97,0.08-5.63,1.46-7.42,3.58l0.61,0.52c1.66-1.96,4.1-3.22,6.84-3.3L34.25,23.25z M33.86,21.99v1.66
	h0.8v-1.66H33.86z M34.54,21.31c-0.37,0-0.68,0.3-0.68,0.68h0.8c0,0.07-0.06,0.12-0.12,0.12V21.31z M35.21,21.99
	c0-0.37-0.3-0.68-0.68-0.68v0.8c-0.07,0-0.12-0.06-0.12-0.12H35.21z M35.21,23.65v-1.66h-0.8v1.66H35.21z M42.25,26.83
	c-1.8-2.12-4.45-3.49-7.42-3.58l-0.02,0.8c2.74,0.08,5.18,1.34,6.84,3.3L42.25,26.83z M42.99,25.74l-1.3,1.04l0.5,0.63l1.3-1.04
	L42.99,25.74z M43.95,25.84c-0.23-0.29-0.66-0.34-0.95-0.11l0.5,0.63c-0.05,0.04-0.13,0.03-0.17-0.02L43.95,25.84z M43.84,26.79
	c0.29-0.23,0.34-0.66,0.11-0.95l-0.63,0.5c-0.04-0.05-0.03-0.13,0.02-0.17L43.84,26.79z M42.54,27.83l1.3-1.04l-0.5-0.63l-1.3,1.04
	L42.54,27.83z M44.64,33.35c0-2.28-0.76-4.38-2.03-6.07l-0.64,0.48c1.17,1.56,1.87,3.49,1.87,5.59H44.64z M44.45,35.31
	c0.13-0.64,0.19-1.29,0.19-1.97h-0.8c0,0.62-0.06,1.22-0.18,1.81L44.45,35.31z M45.76,35.22l-1.62-0.37l-0.18,0.78L45.58,36
	L45.76,35.22z M45.88,35.94l0.39,0.09l0,0L45.88,35.94z M45.55,36.14l0.09-0.39l0,0L45.55,36.14z M43.93,35.78l0.09-0.39l-0.38-0.09
	l-0.1,0.38L43.93,35.78z M38.99,41.97l-0.18-0.35l-0.34,0.18l0.17,0.35L38.99,41.97z M39.71,43.46l-0.36,0.17l0,0L39.71,43.46z
	 M39.58,43.83l0.17,0.36l0,0L39.58,43.83z M39.21,43.7l0.36-0.17l0,0L39.21,43.7z M38.49,42.21l0.36-0.17l-0.17-0.35l-0.36,0.16
	L38.49,42.21z M30.58,42.21l0.16-0.36l-0.36-0.16l-0.17,0.35L30.58,42.21z M29.86,43.7l-0.36-0.17l0,0L29.86,43.7z M29.49,43.83
	l-0.17,0.36l0,0L29.49,43.83z M29.36,43.46l0.36,0.17l0,0L29.36,43.46z M30.08,41.97l0.36,0.17l0.17-0.35l-0.34-0.18L30.08,41.97z
	 M25.14,35.78l0.39-0.1l-0.1-0.38l-0.38,0.09L25.14,35.78z M23.52,36.14l-0.09-0.39l0,0L23.52,36.14z M23.19,35.94l-0.39,0.09l0,0
	L23.19,35.94z M23.4,35.61L23.49,36l0,0L23.4,35.61z M25.01,35.24l0.09,0.39l0.38-0.09l-0.08-0.38L25.01,35.24z M26.78,27.52
	l0.32,0.24l0.23-0.31l-0.3-0.24L26.78,27.52z M25.48,26.48l-0.25,0.31l0,0L25.48,26.48z M25.44,26.09l0.31,0.25l0,0L25.44,26.09z
	 M25.83,26.05l-0.25,0.31l0,0L25.83,26.05z M27.13,27.09l-0.25,0.31l0.3,0.24l0.25-0.3L27.13,27.09z M34.26,23.65l0.01,0.4
	l0.39-0.01v-0.39H34.26z M34.81,23.65h-0.4v0.39l0.39,0.01L34.81,23.65z M41.94,27.09l-0.31,0.26l0.25,0.3l0.3-0.24L41.94,27.09z
	 M43.24,26.05l-0.25-0.31l0,0L43.24,26.05z M43.63,26.09l-0.31,0.25l0,0L43.63,26.09z M43.59,26.48l0.25,0.31l0,0L43.59,26.48z
	 M42.29,27.52l-0.25-0.31l-0.3,0.24l0.23,0.31L42.29,27.52z M44.06,35.24l-0.39-0.08l-0.08,0.38l0.38,0.09L44.06,35.24z
	 M45.67,35.61L45.58,36l0,0L45.67,35.61z"/>
<path style="fill:#0F5EF7;" d="M34.54,42.5c-5.05,0-9.15-4.11-9.15-9.15s4.11-9.15,9.15-9.15s9.15,4.11,9.15,9.15
	S39.58,42.5,34.54,42.5z M45.67,35.61l-1.62-0.37c0.12-0.61,0.19-1.24,0.19-1.89c0-2.19-0.73-4.21-1.95-5.83l1.3-1.04
	c0.12-0.1,0.14-0.27,0.04-0.39c-0.1-0.12-0.27-0.14-0.39-0.04l-1.3,1.04c-1.73-2.04-4.28-3.36-7.13-3.44v-1.66
	c0-0.15-0.12-0.28-0.28-0.28s-0.28,0.12-0.28,0.28v1.66c-2.86,0.08-5.4,1.4-7.13,3.44l-1.3-1.04c-0.12-0.1-0.29-0.08-0.39,0.04
	c-0.1,0.12-0.08,0.29,0.04,0.39l1.3,1.04c-1.22,1.62-1.95,3.64-1.95,5.83c0,0.65,0.06,1.28,0.19,1.89l-1.62,0.37
	c-0.15,0.03-0.24,0.18-0.21,0.33c0.03,0.13,0.14,0.22,0.27,0.22c0.02,0,0.04,0,0.06-0.01l1.61-0.37c0.7,2.69,2.52,4.93,4.94,6.19
	l-0.72,1.5c-0.07,0.14-0.01,0.3,0.13,0.37c0.04,0.02,0.08,0.03,0.12,0.03c0.1,0,0.2-0.06,0.25-0.16l0.72-1.49
	c1.21,0.54,2.55,0.85,3.96,0.85c1.41,0,2.75-0.3,3.96-0.85l0.72,1.49c0.05,0.1,0.15,0.16,0.25,0.16c0.04,0,0.08-0.01,0.12-0.03
	c0.14-0.07,0.2-0.23,0.13-0.37l-0.72-1.5c2.42-1.26,4.24-3.5,4.94-6.19l1.61,0.37c0.02,0,0.04,0.01,0.06,0.01
	c0.13,0,0.24-0.09,0.27-0.22C45.91,35.79,45.82,35.64,45.67,35.61z"/>
<path style="fill:#0F5EF7;" d="M14.41,39.5L14.41,39.5l0.03-0.4l0,0L14.41,39.5z M24.4,42.93C24.4,42.93,24.4,42.93,24.4,42.93
	c-0.01,0-0.01,0-0.02,0c-0.01,0-0.03,0-0.05,0.01c-0.05,0.01-0.12,0.01-0.2,0.02C23.95,42.98,23.7,43,23.39,43
	c-0.62,0.01-1.49-0.02-2.47-0.19c-1.97-0.36-4.4-1.3-6.34-3.64l-0.31,0.25c2.01,2.43,4.54,3.41,6.58,3.78
	c2.03,0.37,3.57,0.13,3.63,0.12L24.4,42.93z M24.15,42.64l0.09,0.52l0.39-0.07l-0.09-0.52L24.15,42.64z M11.95,33.2
	c1.26,5.55,4.34,7.97,7.12,8.98c2.77,1.01,5.24,0.63,5.3,0.62l-0.07-0.39c0,0,0,0-0.01,0c-0.01,0-0.01,0-0.02,0
	c-0.02,0-0.05,0.01-0.09,0.01c-0.07,0.01-0.18,0.02-0.32,0.03c-0.27,0.02-0.66,0.04-1.13,0.02c-0.94-0.03-2.2-0.18-3.54-0.67
	c-2.66-0.97-5.64-3.28-6.87-8.7L11.95,33.2z M11.68,33.47l0.51-0.12l-0.09-0.39l-0.51,0.12L11.68,33.47z M14.57,39.17
	c-1.16-1.41-2.15-3.32-2.75-5.94l-0.39,0.09c0.61,2.67,1.62,4.64,2.83,6.11L14.57,39.17z M14.42,39.3l0.01-0.2l-0.46-0.03l0.3,0.36
	L14.42,39.3z M24.43,43.12l0.03,0.2l0.2-0.03l-0.03-0.2L24.43,43.12z M24.35,42.6l0.2-0.03l-0.03-0.2l-0.2,0.03L24.35,42.6z
	 M12.15,33.16l0.2-0.04l-0.04-0.2l-0.2,0.04L12.15,33.16z M11.63,33.27l-0.04-0.2l-0.19,0.04l0.04,0.19L11.63,33.27z M14.42,39.3
	l-0.01,0.2l0.46,0.03l-0.3-0.36L14.42,39.3z"/>
<path style="fill:#0F5EF7;" d="M14.42,39.3c-1.19-1.43-2.19-3.38-2.79-6.02l0.51-0.12c2.49,10.96,12.1,9.46,12.2,9.45l0.09,0.52
	C24.35,43.14,18.36,44.07,14.42,39.3L14.42,39.3z"/>
<path style="fill:#0F5EF7;" d="M22.67,44.62L22.67,44.62l0.15-0.37l0,0L22.67,44.62z M22.95,44.27c-0.03,0.02-0.06,0.02-0.07,0
	l-0.26,0.31c0.16,0.14,0.41,0.14,0.58,0.01L22.95,44.27z M24.8,42.83l-1.85,1.44l0.25,0.32l1.85-1.44L24.8,42.83z M24.83,42.77
	c0,0.02-0.01,0.05-0.03,0.06l0.25,0.32c0.12-0.1,0.19-0.25,0.18-0.41L24.83,42.77z M24.8,42.73c0.01,0.01,0.03,0.02,0.03,0.04
	l0.4-0.03c-0.01-0.16-0.11-0.3-0.26-0.37L24.8,42.73z M23.09,41.91l1.71,0.81l0.17-0.36l-1.71-0.81L23.09,41.91z M23,41.95
	c0.02-0.04,0.06-0.05,0.09-0.04l0.17-0.36c-0.23-0.11-0.51,0-0.62,0.22L23,41.95z M23.02,42.03C23,42.02,22.98,41.98,23,41.95
	l-0.36-0.18c-0.11,0.23-0.03,0.51,0.21,0.62L23.02,42.03z M24.36,42.66l-1.34-0.64l-0.17,0.36l1.34,0.64L24.36,42.66z M22.89,44.18
	L24.4,43l-0.25-0.32l-1.51,1.18L22.89,44.18z M22.87,44.27c-0.02-0.02-0.02-0.06,0.02-0.09l-0.25-0.32
	c-0.2,0.15-0.25,0.44-0.09,0.65L22.87,44.27z M22.88,44.28C22.87,44.27,22.87,44.27,22.88,44.28l-0.33,0.23
	c0.02,0.03,0.05,0.05,0.07,0.07L22.88,44.28z M22.75,44.43l0.08-0.18l-0.21,0.34L22.75,44.43z M23.08,44.43l-0.12-0.16l0,0
	L23.08,44.43z M24.92,42.99l0.12,0.16l0,0L24.92,42.99z M24.89,42.55l-0.09,0.18l0,0L24.89,42.55z M23.17,41.73l-0.09,0.18l0,0
	L23.17,41.73z M22.82,41.86L23,41.95l0,0L22.82,41.86z M22.93,42.21l-0.09,0.18l0,0L22.93,42.21z M24.27,42.84L24.4,43l0.26-0.2
	l-0.29-0.14L24.27,42.84z M22.77,44.02l0.12,0.16l0,0L22.77,44.02z M22.71,44.39l0.16-0.12l0,0L22.71,44.39z M22.75,44.43
	l-0.08,0.18l0.21-0.34L22.75,44.43z"/>
<path style="fill:#0F5EF7;" d="M22.75,44.43c-0.01-0.01-0.03-0.03-0.04-0.04c-0.09-0.11-0.06-0.28,0.05-0.37l1.51-1.18l-1.34-0.64
	c-0.13-0.06-0.18-0.22-0.11-0.35c0.07-0.13,0.22-0.19,0.35-0.13l1.71,0.81c0.08,0.04,0.13,0.12,0.14,0.21
	c0.01,0.09-0.03,0.18-0.1,0.24l-1.85,1.44C22.98,44.51,22.84,44.51,22.75,44.43L22.75,44.43z"/>
<path style="fill:#0F5EF7;" d="M45.25,18.29L45.25,18.29l-0.09,0.39l0,0L45.25,18.29z M35.97,13.24
	C35.97,13.24,35.97,13.24,35.97,13.24c0.01,0,0.01,0,0.02,0c0.01,0,0.03,0,0.05,0c0.05,0,0.12,0.01,0.2,0.01
	c0.17,0.01,0.43,0.04,0.73,0.08c0.62,0.09,1.47,0.26,2.41,0.6c1.88,0.68,4.13,2.01,5.64,4.64l0.35-0.2
	c-1.58-2.73-3.91-4.12-5.86-4.82c-1.94-0.7-3.5-0.72-3.56-0.72L35.97,13.24z M36.17,13.57l0-0.53l-0.4,0l0,0.53L36.17,13.57z
	 M46.62,24.9c-0.32-5.68-2.95-8.58-5.53-10.04c-2.57-1.46-5.06-1.49-5.13-1.49l0,0.4c0,0,0,0,0.01,0c0.01,0,0.01,0,0.02,0
	c0.02,0,0.05,0,0.09,0c0.07,0,0.18,0.01,0.32,0.02c0.27,0.02,0.65,0.07,1.11,0.16c0.92,0.18,2.14,0.54,3.38,1.25
	c2.47,1.4,5.02,4.18,5.33,9.72L46.62,24.9z M46.94,24.69l-0.53,0.03l0.02,0.4l0.53-0.03L46.94,24.69z M45.03,18.58
	c0.91,1.58,1.57,3.64,1.72,6.31l0.4-0.02c-0.15-2.73-0.82-4.85-1.77-6.49L45.03,18.58z M45.21,18.48l-0.05,0.19l0.45,0.11l-0.23-0.4
	L45.21,18.48z M35.97,13.04l0-0.2l-0.2,0l0,0.2L35.97,13.04z M35.97,13.57l-0.2,0l0,0.2l0.2,0L35.97,13.57z M46.43,24.92l-0.2,0.01
	l0.01,0.2l0.2-0.01L46.43,24.92z M46.95,24.89l0.01,0.2l0.2-0.01l-0.01-0.2L46.95,24.89z M45.21,18.48l0.05-0.19l-0.45-0.11
	l0.23,0.4L45.21,18.48z"/>
<path style="fill:#0F5EF7;" d="M45.21,18.48c0.93,1.61,1.59,3.7,1.75,6.4l-0.53,0.03c-0.64-11.22-10.36-11.34-10.46-11.34l0-0.53
	C36.05,13.04,42.11,13.12,45.21,18.48L45.21,18.48z"/>
<path style="fill:#0F5EF7;" d="M37.78,11.99L37.78,11.99l-0.25,0.31l0,0L37.78,11.99z M37.42,12.23c0.03-0.01,0.06,0,0.08,0.02
	l0.33-0.22c-0.12-0.18-0.35-0.25-0.56-0.17L37.42,12.23z M35.26,13.09l2.15-0.86l-0.15-0.37l-2.15,0.86L35.26,13.09z M35.22,13.14
	c0-0.02,0.02-0.04,0.04-0.05l-0.15-0.37c-0.15,0.06-0.26,0.19-0.28,0.35L35.22,13.14z M35.24,13.2c-0.02-0.01-0.02-0.03-0.02-0.06
	l-0.39-0.07c-0.03,0.16,0.03,0.32,0.15,0.43L35.24,13.2z M36.7,14.49l-1.45-1.29l-0.27,0.3l1.45,1.29L36.7,14.49z M36.79,14.49
	c-0.02,0.03-0.06,0.03-0.09,0.01l-0.27,0.3c0.19,0.17,0.48,0.15,0.65-0.04L36.79,14.49z M36.78,14.4c0.03,0.02,0.03,0.06,0.01,0.09
	l0.3,0.27c0.17-0.19,0.15-0.48-0.04-0.65L36.78,14.4z M35.65,13.39l1.13,1.01l0.27-0.3l-1.13-1.01L35.65,13.39z M37.46,12.35
	l-1.76,0.7l0.15,0.37l1.76-0.7L37.46,12.35z M37.5,12.27c0.01,0.03,0,0.07-0.04,0.08l0.15,0.37c0.24-0.09,0.35-0.36,0.26-0.6
	L37.5,12.27z M37.49,12.26c0,0,0.01,0.01,0.01,0.01l0.37-0.15c-0.01-0.03-0.03-0.06-0.05-0.09L37.49,12.26z M37.66,12.14l-0.13,0.16
	l0.29-0.27L37.66,12.14z M37.34,12.05l0.07,0.19l0,0L37.34,12.05z M35.19,12.91l-0.07-0.19l0,0L35.19,12.91z M35.11,13.35l0.13-0.15
	l0,0L35.11,13.35z M36.56,14.64l0.13-0.15l0,0L36.56,14.64z M36.93,14.62l-0.15-0.13l0,0L36.93,14.62z M36.91,14.25l0.13-0.15l0,0
	L36.91,14.25z M35.78,13.24l-0.07-0.19l-0.3,0.12l0.24,0.21L35.78,13.24z M37.54,12.54l-0.07-0.19l0,0L37.54,12.54z M37.68,12.19
	l-0.19,0.07l0,0L37.68,12.19z M37.66,12.14l0.13-0.16l-0.29,0.27L37.66,12.14z"/>
<path style="fill:#0F5EF7;" d="M37.66,12.14c0.01,0.02,0.02,0.03,0.03,0.05c0.05,0.13-0.01,0.29-0.15,0.34l-1.76,0.7l1.13,1.01
	c0.11,0.1,0.12,0.26,0.02,0.37c-0.1,0.11-0.26,0.12-0.37,0.02l-1.45-1.29c-0.07-0.06-0.1-0.15-0.08-0.24
	c0.02-0.09,0.08-0.17,0.16-0.2l2.15-0.86C37.46,12,37.59,12.04,37.66,12.14L37.66,12.14z"/>
</svg>
