<svg width="60" height="60" viewBox="0 0 60 60" fill="none" xmlns="http://www.w3.org/2000/svg">
<path d="M60 0H0V60H60V0Z" fill="white"/>
<path d="M9.9 35.2415C9.9 31.975 12.5568 29.3181 15.8221 29.318L9.9 35.2415ZM9.9 35.2415V35.6249M9.9 35.2415V35.6249M9.9 35.6249C9.9 35.9926 10.1978 36.2899 10.5651 36.2899M9.9 35.6249L10.5651 36.2899M10.5651 36.2899H21.0783M10.5651 36.2899H21.0783M21.0783 36.2899C21.4451 36.2899 21.7433 35.9927 21.7433 35.6249M21.0783 36.2899L21.7433 35.6249M21.7433 35.6249V35.2415M21.7433 35.6249V35.2415M21.7433 35.2415C21.7433 31.9749 19.0878 29.3181 15.8224 29.318L21.7433 35.2415ZM20.4049 34.9599H11.2388C11.3844 32.5578 13.3853 30.6481 15.8224 30.6481C18.2596 30.6481 20.2593 32.5581 20.4049 34.9599Z" fill="#0F5EF7" stroke="#0F5EF7" stroke-width="0.2"/>
<path d="M15.8224 28.6623C18.1691 28.6623 20.0773 26.7534 20.0773 24.4068C20.0773 22.0602 18.169 20.152 15.8224 20.152C13.4758 20.152 11.5676 22.0609 11.5676 24.4068C11.5676 26.7526 13.4762 28.6623 15.8224 28.6623ZM15.8224 21.4812C17.4352 21.4812 18.7475 22.7935 18.7475 24.4063C18.7475 26.0198 17.4352 27.3317 15.8224 27.3317C14.2097 27.3317 12.8974 26.019 12.8974 24.4063C12.8974 22.7931 14.2093 21.4812 15.8224 21.4812Z" fill="#0F5EF7" stroke="#0F5EF7" stroke-width="0.2"/>
<path d="M23.4465 29.177C23.4465 25.9108 26.1034 23.2536 29.3688 23.2535L23.4465 29.177ZM23.4465 29.177V29.5604M23.4465 29.177V29.5604M23.4465 29.5604C23.4465 29.9273 23.7442 30.2255 24.1116 30.2255M23.4465 29.5604L24.1116 30.2255M24.1116 30.2255H34.6258M24.1116 30.2255H34.6258M34.6258 30.2255C34.9935 30.2255 35.2908 29.9277 35.2908 29.5604M34.6258 30.2255L35.2908 29.5604M35.2908 29.5604V29.177M35.2908 29.5604V29.177M35.2908 29.177C35.2904 25.9108 32.634 23.2536 29.3689 23.2535L35.2908 29.177ZM33.9518 28.8951H24.7853C24.9309 26.493 26.9318 24.5832 29.3689 24.5832C31.806 24.5832 33.8058 26.4928 33.9518 28.8951Z" fill="#0F5EF7" stroke="#0F5EF7" stroke-width="0.2"/>
<path d="M33.6233 18.3423C33.6233 20.6889 31.7155 22.5979 29.3688 22.5979C27.0222 22.5979 25.1132 20.689 25.114 18.3423H33.6233ZM33.6233 18.3423C33.6233 15.9957 31.715 14.0875 29.3688 14.0875M33.6233 18.3423L29.3688 14.0875M29.3688 14.0875C27.023 14.0875 25.114 15.9964 25.114 18.3423L29.3688 14.0875ZM26.4438 18.3418L26.4438 18.3418C26.443 16.7287 27.7556 15.4168 29.3688 15.4168C30.9811 15.4168 32.2931 16.7291 32.2931 18.3418C32.2931 19.9554 30.9807 21.2673 29.3688 21.2673C27.7561 21.2673 26.4438 19.9546 26.4438 18.3418Z" fill="#0F5EF7" stroke="#0F5EF7" stroke-width="0.2"/>
<path d="M38.1975 19.9895C38.1975 16.7234 40.8542 14.0662 44.1196 14.066L38.1975 19.9895ZM38.1975 19.9895V20.3729M38.1975 19.9895V20.3729M38.1975 20.3729C38.1975 20.7398 38.4947 21.038 38.8625 21.038M38.1975 20.3729L38.8625 21.038M38.8625 21.038H49.3757M38.8625 21.038H49.3757M49.3757 21.038C49.7435 21.038 50.0408 20.7402 50.0408 20.3729M49.3757 21.038L50.0408 20.3729M50.0408 20.3729V19.9895M50.0408 20.3729V19.9895M50.0408 19.9895C50.0408 16.723 47.3849 14.0662 44.1199 14.066L50.0408 19.9895ZM48.7028 19.7075H39.5359C39.6822 17.3054 41.6824 15.3957 44.1199 15.3957C46.5571 15.3957 48.5568 17.3053 48.7028 19.7075Z" fill="#0F5EF7" stroke="#0F5EF7" stroke-width="0.2"/>
<path d="M48.3734 9.15484C48.3734 11.5014 46.4656 13.4104 44.119 13.4104C41.7727 13.4104 39.8637 11.5006 39.8641 9.15484H48.3734ZM48.3734 9.15484C48.3734 6.80824 46.4652 4.9 44.119 4.9M48.3734 9.15484L44.119 4.9M44.119 4.9C41.7732 4.9 39.8641 6.80893 39.8641 9.15482L44.119 4.9ZM44.119 6.2293C45.7313 6.2293 47.0432 7.54157 47.0432 9.15434C47.0432 10.7679 45.7309 12.0798 44.119 12.0798C42.5062 12.0798 41.1939 10.7671 41.1939 9.15434C41.1939 7.54119 42.5058 6.2293 44.119 6.2293Z" fill="#0F5EF7" stroke="#0F5EF7" stroke-width="0.2"/>
<path d="M16.1992 36.9781C16.1993 36.9782 16.1993 36.9783 16.1994 36.9783L20.8319 42.4091C20.8319 42.4091 20.8319 42.4091 20.8319 42.4091C21.0003 42.6063 21.0383 42.8837 20.9298 43.1188C20.8212 43.3545 20.5851 43.5052 20.3259 43.5052H18.6055V54.4348C18.6055 54.8026 18.3072 55.0999 17.9404 55.0999H13.7036C13.3364 55.0999 13.0386 54.8026 13.0386 54.4348V43.5052H11.3173C11.0615 43.5052 10.8281 43.3592 10.7176 43.1276C10.6064 42.8962 10.6384 42.6229 10.7993 42.4235L16.1992 36.9781ZM16.1992 36.9781C16.0733 36.8295 15.9041 36.739 15.6834 36.7439M16.1992 36.9781L10.7993 42.4234L15.1751 36.992C15.1751 36.992 15.1751 36.992 15.1751 36.992C15.2993 36.8377 15.486 36.7469 15.6834 36.7439M15.6834 36.7439C15.6836 36.7439 15.6837 36.7439 15.6838 36.7439L15.6853 36.8439L15.683 36.744C15.6831 36.744 15.6833 36.7439 15.6834 36.7439ZM17.94 42.1762C17.5732 42.1762 17.2749 42.4735 17.2749 42.8413V53.771H14.3679V42.8413C14.3679 42.4735 14.0701 42.1762 13.7028 42.1762H12.7072L15.708 38.4511L18.8853 42.1762H17.94Z" fill="#0F5EF7" stroke="#0F5EF7" stroke-width="0.2"/>
<path d="M24.8638 37.8556H26.5851V54.4342C26.5851 54.802 26.8829 55.0993 27.2501 55.0993H31.4869C31.8546 55.0993 32.152 54.802 32.152 54.4342L32.1516 37.8556H33.8729C34.1322 37.8556 34.3677 37.7048 34.4767 37.4693L34.4767 37.4692C34.5853 37.234 34.5467 36.9567 34.3789 36.7596L34.3788 36.7595L29.7461 31.329C29.746 31.3289 29.7459 31.3288 29.7458 31.3287C29.6187 31.1776 29.45 31.0934 29.2314 31.0943L29.2304 31.0944C29.0328 31.0971 28.8459 31.188 28.7216 31.3424C28.7216 31.3424 28.7216 31.3424 28.7216 31.3424L24.3458 36.7739C24.1849 36.9732 24.1529 37.2466 24.2641 37.478C24.3746 37.7096 24.608 37.8556 24.8638 37.8556ZM31.4861 36.5266C31.1184 36.5266 30.821 36.824 30.821 37.1917V53.7704H27.914L27.9144 37.1917C27.9144 36.8239 27.6166 36.5266 27.2493 36.5266H26.2533L29.2541 32.8015L32.4314 36.5266H31.4861Z" fill="#0F5EF7" stroke="#0F5EF7" stroke-width="0.2"/>
<path d="M41.3356 28.8165H39.6139C39.3588 28.8165 39.1247 28.6696 39.0142 28.4389C38.9038 28.2083 38.9358 27.9342 39.0967 27.7349L41.3356 28.8165ZM41.3356 28.8165V54.4346C41.3356 54.8023 41.633 55.0996 42.0007 55.0996H46.237C46.6047 55.0996 46.9021 54.8023 46.9021 54.4346V28.8175L41.3356 28.8165ZM43.4725 22.3034L39.0967 27.7348L44.4966 22.2887L44.4205 22.3535L44.4965 22.2886L44.4966 22.2886C44.3702 22.14 44.1851 22.0553 43.9906 22.0553H43.9827V22.0553L43.9813 22.0553C43.7832 22.0581 43.5968 22.149 43.4725 22.3033C43.4725 22.3034 43.4725 22.3034 43.4725 22.3034ZM46.2378 27.4872C45.8701 27.4872 45.5728 27.785 45.5728 28.1522V53.7703H42.6665V28.1522C42.6665 27.7854 42.3693 27.4872 42.0015 27.4872H41.0043L44.005 23.7624L47.1827 27.4872H46.2378Z" fill="#0F5EF7" stroke="#0F5EF7" stroke-width="0.2"/>
</svg>
