<svg width="50" height="50" viewBox="0 0 50 50" fill="none" xmlns="http://www.w3.org/2000/svg">
<path d="M50 0H0V50H50V0Z" fill="white"/>
<path fill-rule="evenodd" clip-rule="evenodd" d="M16.5626 24.0557H30.6248C32.1781 24.0557 33.4374 22.787 33.4374 21.2222V19.255C30.7771 18.8053 28.7499 16.4744 28.7499 13.6666C28.7499 10.537 31.2682 8.00006 34.3749 8.00006C37.4815 8.00006 40 10.537 40 13.6666C40 16.4744 37.9728 18.8053 35.3123 19.255V21.2222C35.3123 23.8303 33.2138 25.9444 30.6249 25.9444H16.5626V30.7451C19.2229 31.1948 21.2501 33.5256 21.2501 36.3334C21.2501 39.4631 18.7318 42 15.6251 42C12.5185 42 10 39.4631 10 36.3334C10 33.5256 12.0272 31.1947 14.6877 30.7451V19.2549C12.0272 18.8052 10 16.4744 10 13.6666C10 10.5369 12.5185 8 15.6251 8C18.7318 8 21.2501 10.5369 21.2501 13.6666C21.2501 16.4744 19.2228 18.8053 16.5626 19.2549L16.5626 24.0557ZM15.6251 9.88858C13.5539 9.88858 11.875 11.58 11.875 13.6664C11.875 15.753 13.5538 17.4442 15.6251 17.4442C17.6961 17.4442 19.3751 15.753 19.3751 13.6664C19.3751 11.5801 17.6961 9.88858 15.6251 9.88858ZM34.375 9.88858C32.304 9.88858 30.6249 11.58 30.6249 13.6664C30.6249 15.753 32.3039 17.4442 34.375 17.4442C36.4462 17.4442 38.125 15.753 38.125 13.6664C38.125 11.5801 36.4463 9.88858 34.375 9.88858ZM15.6251 32.5557C13.5539 32.5557 11.875 34.2468 11.875 36.3335C11.875 38.4198 13.5538 40.1113 15.6251 40.1113C17.6961 40.1113 19.3751 38.4199 19.3751 36.3335C19.3751 34.2469 17.6961 32.5557 15.6251 32.5557Z" fill="#0F5EF7"/>
</svg>
