<svg width="60" height="60" viewBox="0 0 60 60" fill="none" xmlns="http://www.w3.org/2000/svg">
<path d="M60 0H0V60H60V0Z" fill="white"/>
<path d="M55.4629 14.3858H19.917C19.5949 14.3858 19.3799 14.6543 19.3799 14.9229V22.5475C19.7559 22.5475 20.1316 22.6011 20.4537 22.655L20.4541 15.46H54.9261V43.7035H31.891C32.2131 44.0256 32.5352 44.4016 32.8573 44.7773H55.4628C55.7849 44.7773 55.9999 44.5626 55.9999 44.2402V14.9228C55.9999 14.6543 55.7853 14.3857 55.4628 14.3857L55.4629 14.3858Z" fill="#0F5EF7" stroke="#0F5EF7"/>
<path d="M30.8591 40.9941L42.9941 28.8591C43.1551 28.6445 43.1551 28.3759 42.9405 28.161C42.7259 27.9463 42.4034 27.9463 42.1888 28.161L37.7321 32.6176L30 40.2958C30.2686 40.5108 30.5907 40.7254 30.8592 40.9939L30.8591 40.9941Z" fill="#0F5EF7" stroke="#0F5EF7"/>
<path d="M19.2727 37.6023H19.3802C19.7562 37.6023 20.1319 37.5487 20.454 37.4948C23.8904 36.9577 26.5215 33.9508 26.5215 30.3534C26.5215 26.7558 23.8904 23.8026 20.454 23.212C20.0779 23.1584 19.7558 23.1045 19.3802 23.1045H19.2727C15.2992 23.1045 12.0237 26.3264 12.0237 30.3535C12.0237 34.3806 15.2991 37.6024 19.2727 37.6024V37.6023ZM19.2727 24.2323H19.3802C19.7562 24.2323 20.1319 24.2859 20.454 24.3398C23.2998 24.8769 25.4474 27.4006 25.4474 30.3535C25.4474 33.3603 23.2998 35.8305 20.454 36.3672C20.0779 36.4208 19.7558 36.4747 19.3802 36.4747H19.2727C15.8898 36.4747 13.1515 33.7364 13.1515 30.3535C13.1515 26.9706 15.8898 24.2323 19.2727 24.2323V24.2323Z" fill="#0F5EF7" stroke="#0F5EF7"/>
<path d="M30.7097 44.8316L30.5487 44.6705C30.2801 44.402 30.0116 44.1873 29.7434 43.9724C29.6359 43.9188 29.5823 43.8113 29.4748 43.7577C29.2602 43.5967 29.0452 43.4892 28.8842 43.3281C26.629 41.8247 23.7293 40.8045 20.5079 40.6434C20.1319 40.6434 19.8098 40.5898 19.4341 40.5898H19.3266C11.4335 40.5898 5.09751 45.2076 5.04382 50.9529C4.99026 51.2215 4.88276 51.9732 5.47342 52.7784C7.03038 54.926 11.6481 56.0003 19.273 56.0003C26.8976 56.0003 31.5154 54.9265 33.0725 52.7784C33.6632 51.9192 33.6096 51.2215 33.5021 50.9529C33.5017 48.6442 32.4279 46.5501 30.7095 44.8317L30.7097 44.8316ZM19.2727 54.9799C9.87617 54.9799 7.19143 53.2614 6.38601 52.2415C5.9564 51.6509 6.0639 51.2212 6.0639 51.2212C6.0639 51.1677 6.11746 51.1137 6.11746 51.0602C6.11746 45.9053 12.0241 41.6636 19.2727 41.6636H19.3802C19.7562 41.6636 20.0783 41.6636 20.454 41.7172C23.1387 41.8782 25.5549 42.6299 27.5418 43.7577C28.1325 44.0798 28.6156 44.4558 29.0988 44.8315C31.1393 46.4959 32.4278 48.644 32.4278 51.0601V51.2212C32.4278 51.2212 32.5353 51.6508 32.1057 52.2415C31.354 53.2618 28.6692 54.9798 19.2726 54.9798L19.2727 54.9799Z" fill="#0F5EF7" stroke="#0F5EF7"/>
</svg>
