<svg width="60" height="60" viewBox="0 0 60 60" fill="none" xmlns="http://www.w3.org/2000/svg">
<path d="M60 0H0V60H60V0Z" fill="white"/>
<path d="M30.1157 4C21.0507 4 13.6888 11.3619 13.6888 20.4269C13.6888 24.6199 15.2619 28.4547 17.8524 31.3586L7.07203 49.9345C6.96678 50.1314 6.97739 50.3704 7.10046 50.5571C7.22353 50.7434 7.43913 50.8478 7.66151 50.8283L13.9548 50.2579L16.8067 55.6765C16.9102 55.8717 17.1123 55.9957 17.3334 55.9999C17.5549 56.0037 17.7607 55.887 17.8715 55.6952L28.6705 36.7966C29.1492 36.8386 29.6262 36.8539 30.1155 36.8539C30.6049 36.8539 31.0818 36.8386 31.5606 36.7966L42.3596 55.6952C42.4703 55.887 42.6761 56.0037 42.8977 55.9999C43.1188 55.9957 43.3208 55.8717 43.4243 55.6765L46.2762 50.2579L52.5695 50.8283C52.7919 50.8478 53.0075 50.7434 53.1306 50.5571C53.2536 50.3704 53.2643 50.1314 53.159 49.9345L42.3786 31.3586C44.9691 28.4542 46.5423 24.6194 46.5423 20.4269C46.5423 11.3619 39.1804 4 30.1154 4H30.1157ZM30.1157 5.2167C38.5233 5.2167 45.3258 12.0196 45.3258 20.4268C45.3258 28.8344 38.5233 35.6369 30.1157 35.6369C21.7081 35.6369 14.9056 28.8344 14.9056 20.4268C14.9056 12.0196 21.7081 5.2167 30.1157 5.2167ZM30.1157 8.25872C23.4027 8.25872 17.9476 13.7138 17.9476 20.4268C17.9476 27.1402 23.4027 32.5949 30.1157 32.5949C36.8286 32.5949 42.2838 27.1402 42.2838 20.4268C42.2838 13.7138 36.8286 8.25872 30.1157 8.25872ZM30.1157 9.47586C36.1712 9.47586 41.0669 14.3716 41.0669 20.4271C41.0669 26.4827 36.1712 31.3784 30.1157 31.3784C24.0601 31.3784 19.1644 26.4827 19.1644 20.4271C19.1644 14.372 24.0601 9.47586 30.1157 9.47586ZM30.0015 12.5179C29.8203 12.5561 29.6662 12.6749 29.5835 12.8408L27.473 16.9668L22.7389 17.6322C22.5051 17.6615 22.3094 17.8228 22.2365 18.0464C22.163 18.2701 22.2254 18.5162 22.3965 18.6779L25.7996 21.8718L25.0013 26.3971C24.9619 26.6237 25.0539 26.8533 25.239 26.9899C25.424 27.1266 25.6706 27.1474 25.876 27.0434L30.1156 24.8948L34.3552 27.0434C34.5606 27.1474 34.8072 27.1266 34.9922 26.9899C35.1772 26.8533 35.2693 26.6237 35.2299 26.3971L34.4316 21.8718L37.8347 18.6779C38.0058 18.5162 38.0681 18.2701 37.9947 18.0464C37.9217 17.8228 37.7261 17.6615 37.4923 17.6322L32.7582 16.9668L30.6477 12.8408C30.5268 12.6032 30.2645 12.4721 30.0014 12.5179H30.0015ZM30.1157 14.4378L31.8268 17.8033C31.9176 17.9786 32.0874 18.0991 32.283 18.1267L36.0664 18.6589L33.3478 21.2256C33.201 21.3609 33.1297 21.56 33.1577 21.7577L33.8232 25.4084L30.3818 23.6781C30.2137 23.5966 30.0176 23.5966 29.8496 23.6781L26.4082 25.4084L27.0736 21.7577C27.1016 21.56 27.0303 21.3609 26.8835 21.2256L24.1649 18.6589L27.9483 18.1267C28.144 18.0991 28.3137 17.9786 28.4045 17.8033L30.1157 14.4378ZM18.7461 32.2717C19.7859 33.2694 20.9521 34.1394 22.2252 34.8384L13.9165 49.0598L8.72624 49.5161L18.7461 32.2717ZM41.4852 32.2717L51.5051 49.5156L46.3149 49.0594L38.0061 34.8379C39.2793 34.139 40.4455 33.269 41.4852 32.2712V32.2717ZM23.3091 35.3705C24.581 35.9524 25.9378 36.384 27.3586 36.6255L17.3579 54.1366L15.0004 49.6496L23.3091 35.3705ZM36.9222 35.3705L45.2309 49.6496L42.8735 54.1366L32.8727 36.6255C34.2936 36.384 35.6503 35.9524 36.9222 35.3705Z" fill="#0F5EF7" stroke="#0F5EF7" stroke-width="0.6"/>
</svg>
