<svg width="60" height="60" viewBox="0 0 60 60" fill="none" xmlns="http://www.w3.org/2000/svg">
<path d="M60 0H0V60H60V0Z" fill="white"/>
<path d="M31.6661 44.7009H28.8525C28.3346 44.7009 27.9147 44.281 27.9147 43.7631C27.9147 43.2451 28.3346 42.8252 28.8525 42.8252H31.6661C32.184 42.8252 32.604 43.2451 32.604 43.7631C32.604 44.281 32.184 44.7009 31.6661 44.7009Z" fill="#0F5EF7"/>
<path d="M53.7064 10H6.8136C6.06751 10.0008 5.35237 10.2977 4.82481 10.8248C4.29768 11.3524 4.00084 12.0675 4 12.8136V44.7007C4.00084 45.4468 4.29768 46.1619 4.82481 46.6895C5.35236 47.2166 6.06749 47.5135 6.8136 47.5143H23.9458L23.0578 51.7346H22.7572C21.7624 51.7359 20.809 52.1311 20.1056 52.8346C19.4023 53.538 19.007 54.4913 19.0057 55.4861C19.0057 55.7348 19.1045 55.9734 19.2804 56.1493C19.4562 56.3251 19.6949 56.4239 19.9436 56.4239H40.5764C40.8251 56.4239 41.0638 56.3251 41.2396 56.1493C41.4155 55.9734 41.5143 55.7348 41.5143 55.4861C41.513 54.4913 41.1178 53.5379 40.4144 52.8346C39.7109 52.1312 38.7576 51.7359 37.7628 51.7346H37.4622L36.5742 47.5143H53.7064C54.4525 47.5134 55.1676 47.2166 55.6952 46.6895C56.2223 46.1619 56.5192 45.4468 56.52 44.7007V12.8136C56.5192 12.0675 56.2223 11.3524 55.6952 10.8248C55.1676 10.2977 54.4525 10.0008 53.7064 10H53.7064ZM54.6442 12.8136V25.0057H48.9464C48.7533 23.8082 48.1404 22.7184 47.2176 21.9308C46.2948 21.1437 45.1221 20.7099 43.9092 20.7078H41.9329C40.7196 20.7099 39.5472 21.1437 38.6241 21.9308C37.7013 22.7184 37.0888 23.8082 36.8957 25.0057H31.1978V11.8757H53.7064C54.2243 11.8761 54.6438 12.2957 54.6442 12.8136ZM38.8175 40.0114C39.0047 39.3285 39.4104 38.7256 39.9731 38.2952C40.5358 37.8652 41.2241 37.6315 41.9325 37.6307H43.9091H43.9086C44.6171 37.6315 45.3053 37.8652 45.8681 38.2952C46.4308 38.7256 46.8365 39.3285 47.0236 40.0114H38.8175ZM48.9397 40.0114C48.7379 38.8223 48.1224 37.7434 47.2017 36.9641C46.2811 36.1854 45.115 35.757 43.9087 35.755H41.9325C40.7262 35.7571 39.5602 36.1854 38.6395 36.9641C37.7188 37.7433 37.1033 38.8223 36.9015 40.0114H31.1973V26.8814H37.8858L37.8904 26.8822H47.9505L47.9551 26.8814H54.6436V40.0114H48.9397ZM13.4952 40.0114C13.6819 39.3281 14.0881 38.7252 14.6507 38.2952C15.2135 37.8647 15.9018 37.6311 16.6102 37.6303H18.5867H18.5863C19.2947 37.6311 19.983 37.8647 20.5457 38.2952C21.1085 38.7251 21.5146 39.328 21.7013 40.0114H13.4952ZM23.6177 40.0114H23.6173C23.4159 38.8223 22.8 37.7429 21.8798 36.9641C20.9591 36.185 19.7926 35.7566 18.5863 35.7546H16.6101C15.4038 35.7567 14.2374 36.185 13.3171 36.9641C12.3964 37.7429 11.7805 38.8223 11.5791 40.0114H5.8749V26.8814H12.5659L12.568 26.8818H22.6282L22.6303 26.8814H29.3213V40.0114H23.6177ZM13.4809 25.0057H13.4805C13.661 24.3128 14.0658 23.699 14.6323 23.2606C15.1984 22.8223 15.8939 22.584 16.6102 22.5832H18.5868H18.5863C19.3027 22.584 19.9982 22.8223 20.5642 23.2606C21.1307 23.699 21.5355 24.3128 21.716 25.0057H13.4809ZM38.8031 25.0057C38.9835 24.3128 39.3884 23.6993 39.9544 23.2611C40.5205 22.8228 41.2163 22.5845 41.9323 22.5836H43.9088H43.9084C44.6244 22.5845 45.3202 22.8227 45.8863 23.2611C46.4523 23.6994 46.8572 24.3128 47.0377 25.0057H38.8031ZM6.81306 11.8757H29.3216V25.0057H23.6237C23.4307 23.8082 22.8182 22.718 21.8954 21.9308C20.9726 21.1433 19.7998 20.7095 18.5865 20.7074H16.6103C15.397 20.7095 14.2242 21.1433 13.3014 21.9308C12.3786 22.7179 11.7661 23.8082 11.5731 25.0057H5.87521V12.8136C5.87563 12.2957 6.29515 11.8761 6.81306 11.8757ZM39.3861 54.5476H21.1328C21.4677 53.9673 22.0865 53.6097 22.7564 53.6097H37.7621C38.432 53.6097 39.0508 53.9673 39.3857 54.5476H39.3861ZM35.5451 51.734H24.9741L25.8626 47.5137H34.6567L35.5451 51.734ZM53.7063 45.638H6.81349C6.29558 45.6376 5.87605 45.218 5.87564 44.7001V41.8866H12.3627C12.4301 41.9075 12.4988 41.9213 12.5687 41.9284H22.6288C22.6988 41.9213 22.7674 41.9075 22.8348 41.8866H37.683H37.6825C37.7504 41.9079 37.8203 41.9221 37.8906 41.9288H47.9508C48.0215 41.9221 48.091 41.9079 48.1589 41.8866H54.6439V44.7001C54.6435 45.218 54.2239 45.6376 53.706 45.638H53.7063Z" fill="#0F5EF7"/>
<path d="M42.8336 20.2976H42.8345C44.7495 20.2976 45.7083 18.1427 45.7963 16.9887H45.7967C45.9286 16.0517 45.661 15.1025 45.0594 14.3728C44.477 13.8356 43.7133 13.5371 42.9207 13.5371C42.1282 13.5371 41.3649 13.8356 40.7821 14.3728C40.1805 15.1026 39.9129 16.0517 40.0448 16.9887C40.1302 18.1067 41.0626 20.2972 42.8337 20.2976H42.8336ZM42.1579 15.6476C42.618 15.3345 43.2234 15.3345 43.6835 15.6476C43.9134 16.0023 44 16.4306 43.9263 16.8468C43.8895 17.3283 43.439 18.4223 42.8344 18.4223H42.8335C42.4881 18.4223 41.9589 17.4313 41.9149 16.8468C41.8412 16.4306 41.9279 16.0023 42.1578 15.6476H42.1579Z" fill="#0F5EF7"/>
<path d="M17.5114 20.2974H17.5122C19.4272 20.2974 20.386 18.1425 20.474 16.9886H20.4744C20.6063 16.0515 20.3388 15.1024 19.7371 14.3726C19.1773 13.7999 18.3982 13.4955 17.5985 13.5369C16.7988 13.4955 16.0197 13.7999 15.4598 14.3726C14.8582 15.1024 14.5906 16.0516 14.7225 16.9886C14.8079 18.1061 15.7404 20.297 17.5115 20.2974H17.5114ZM16.8356 15.6475C17.047 15.4687 17.3229 15.3837 17.5984 15.4126C17.8739 15.3837 18.1498 15.4687 18.3613 15.6475C18.5911 16.0021 18.6778 16.4304 18.6041 16.8467C18.5673 17.3281 18.1168 18.4221 17.5121 18.4221H17.5113C17.1659 18.4221 16.6367 17.4311 16.5927 16.8467C16.519 16.4305 16.6057 16.0022 16.8355 15.6475H16.8356Z" fill="#0F5EF7"/>
<path d="M42.9205 28.5839C42.1208 28.542 41.3417 28.8464 40.7819 29.4196C40.1802 30.1494 39.9127 31.0981 40.0446 32.0347C40.1296 33.1526 41.062 35.3431 42.8326 35.3435H42.8343C44.7493 35.3431 45.7081 33.1886 45.7961 32.0347H45.7965C45.9284 31.0981 45.6609 30.1493 45.0592 29.4196C44.4994 28.8464 43.7203 28.542 42.9206 28.5839H42.9205ZM43.9262 31.8928C43.8893 32.3742 43.4388 33.4682 42.8342 33.4682H42.8334C42.4879 33.4682 41.9587 32.4772 41.9148 31.8928C41.8411 31.477 41.9277 31.0487 42.1576 30.6944C42.6177 30.3813 43.2232 30.3813 43.6832 30.6944C43.9131 31.0487 43.9998 31.477 43.9261 31.8928H43.9262Z" fill="#0F5EF7"/>
<path d="M17.5998 28.5829C16.8001 28.541 16.021 28.8454 15.4612 29.4186C14.8595 30.148 14.592 31.0971 14.7239 32.0337C14.8089 33.1516 15.7413 35.3421 17.5119 35.3425H17.5136C19.4287 35.3421 20.3874 33.1876 20.4754 32.0337H20.4758C20.6077 31.0971 20.3402 30.1479 19.7385 29.4186C19.1787 28.8454 18.3996 28.541 17.5999 28.5829H17.5998ZM18.6055 31.8918C18.5687 32.3733 18.1181 33.4673 17.5135 33.4673H17.5127C17.1673 33.4673 16.638 32.4762 16.5941 31.8918C16.5204 31.476 16.6071 31.0477 16.8369 30.6935C17.0484 30.5143 17.3243 30.4297 17.5998 30.4586C17.8753 30.4297 18.1512 30.5143 18.3626 30.6935C18.5925 31.0477 18.6791 31.476 18.6054 31.8918H18.6055Z" fill="#0F5EF7"/>
</svg>
