<svg width="50" height="50" viewBox="0 0 50 50" fill="none" xmlns="http://www.w3.org/2000/svg">
<path d="M50 0H0V50H50V0Z" fill="white"/>
<path d="M43.8999 10H6.09996C5.54308 10 5.00868 10.2212 4.615 10.615C4.22132 11.0087 4 11.5432 4 12.1V36.9671C4 37.524 4.22125 38.0581 4.615 38.4518C5.00875 38.8459 5.54316 39.0671 6.09996 39.0671H20.6863L19.7142 42.2481L17.8892 42.2478C17.5027 42.2478 17.1892 42.5612 17.1892 42.9478C17.1892 43.3343 17.5027 43.6478 17.8892 43.6478H32.1108C32.4973 43.6478 32.8108 43.3343 32.8108 42.9478C32.8108 42.5612 32.4973 42.2478 32.1108 42.2478H30.2858L29.3137 39.0671H43.9C44.4569 39.0671 44.9913 38.8459 45.385 38.4518C45.7788 38.0581 46 37.524 46 36.9671V12.1C46 11.5431 45.7788 11.0087 45.385 10.615C44.9912 10.2213 44.4568 10 43.9 10L43.8999 10ZM6.09996 11.4H43.8999C44.0855 11.4 44.2636 11.4737 44.3949 11.605C44.5261 11.7362 44.5999 11.9144 44.5999 12.1V32.2336H5.39996V12.1C5.39996 11.7134 5.7134 11.4 6.09996 11.4ZM28.8215 42.2471H21.1778L22.1499 39.0662H27.8493L28.8215 42.2471ZM43.8999 37.6665H6.09996C5.7134 37.6665 5.39996 37.3531 5.39996 36.9665V33.6331H44.5999V36.9665C44.5999 37.1521 44.5261 37.3299 44.3949 37.4615C44.2636 37.5928 44.0855 37.6665 43.8999 37.6665Z" fill="#007399"/>
<path d="M25.4966 34.9502H24.5029C24.116 34.9502 23.8029 35.2636 23.8029 35.6502C23.8029 36.0368 24.116 36.3502 24.5029 36.3502H25.4969H25.4966C25.8835 36.3502 26.1966 36.0368 26.1966 35.6502C26.1966 35.2636 25.8835 34.9502 25.4966 34.9502H25.4966Z" fill="#007399"/>
<path d="M8.48393 29.565H18.3391C18.5247 29.565 18.7029 29.4912 18.8341 29.36C18.9654 29.2287 19.0391 29.0506 19.0391 28.865V14.7674C19.0391 14.5818 18.9654 14.4039 18.8341 14.2727C18.7029 14.1411 18.5247 14.0674 18.3391 14.0674H8.48393C8.09737 14.0674 7.78394 14.3808 7.78394 14.7674V28.865C7.78394 29.0506 7.85769 29.2287 7.98925 29.36C8.12049 29.4912 8.29831 29.565 8.48393 29.565ZM9.18393 15.4682L17.6391 15.4679V28.1654H9.18393V15.4682Z" fill="#007399"/>
<path d="M24.5486 21.0844H41.5158C41.7014 21.0844 41.8792 21.0106 42.0105 20.8794C42.142 20.7481 42.2158 20.57 42.2158 20.3844V14.7703C42.2158 14.5847 42.142 14.4066 42.0105 14.2753C41.8792 14.1441 41.7014 14.0703 41.5158 14.0703H24.5486C24.1621 14.0703 23.8486 14.3838 23.8486 14.7703V20.3844C23.8486 20.57 23.9224 20.7481 24.0539 20.8794C24.1852 21.0106 24.363 21.0844 24.5486 21.0844ZM25.2486 15.4703H40.8158V19.6844H25.2486V15.4703Z" fill="#007399"/>
<path d="M24.5486 29.566H35.9158C36.1014 29.566 36.2792 29.4922 36.4105 29.361C36.5421 29.2297 36.6158 29.0516 36.6158 28.866V23.2547C36.6158 23.0691 36.5421 22.8909 36.4105 22.7597C36.2792 22.6284 36.1014 22.5547 35.9158 22.5547H24.5486C24.1621 22.5547 23.8486 22.8681 23.8486 23.2547V28.8688C23.8502 29.2541 24.1633 29.5659 24.5486 29.5659V29.566ZM25.2486 23.9519H35.2158V28.166H25.2486V23.9519Z" fill="#007399"/>
</svg>
