<svg width="50" height="50" viewBox="0 0 50 50" fill="none" xmlns="http://www.w3.org/2000/svg">
<path d="M50 0H0V50H50V0Z" fill="white"/>
<path fill-rule="evenodd" clip-rule="evenodd" d="M19.9074 22.0992H19.915H21.0777V19.1205C21.0777 18.1369 21.5324 17.2448 22.2641 16.6006C22.986 15.9648 23.9799 15.57 25.0711 15.57C26.1623 15.57 27.1562 15.9648 27.8781 16.6006C28.6098 17.2448 29.0645 18.1369 29.0645 19.1205V22.0992H30.2347C30.3923 22.0992 30.5205 22.2267 30.5205 22.3852V30.5381C30.5205 30.6964 30.3923 30.8238 30.2347 30.8238H30.227H19.9074C19.7498 30.8238 19.6216 30.6964 19.6216 30.5381V22.3852C19.6216 22.2269 19.7498 22.0994 19.9074 22.0994L19.9074 22.0992ZM21.6493 22.0992H28.4926V19.1205C28.4926 18.3088 28.1122 17.5675 27.5006 17.0292C26.8789 16.4818 26.019 16.1416 25.0709 16.1416C24.1232 16.1416 23.2629 16.4818 22.6413 17.0292C22.0297 17.5675 21.6493 18.3088 21.6493 19.1205V22.0992ZM29.9486 22.6711H28.7859H28.7783H21.3707H21.3631H21.3555H20.1928V30.2596H29.9481L29.9486 22.6711ZM25.0635 26.1602H25.0711H25.0787C25.2495 26.1602 25.4027 26.0985 25.5114 26.0019C25.612 25.9135 25.6748 25.7922 25.6748 25.6623C25.6748 25.5328 25.612 25.4118 25.5114 25.3232L25.5118 25.3227C25.4014 25.2261 25.2455 25.1645 25.0713 25.1645C24.9032 25.1645 24.7517 25.22 24.6423 25.3125L24.6308 25.333C24.5303 25.4214 24.4675 25.5423 24.4675 25.6722C24.4675 25.8017 24.5303 25.923 24.6308 26.0118C24.7395 26.1084 24.8931 26.168 25.0635 26.17L25.0635 26.1602ZM25.3568 26.6998V28.0505C25.3568 28.2087 25.2286 28.3364 25.0709 28.3364C24.9133 28.3364 24.7851 28.209 24.7851 28.0505V26.6998C24.5819 26.6525 24.399 26.5579 24.2535 26.4309C24.0328 26.2356 23.8957 25.9641 23.8957 25.6627C23.8957 25.361 24.0328 25.0892 24.2535 24.8948L24.2703 24.8742C24.4799 24.6974 24.7624 24.5873 25.0709 24.5873C25.3871 24.5873 25.6764 24.7024 25.8873 24.888H25.8877C26.1084 25.0833 26.2455 25.3542 26.2455 25.656C26.2455 25.9573 26.1084 26.2297 25.8877 26.4241C25.7422 26.5516 25.5593 26.6463 25.3561 26.693L25.3568 26.6998ZM10.2648 23.8115C10.2648 27.8836 11.7954 31.6419 14.3777 34.6644C17.0143 37.7512 20.7488 40.0732 25.0709 41.1824C29.3931 40.0732 33.1276 37.7512 35.7642 34.6644C38.3465 31.6419 39.877 27.8836 39.877 23.8115V10.267C39.1301 10.4253 38.3694 10.5489 37.5985 10.6346C36.7169 10.7332 35.8212 10.7826 34.9164 10.7826C33.1735 10.7826 31.4468 10.5955 29.7721 10.2267C28.1487 9.86928 26.5705 9.33916 25.0709 8.64356C23.5714 9.33916 21.9932 9.86928 20.3698 10.2267C18.6951 10.5953 16.9684 10.7826 15.2255 10.7826C14.3207 10.7826 13.4249 10.7312 12.5434 10.6346C11.7725 10.5482 11.0118 10.4253 10.2648 10.267V23.8115ZM13.945 35.0348C11.2753 31.9102 9.69312 28.0235 9.69312 23.8115V9.91266C9.69312 9.8921 9.69312 9.87155 9.7001 9.85099C9.73437 9.69682 9.88708 9.60124 10.0403 9.63557C10.8726 9.82468 11.7295 9.97083 12.605 10.0683C13.4589 10.1628 14.3334 10.2122 15.2244 10.2122C16.9268 10.2122 18.612 10.0292 20.2458 9.66969C21.876 9.311 23.4552 8.77614 24.9483 8.07191C25.0226 8.03696 25.1117 8.03491 25.1914 8.07191C26.6845 8.77614 28.2637 9.311 29.8938 9.66969C31.5277 10.0292 33.2128 10.2122 34.9152 10.2122C35.8063 10.2122 36.6807 10.1628 37.5346 10.0683C38.4014 9.97165 39.2498 9.82838 40.0744 9.64132C40.1021 9.64132 40.1314 9.62077 40.1618 9.62077C40.3194 9.62077 40.4477 9.74821 40.4477 9.9067V23.8055C40.4477 28.0176 38.8655 31.9042 36.1957 35.0289C33.4694 38.2207 29.6066 40.6163 25.1391 41.7477V41.7475C25.095 41.768 25.0476 41.768 25.0006 41.7477C20.533 40.6163 16.6703 38.2207 13.9439 35.0289L13.945 35.0348Z" fill="#0F5EF7" stroke="#0F5EF7"/>
</svg>
