<svg width="50" height="50" viewBox="0 0 50 50" fill="none" xmlns="http://www.w3.org/2000/svg">
<path d="M50 0H0V50H50V0Z" fill="white"/>
<path d="M25.1082 30.0957L25.1595 30.1263L25.2108 30.0957L45.2891 18.101L45.4328 18.0152L45.2891 17.9293L25.2108 5.93466L25.1595 5.90402L25.1082 5.93466L5.03001 17.9301L4.88631 18.0159L5.03002 18.1018L25.1082 30.0957ZM25.1596 28.1469L8.19946 18.0159L25.1595 7.88341L42.1197 18.0152L25.1596 28.1469Z" fill="#0F5EF7" stroke="#0F5EF7" stroke-width="0.2"/>
<path d="M25.1083 37.5907L25.1596 37.6213L25.2109 37.5907L44.2122 26.24L44.298 26.1887L44.2467 26.1028L43.4777 24.8159L43.4264 24.7301L43.3406 24.7813L25.1596 35.6421L6.97874 24.7813L6.8929 24.7301L6.84162 24.8159L6.07261 26.1028L6.0213 26.1887L6.10716 26.24L25.1083 37.5907Z" fill="#0F5EF7" stroke="#0F5EF7" stroke-width="0.2"/>
<path d="M25.1083 45.0858L25.1596 45.1165L25.2109 45.0858L44.2122 33.7351L44.298 33.6838L44.2467 33.5979L43.4777 32.311L43.4264 32.2252L43.3406 32.2765L25.1596 43.1371L6.97874 32.2765L6.8929 32.2252L6.84162 32.311L6.07261 33.5979L6.0213 33.6838L6.10716 33.7351L25.1083 45.0858Z" fill="#0F5EF7" stroke="#0F5EF7" stroke-width="0.2"/>
</svg>
