<svg xmlns="http://www.w3.org/2000/svg" xmlns:xlink="http://www.w3.org/1999/xlink" width="600" zoomAndPan="magnify" viewBox="0 0 450 299.999988" height="400" preserveAspectRatio="xMidYMid meet" version="1.0"><defs><g/><clipPath id="id1"><path d="M 19 8.429688 L 393 8.429688 L 393 291.929688 L 19 291.929688 Z M 19 8.429688 " clip-rule="nonzero"/></clipPath><clipPath id="id2"><path d="M 142 45 L 393 45 L 393 291.929688 L 142 291.929688 Z M 142 45 " clip-rule="nonzero"/></clipPath></defs><rect x="-45" width="540" fill="#ffffff" y="-29.999999" height="359.999986" fill-opacity="1"/><rect x="-45" width="540" fill="#ffffff" y="-29.999999" height="359.999986" fill-opacity="1"/><rect x="-45" width="540" fill="#ffffff" y="-29.999999" height="359.999986" fill-opacity="1"/><g clip-path="url(#id1)"><path fill="#e2e9ef" d="M 19 8.429688 L 139.835938 8.429688 L 139.835938 42.671875 L 19 42.671875 Z M 142.835938 8.429688 L 219.378906 8.429688 L 219.378906 42.671875 L 142.835938 42.671875 Z M 222.378906 8.429688 L 310.335938 8.429688 L 310.335938 42.671875 L 222.378906 42.671875 Z M 313.335938 8.429688 L 392.566406 8.429688 L 392.566406 42.671875 L 313.335938 42.671875 Z M 19 45.671875 L 139.835938 45.671875 L 139.835938 73.753906 L 19 73.753906 Z M 19 76.753906 L 139.835938 76.753906 L 139.835938 104.835938 L 19 104.835938 Z M 19 107.835938 L 139.835938 107.835938 L 139.835938 135.917969 L 19 135.917969 Z M 19 138.917969 L 139.835938 138.917969 L 139.835938 167 L 19 167 Z M 19 170 L 139.835938 170 L 139.835938 198.085938 L 19 198.085938 Z M 19 201.085938 L 139.835938 201.085938 L 139.835938 229.167969 L 19 229.167969 Z M 19 232.167969 L 139.835938 232.167969 L 139.835938 260.25 L 19 260.25 Z M 19 263.25 L 139.835938 263.25 L 139.835938 291.332031 L 19 291.332031 Z M 19 263.25 " fill-opacity="1" fill-rule="nonzero"/></g><g clip-path="url(#id2)"><path fill="#eef0f8" d="M 142.835938 45.671875 L 219.378906 45.671875 L 219.378906 73.753906 L 142.835938 73.753906 Z M 222.378906 45.671875 L 310.335938 45.671875 L 310.335938 73.753906 L 222.378906 73.753906 Z M 313.335938 45.671875 L 392.566406 45.671875 L 392.566406 73.753906 L 313.335938 73.753906 Z M 142.835938 76.753906 L 219.378906 76.753906 L 219.378906 104.835938 L 142.835938 104.835938 Z M 222.378906 76.753906 L 310.335938 76.753906 L 310.335938 104.835938 L 222.378906 104.835938 Z M 313.335938 76.753906 L 392.566406 76.753906 L 392.566406 104.835938 L 313.335938 104.835938 Z M 142.835938 107.835938 L 219.378906 107.835938 L 219.378906 135.917969 L 142.835938 135.917969 Z M 222.378906 107.835938 L 310.335938 107.835938 L 310.335938 135.917969 L 222.378906 135.917969 Z M 313.335938 107.835938 L 392.566406 107.835938 L 392.566406 135.917969 L 313.335938 135.917969 Z M 142.835938 138.917969 L 219.378906 138.917969 L 219.378906 167 L 142.835938 167 Z M 222.378906 138.917969 L 310.335938 138.917969 L 310.335938 167 L 222.378906 167 Z M 313.335938 138.917969 L 392.566406 138.917969 L 392.566406 167 L 313.335938 167 Z M 142.835938 170 L 219.378906 170 L 219.378906 198.085938 L 142.835938 198.085938 Z M 222.378906 170 L 310.335938 170 L 310.335938 198.085938 L 222.378906 198.085938 Z M 313.335938 170 L 392.566406 170 L 392.566406 198.085938 L 313.335938 198.085938 Z M 142.835938 201.085938 L 219.378906 201.085938 L 219.378906 229.167969 L 142.835938 229.167969 Z M 222.378906 201.085938 L 310.335938 201.085938 L 310.335938 229.167969 L 222.378906 229.167969 Z M 313.335938 201.085938 L 392.566406 201.085938 L 392.566406 229.167969 L 313.335938 229.167969 Z M 142.835938 232.167969 L 219.378906 232.167969 L 219.378906 260.25 L 142.835938 260.25 Z M 222.378906 232.167969 L 310.335938 232.167969 L 310.335938 260.25 L 222.378906 260.25 Z M 313.335938 232.167969 L 392.566406 232.167969 L 392.566406 260.25 L 313.335938 260.25 Z M 142.835938 263.25 L 219.378906 263.25 L 219.378906 291.332031 L 142.835938 291.332031 Z M 222.378906 263.25 L 310.335938 263.25 L 310.335938 291.332031 L 222.378906 291.332031 Z M 313.335938 263.25 L 392.566406 263.25 L 392.566406 291.332031 L 313.335938 291.332031 Z M 313.335938 263.25 " fill-opacity="1" fill-rule="nonzero"/></g><g fill="#000000" fill-opacity="1"><g transform="translate(46.409051, 29.431362)"><g><path d="M 1.46875 0 L 1.46875 -10.5 L 2.78125 -10.5 L 2.78125 -1.265625 L 7.9375 -1.265625 L 7.9375 0 Z M 1.46875 0 "/></g></g></g><g fill="#000000" fill-opacity="1"><g transform="translate(54.794045, 29.431362)"><g><path d="M 5.640625 0 L 5.640625 -0.703125 C 5.003906 -0.109375 4.28125 0.1875 3.46875 0.1875 C 2.65625 0.1875 2.003906 -0.0351562 1.515625 -0.484375 C 1.035156 -0.929688 0.796875 -1.566406 0.796875 -2.390625 C 0.796875 -3.222656 1.066406 -3.851562 1.609375 -4.28125 C 2.160156 -4.71875 2.84375 -4.9375 3.65625 -4.9375 C 4.394531 -4.9375 5.054688 -4.769531 5.640625 -4.4375 L 5.640625 -4.984375 C 5.640625 -5.617188 5.492188 -6.0625 5.203125 -6.3125 C 4.921875 -6.570312 4.507812 -6.703125 3.96875 -6.703125 C 3.195312 -6.703125 2.453125 -6.445312 1.734375 -5.9375 L 1.359375 -7.03125 C 2.179688 -7.570312 3.109375 -7.84375 4.140625 -7.84375 C 5.960938 -7.84375 6.875 -6.921875 6.875 -5.078125 L 6.875 0 Z M 3.65625 -0.96875 C 4.40625 -0.96875 5.066406 -1.304688 5.640625 -1.984375 L 5.640625 -3.296875 C 5.085938 -3.640625 4.488281 -3.8125 3.84375 -3.8125 C 3.3125 -3.8125 2.875 -3.691406 2.53125 -3.453125 C 2.195312 -3.210938 2.03125 -2.863281 2.03125 -2.40625 C 2.03125 -1.96875 2.171875 -1.617188 2.453125 -1.359375 C 2.734375 -1.097656 3.132812 -0.96875 3.65625 -0.96875 Z M 3.65625 -0.96875 "/></g></g></g><g fill="#000000" fill-opacity="1"><g transform="translate(62.684036, 29.431362)"><g><path d="M 5.96875 0 L 5.96875 -4.640625 C 5.96875 -5.328125 5.816406 -5.832031 5.515625 -6.15625 C 5.222656 -6.476562 4.820312 -6.640625 4.3125 -6.640625 C 3.132812 -6.640625 2.546875 -5.984375 2.546875 -4.671875 L 2.546875 0 L 1.25 0 L 1.25 -7.671875 L 2.546875 -7.671875 L 2.546875 -6.890625 C 3.015625 -7.523438 3.675781 -7.84375 4.53125 -7.84375 C 5.425781 -7.84375 6.109375 -7.566406 6.578125 -7.015625 C 7.046875 -6.472656 7.28125 -5.601562 7.28125 -4.40625 L 7.28125 0 Z M 5.96875 0 "/></g></g></g><g fill="#000000" fill-opacity="1"><g transform="translate(71.129031, 29.431362)"><g><path d="M 3.59375 3.109375 L 2.96875 2.078125 C 4.082031 2.023438 4.847656 1.832031 5.265625 1.5 C 5.691406 1.175781 5.90625 0.738281 5.90625 0.1875 L 5.90625 -0.75 C 5.457031 -0.125 4.800781 0.1875 3.9375 0.1875 C 3.03125 0.1875 2.28125 -0.160156 1.6875 -0.859375 C 1.09375 -1.566406 0.796875 -2.5625 0.796875 -3.84375 C 0.796875 -5.082031 1.085938 -6.054688 1.671875 -6.765625 C 2.253906 -7.484375 3.019531 -7.84375 3.96875 -7.84375 C 4.769531 -7.84375 5.414062 -7.570312 5.90625 -7.03125 L 5.90625 -7.671875 L 7.21875 -7.671875 L 7.21875 -0.3125 C 7.21875 0.851562 6.90625 1.695312 6.28125 2.21875 C 5.65625 2.738281 4.757812 3.035156 3.59375 3.109375 Z M 4.203125 -1.03125 C 4.523438 -1.03125 4.84375 -1.128906 5.15625 -1.328125 C 5.46875 -1.523438 5.71875 -1.785156 5.90625 -2.109375 L 5.90625 -5.625 C 5.726562 -5.925781 5.472656 -6.171875 5.140625 -6.359375 C 4.816406 -6.546875 4.503906 -6.640625 4.203125 -6.640625 C 3.523438 -6.640625 3.003906 -6.394531 2.640625 -5.90625 C 2.285156 -5.425781 2.109375 -4.738281 2.109375 -3.84375 C 2.109375 -2.96875 2.300781 -2.28125 2.6875 -1.78125 C 3.070312 -1.28125 3.578125 -1.03125 4.203125 -1.03125 Z M 4.203125 -1.03125 "/></g></g></g><g fill="#000000" fill-opacity="1"><g transform="translate(79.574027, 29.431362)"><g><path d="M 5.890625 0 L 5.890625 -0.734375 C 5.421875 -0.117188 4.773438 0.1875 3.953125 0.1875 C 3.023438 0.1875 2.328125 -0.0820312 1.859375 -0.625 C 1.398438 -1.164062 1.171875 -2.035156 1.171875 -3.234375 L 1.171875 -7.671875 L 2.46875 -7.671875 L 2.46875 -3.046875 C 2.46875 -2.359375 2.613281 -1.847656 2.90625 -1.515625 C 3.207031 -1.191406 3.613281 -1.03125 4.125 -1.03125 C 5.300781 -1.03125 5.890625 -1.691406 5.890625 -3.015625 L 5.890625 -7.671875 L 7.203125 -7.671875 L 7.203125 0 Z M 5.890625 0 "/></g></g></g><g fill="#000000" fill-opacity="1"><g transform="translate(88.019022, 29.431362)"><g><path d="M 5.640625 0 L 5.640625 -0.703125 C 5.003906 -0.109375 4.28125 0.1875 3.46875 0.1875 C 2.65625 0.1875 2.003906 -0.0351562 1.515625 -0.484375 C 1.035156 -0.929688 0.796875 -1.566406 0.796875 -2.390625 C 0.796875 -3.222656 1.066406 -3.851562 1.609375 -4.28125 C 2.160156 -4.71875 2.84375 -4.9375 3.65625 -4.9375 C 4.394531 -4.9375 5.054688 -4.769531 5.640625 -4.4375 L 5.640625 -4.984375 C 5.640625 -5.617188 5.492188 -6.0625 5.203125 -6.3125 C 4.921875 -6.570312 4.507812 -6.703125 3.96875 -6.703125 C 3.195312 -6.703125 2.453125 -6.445312 1.734375 -5.9375 L 1.359375 -7.03125 C 2.179688 -7.570312 3.109375 -7.84375 4.140625 -7.84375 C 5.960938 -7.84375 6.875 -6.921875 6.875 -5.078125 L 6.875 0 Z M 3.65625 -0.96875 C 4.40625 -0.96875 5.066406 -1.304688 5.640625 -1.984375 L 5.640625 -3.296875 C 5.085938 -3.640625 4.488281 -3.8125 3.84375 -3.8125 C 3.3125 -3.8125 2.875 -3.691406 2.53125 -3.453125 C 2.195312 -3.210938 2.03125 -2.863281 2.03125 -2.40625 C 2.03125 -1.96875 2.171875 -1.617188 2.453125 -1.359375 C 2.734375 -1.097656 3.132812 -0.96875 3.65625 -0.96875 Z M 3.65625 -0.96875 "/></g></g></g><g fill="#000000" fill-opacity="1"><g transform="translate(95.909013, 29.431362)"><g><path d="M 3.59375 3.109375 L 2.96875 2.078125 C 4.082031 2.023438 4.847656 1.832031 5.265625 1.5 C 5.691406 1.175781 5.90625 0.738281 5.90625 0.1875 L 5.90625 -0.75 C 5.457031 -0.125 4.800781 0.1875 3.9375 0.1875 C 3.03125 0.1875 2.28125 -0.160156 1.6875 -0.859375 C 1.09375 -1.566406 0.796875 -2.5625 0.796875 -3.84375 C 0.796875 -5.082031 1.085938 -6.054688 1.671875 -6.765625 C 2.253906 -7.484375 3.019531 -7.84375 3.96875 -7.84375 C 4.769531 -7.84375 5.414062 -7.570312 5.90625 -7.03125 L 5.90625 -7.671875 L 7.21875 -7.671875 L 7.21875 -0.3125 C 7.21875 0.851562 6.90625 1.695312 6.28125 2.21875 C 5.65625 2.738281 4.757812 3.035156 3.59375 3.109375 Z M 4.203125 -1.03125 C 4.523438 -1.03125 4.84375 -1.128906 5.15625 -1.328125 C 5.46875 -1.523438 5.71875 -1.785156 5.90625 -2.109375 L 5.90625 -5.625 C 5.726562 -5.925781 5.472656 -6.171875 5.140625 -6.359375 C 4.816406 -6.546875 4.503906 -6.640625 4.203125 -6.640625 C 3.523438 -6.640625 3.003906 -6.394531 2.640625 -5.90625 C 2.285156 -5.425781 2.109375 -4.738281 2.109375 -3.84375 C 2.109375 -2.96875 2.300781 -2.28125 2.6875 -1.78125 C 3.070312 -1.28125 3.578125 -1.03125 4.203125 -1.03125 Z M 4.203125 -1.03125 "/></g></g></g><g fill="#000000" fill-opacity="1"><g transform="translate(104.354008, 29.431362)"><g><path d="M 4.203125 0.1875 C 3.160156 0.1875 2.332031 -0.1875 1.71875 -0.9375 C 1.101562 -1.6875 0.796875 -2.65625 0.796875 -3.84375 C 0.796875 -5.09375 1.101562 -6.070312 1.71875 -6.78125 C 2.34375 -7.488281 3.171875 -7.84375 4.203125 -7.84375 C 5.117188 -7.84375 5.875 -7.535156 6.46875 -6.921875 C 7.0625 -6.304688 7.359375 -5.398438 7.359375 -4.203125 C 7.359375 -3.921875 7.34375 -3.628906 7.3125 -3.328125 L 2.125 -3.328125 C 2.175781 -2.628906 2.394531 -2.066406 2.78125 -1.640625 C 3.164062 -1.210938 3.648438 -1 4.234375 -1 C 4.867188 -1 5.414062 -1.226562 5.875 -1.6875 L 6.671875 -0.8125 C 6.015625 -0.144531 5.191406 0.1875 4.203125 0.1875 Z M 2.109375 -4.4375 L 6.046875 -4.4375 C 6.035156 -5.226562 5.847656 -5.800781 5.484375 -6.15625 C 5.117188 -6.507812 4.691406 -6.6875 4.203125 -6.6875 C 3.609375 -6.6875 3.117188 -6.5 2.734375 -6.125 C 2.359375 -5.75 2.148438 -5.1875 2.109375 -4.4375 Z M 2.109375 -4.4375 "/></g></g></g><g fill="#000000" fill-opacity="1"><g transform="translate(171.088706, 29.431362)"><g><path d="M 3.515625 0.1875 C 2.960938 0.1875 2.4375 0.0664062 1.9375 -0.171875 C 1.445312 -0.410156 1.046875 -0.722656 0.734375 -1.109375 L 1.671875 -1.90625 C 2.234375 -1.289062 2.859375 -0.984375 3.546875 -0.984375 C 3.972656 -0.984375 4.316406 -1.066406 4.578125 -1.234375 C 4.835938 -1.398438 4.96875 -1.644531 4.96875 -1.96875 C 4.96875 -2.207031 4.867188 -2.421875 4.671875 -2.609375 C 4.484375 -2.804688 4.289062 -2.953125 4.09375 -3.046875 C 3.894531 -3.140625 3.597656 -3.265625 3.203125 -3.421875 C 2.429688 -3.710938 1.84375 -4.035156 1.4375 -4.390625 C 1.039062 -4.753906 0.84375 -5.226562 0.84375 -5.8125 C 0.84375 -6.4375 1.082031 -6.929688 1.5625 -7.296875 C 2.050781 -7.660156 2.671875 -7.84375 3.421875 -7.84375 C 4.492188 -7.84375 5.351562 -7.457031 6 -6.6875 L 5.09375 -5.9375 C 4.625 -6.425781 4.0625 -6.671875 3.40625 -6.671875 C 3.007812 -6.671875 2.695312 -6.59375 2.46875 -6.4375 C 2.238281 -6.289062 2.125 -6.082031 2.125 -5.8125 C 2.125 -5.664062 2.160156 -5.53125 2.234375 -5.40625 C 2.316406 -5.28125 2.453125 -5.160156 2.640625 -5.046875 C 2.835938 -4.941406 2.992188 -4.859375 3.109375 -4.796875 C 3.222656 -4.742188 3.4375 -4.660156 3.75 -4.546875 C 4.5625 -4.253906 5.175781 -3.921875 5.59375 -3.546875 C 6.019531 -3.179688 6.234375 -2.664062 6.234375 -2 C 6.234375 -1.3125 5.988281 -0.773438 5.5 -0.390625 C 5.007812 -0.00390625 4.347656 0.1875 3.515625 0.1875 Z M 3.515625 0.1875 "/></g></g></g><g fill="#000000" fill-opacity="1"><g transform="translate(178.123698, 29.431362)"><g><path d="M 1.046875 0 C 1.046875 -0.65625 1.140625 -1.253906 1.328125 -1.796875 C 1.523438 -2.347656 1.800781 -2.828125 2.15625 -3.234375 C 2.519531 -3.648438 2.878906 -3.992188 3.234375 -4.265625 C 3.597656 -4.546875 4.03125 -4.832031 4.53125 -5.125 C 4.988281 -5.40625 5.347656 -5.644531 5.609375 -5.84375 C 5.867188 -6.039062 6.109375 -6.300781 6.328125 -6.625 C 6.554688 -6.957031 6.671875 -7.3125 6.671875 -7.6875 C 6.671875 -8.1875 6.484375 -8.609375 6.109375 -8.953125 C 5.734375 -9.296875 5.238281 -9.46875 4.625 -9.46875 C 3.457031 -9.46875 2.710938 -8.953125 2.390625 -7.921875 L 1.21875 -8.4375 C 1.425781 -9.101562 1.835938 -9.644531 2.453125 -10.0625 C 3.078125 -10.476562 3.816406 -10.6875 4.671875 -10.6875 C 5.703125 -10.6875 6.519531 -10.40625 7.125 -9.84375 C 7.726562 -9.289062 8.03125 -8.5625 8.03125 -7.65625 C 8.03125 -7.289062 7.972656 -6.953125 7.859375 -6.640625 C 7.742188 -6.335938 7.609375 -6.070312 7.453125 -5.84375 C 7.304688 -5.625 7.085938 -5.394531 6.796875 -5.15625 C 6.503906 -4.914062 6.242188 -4.722656 6.015625 -4.578125 C 5.796875 -4.429688 5.492188 -4.242188 5.109375 -4.015625 C 4.367188 -3.585938 3.785156 -3.160156 3.359375 -2.734375 C 2.941406 -2.316406 2.675781 -1.832031 2.5625 -1.28125 L 8.109375 -1.28125 L 8.109375 0 Z M 1.046875 0 "/></g></g></g><g fill="#000000" fill-opacity="1"><g transform="translate(187.30369, 29.431362)"><g><path d="M 2.484375 -9.296875 C 2.328125 -9.140625 2.132812 -9.0625 1.90625 -9.0625 C 1.675781 -9.0625 1.484375 -9.140625 1.328125 -9.296875 C 1.171875 -9.460938 1.09375 -9.65625 1.09375 -9.875 C 1.09375 -10.101562 1.171875 -10.296875 1.328125 -10.453125 C 1.492188 -10.617188 1.6875 -10.703125 1.90625 -10.703125 C 2.132812 -10.703125 2.328125 -10.617188 2.484375 -10.453125 C 2.648438 -10.296875 2.734375 -10.101562 2.734375 -9.875 C 2.734375 -9.644531 2.648438 -9.453125 2.484375 -9.296875 Z M 1.265625 0 L 1.265625 -7.671875 L 2.5625 -7.671875 L 2.5625 0 Z M 1.265625 0 "/></g></g></g><g fill="#000000" fill-opacity="1"><g transform="translate(242.677723, 29.431362)"><g><path d="M 1.46875 0 L 1.46875 -10.5 L 5.484375 -10.5 C 6.097656 -10.5 6.628906 -10.40625 7.078125 -10.21875 C 7.535156 -10.039062 7.890625 -9.800781 8.140625 -9.5 C 8.390625 -9.195312 8.570312 -8.863281 8.6875 -8.5 C 8.8125 -8.144531 8.875 -7.757812 8.875 -7.34375 C 8.875 -6.519531 8.59375 -5.789062 8.03125 -5.15625 C 7.46875 -4.53125 6.617188 -4.21875 5.484375 -4.21875 L 2.78125 -4.21875 L 2.78125 0 Z M 5.578125 -5.4375 C 6.253906 -5.4375 6.753906 -5.625 7.078125 -6 C 7.410156 -6.375 7.578125 -6.820312 7.578125 -7.34375 C 7.578125 -7.851562 7.421875 -8.300781 7.109375 -8.6875 C 6.796875 -9.082031 6.285156 -9.28125 5.578125 -9.28125 L 2.78125 -9.28125 L 2.78125 -5.4375 Z M 5.578125 -5.4375 "/></g></g></g><g fill="#000000" fill-opacity="1"><g transform="translate(252.127715, 29.431362)"><g><path d="M 5.640625 0 L 5.640625 -0.703125 C 5.003906 -0.109375 4.28125 0.1875 3.46875 0.1875 C 2.65625 0.1875 2.003906 -0.0351562 1.515625 -0.484375 C 1.035156 -0.929688 0.796875 -1.566406 0.796875 -2.390625 C 0.796875 -3.222656 1.066406 -3.851562 1.609375 -4.28125 C 2.160156 -4.71875 2.84375 -4.9375 3.65625 -4.9375 C 4.394531 -4.9375 5.054688 -4.769531 5.640625 -4.4375 L 5.640625 -4.984375 C 5.640625 -5.617188 5.492188 -6.0625 5.203125 -6.3125 C 4.921875 -6.570312 4.507812 -6.703125 3.96875 -6.703125 C 3.195312 -6.703125 2.453125 -6.445312 1.734375 -5.9375 L 1.359375 -7.03125 C 2.179688 -7.570312 3.109375 -7.84375 4.140625 -7.84375 C 5.960938 -7.84375 6.875 -6.921875 6.875 -5.078125 L 6.875 0 Z M 3.65625 -0.96875 C 4.40625 -0.96875 5.066406 -1.304688 5.640625 -1.984375 L 5.640625 -3.296875 C 5.085938 -3.640625 4.488281 -3.8125 3.84375 -3.8125 C 3.3125 -3.8125 2.875 -3.691406 2.53125 -3.453125 C 2.195312 -3.210938 2.03125 -2.863281 2.03125 -2.40625 C 2.03125 -1.96875 2.171875 -1.617188 2.453125 -1.359375 C 2.734375 -1.097656 3.132812 -0.96875 3.65625 -0.96875 Z M 3.65625 -0.96875 "/></g></g></g><g fill="#000000" fill-opacity="1"><g transform="translate(260.017706, 29.431362)"><g><path d="M 7.46875 0 L 6.046875 0 L 3.671875 -4.640625 L 2.546875 -3.46875 L 2.546875 0 L 1.25 0 L 1.25 -10.21875 L 2.546875 -10.828125 L 2.546875 -5.03125 L 5.046875 -7.671875 L 6.59375 -7.671875 L 4.59375 -5.578125 Z M 7.46875 0 "/></g></g></g><g fill="#000000" fill-opacity="1"><g transform="translate(267.982702, 29.431362)"><g><path d="M 4.203125 0.1875 C 3.160156 0.1875 2.332031 -0.1875 1.71875 -0.9375 C 1.101562 -1.6875 0.796875 -2.65625 0.796875 -3.84375 C 0.796875 -5.09375 1.101562 -6.070312 1.71875 -6.78125 C 2.34375 -7.488281 3.171875 -7.84375 4.203125 -7.84375 C 5.117188 -7.84375 5.875 -7.535156 6.46875 -6.921875 C 7.0625 -6.304688 7.359375 -5.398438 7.359375 -4.203125 C 7.359375 -3.921875 7.34375 -3.628906 7.3125 -3.328125 L 2.125 -3.328125 C 2.175781 -2.628906 2.394531 -2.066406 2.78125 -1.640625 C 3.164062 -1.210938 3.648438 -1 4.234375 -1 C 4.867188 -1 5.414062 -1.226562 5.875 -1.6875 L 6.671875 -0.8125 C 6.015625 -0.144531 5.191406 0.1875 4.203125 0.1875 Z M 2.109375 -4.4375 L 6.046875 -4.4375 C 6.035156 -5.226562 5.847656 -5.800781 5.484375 -6.15625 C 5.117188 -6.507812 4.691406 -6.6875 4.203125 -6.6875 C 3.609375 -6.6875 3.117188 -6.5 2.734375 -6.125 C 2.359375 -5.75 2.148438 -5.1875 2.109375 -4.4375 Z M 2.109375 -4.4375 "/></g></g></g><g fill="#000000" fill-opacity="1"><g transform="translate(276.052697, 29.431362)"><g><path d="M 3.3125 0.1875 C 2.226562 0.1875 1.6875 -0.425781 1.6875 -1.65625 L 1.6875 -6.53125 L 0.453125 -6.53125 L 0.453125 -7.671875 L 1.6875 -7.671875 L 1.6875 -10.203125 L 3 -10.828125 L 3 -7.671875 L 4.890625 -7.671875 L 4.890625 -6.53125 L 3 -6.53125 L 3 -2.078125 C 3 -1.742188 3.050781 -1.484375 3.15625 -1.296875 C 3.269531 -1.117188 3.484375 -1.03125 3.796875 -1.03125 C 4.140625 -1.03125 4.519531 -1.164062 4.9375 -1.4375 L 4.78125 -0.171875 C 4.34375 0.0664062 3.851562 0.1875 3.3125 0.1875 Z M 3.3125 0.1875 "/></g></g></g><g fill="#000000" fill-opacity="1"><g transform="translate(281.662693, 29.431362)"><g><path d="M 6.65625 -0.890625 C 6.050781 -0.171875 5.226562 0.1875 4.1875 0.1875 C 3.144531 0.1875 2.316406 -0.164062 1.703125 -0.875 C 1.097656 -1.59375 0.796875 -2.578125 0.796875 -3.828125 C 0.796875 -5.078125 1.097656 -6.054688 1.703125 -6.765625 C 2.316406 -7.484375 3.144531 -7.84375 4.1875 -7.84375 C 5.226562 -7.84375 6.050781 -7.488281 6.65625 -6.78125 C 7.269531 -6.070312 7.578125 -5.09375 7.578125 -3.84375 C 7.578125 -2.59375 7.269531 -1.609375 6.65625 -0.890625 Z M 2.65625 -1.765625 C 3.019531 -1.273438 3.523438 -1.03125 4.171875 -1.03125 C 4.828125 -1.03125 5.335938 -1.273438 5.703125 -1.765625 C 6.066406 -2.265625 6.25 -2.957031 6.25 -3.84375 C 6.25 -4.707031 6.066406 -5.390625 5.703125 -5.890625 C 5.335938 -6.390625 4.828125 -6.640625 4.171875 -6.640625 C 3.523438 -6.640625 3.019531 -6.390625 2.65625 -5.890625 C 2.289062 -5.398438 2.109375 -4.710938 2.109375 -3.828125 C 2.109375 -2.953125 2.289062 -2.265625 2.65625 -1.765625 Z M 2.65625 -1.765625 "/></g></g></g><g fill="#000000" fill-opacity="1"><g transform="translate(328.346583, 29.431362)"><g><path d="M 7.71875 0 L 7.71875 -4.828125 L 2.78125 -4.828125 L 2.78125 0 L 1.46875 0 L 1.46875 -10.5 L 2.78125 -10.5 L 2.78125 -6.0625 L 7.71875 -6.0625 L 7.71875 -10.5 L 9.03125 -10.5 L 9.03125 0 Z M 7.71875 0 "/></g></g></g><g fill="#000000" fill-opacity="1"><g transform="translate(338.846571, 29.431362)"><g><path d="M 4.203125 0.1875 C 3.160156 0.1875 2.332031 -0.1875 1.71875 -0.9375 C 1.101562 -1.6875 0.796875 -2.65625 0.796875 -3.84375 C 0.796875 -5.09375 1.101562 -6.070312 1.71875 -6.78125 C 2.34375 -7.488281 3.171875 -7.84375 4.203125 -7.84375 C 5.117188 -7.84375 5.875 -7.535156 6.46875 -6.921875 C 7.0625 -6.304688 7.359375 -5.398438 7.359375 -4.203125 C 7.359375 -3.921875 7.34375 -3.628906 7.3125 -3.328125 L 2.125 -3.328125 C 2.175781 -2.628906 2.394531 -2.066406 2.78125 -1.640625 C 3.164062 -1.210938 3.648438 -1 4.234375 -1 C 4.867188 -1 5.414062 -1.226562 5.875 -1.6875 L 6.671875 -0.8125 C 6.015625 -0.144531 5.191406 0.1875 4.203125 0.1875 Z M 2.109375 -4.4375 L 6.046875 -4.4375 C 6.035156 -5.226562 5.847656 -5.800781 5.484375 -6.15625 C 5.117188 -6.507812 4.691406 -6.6875 4.203125 -6.6875 C 3.609375 -6.6875 3.117188 -6.5 2.734375 -6.125 C 2.359375 -5.75 2.148438 -5.1875 2.109375 -4.4375 Z M 2.109375 -4.4375 "/></g></g></g><g fill="#000000" fill-opacity="1"><g transform="translate(346.916566, 29.431362)"><g><path d="M 1.25 0 L 1.25 -7.671875 L 2.546875 -7.671875 L 2.546875 -6.65625 C 2.910156 -7.445312 3.515625 -7.84375 4.359375 -7.84375 C 4.835938 -7.84375 5.234375 -7.710938 5.546875 -7.453125 L 5.359375 -6.21875 C 5.035156 -6.445312 4.671875 -6.5625 4.265625 -6.5625 C 3.804688 -6.5625 3.40625 -6.382812 3.0625 -6.03125 C 2.71875 -5.675781 2.546875 -5.101562 2.546875 -4.3125 L 2.546875 0 Z M 1.25 0 "/></g></g></g><g fill="#000000" fill-opacity="1"><g transform="translate(352.751565, 29.431362)"><g><path d="M 6.65625 -0.890625 C 6.050781 -0.171875 5.226562 0.1875 4.1875 0.1875 C 3.144531 0.1875 2.316406 -0.164062 1.703125 -0.875 C 1.097656 -1.59375 0.796875 -2.578125 0.796875 -3.828125 C 0.796875 -5.078125 1.097656 -6.054688 1.703125 -6.765625 C 2.316406 -7.484375 3.144531 -7.84375 4.1875 -7.84375 C 5.226562 -7.84375 6.050781 -7.488281 6.65625 -6.78125 C 7.269531 -6.070312 7.578125 -5.09375 7.578125 -3.84375 C 7.578125 -2.59375 7.269531 -1.609375 6.65625 -0.890625 Z M 2.65625 -1.765625 C 3.019531 -1.273438 3.523438 -1.03125 4.171875 -1.03125 C 4.828125 -1.03125 5.335938 -1.273438 5.703125 -1.765625 C 6.066406 -2.265625 6.25 -2.957031 6.25 -3.84375 C 6.25 -4.707031 6.066406 -5.390625 5.703125 -5.890625 C 5.335938 -6.390625 4.828125 -6.640625 4.171875 -6.640625 C 3.523438 -6.640625 3.019531 -6.390625 2.65625 -5.890625 C 2.289062 -5.398438 2.109375 -4.710938 2.109375 -3.828125 C 2.109375 -2.953125 2.289062 -2.265625 2.65625 -1.765625 Z M 2.65625 -1.765625 "/></g></g></g><g fill="#000000" fill-opacity="1"><g transform="translate(361.121555, 29.431362)"><g><path d="M 7.46875 0 L 6.046875 0 L 3.671875 -4.640625 L 2.546875 -3.46875 L 2.546875 0 L 1.25 0 L 1.25 -10.21875 L 2.546875 -10.828125 L 2.546875 -5.03125 L 5.046875 -7.671875 L 6.59375 -7.671875 L 4.59375 -5.578125 Z M 7.46875 0 "/></g></g></g><g fill="#000000" fill-opacity="1"><g transform="translate(369.086551, 29.431362)"><g><path d="M 5.890625 0 L 5.890625 -0.734375 C 5.421875 -0.117188 4.773438 0.1875 3.953125 0.1875 C 3.023438 0.1875 2.328125 -0.0820312 1.859375 -0.625 C 1.398438 -1.164062 1.171875 -2.035156 1.171875 -3.234375 L 1.171875 -7.671875 L 2.46875 -7.671875 L 2.46875 -3.046875 C 2.46875 -2.359375 2.613281 -1.847656 2.90625 -1.515625 C 3.207031 -1.191406 3.613281 -1.03125 4.125 -1.03125 C 5.300781 -1.03125 5.890625 -1.691406 5.890625 -3.015625 L 5.890625 -7.671875 L 7.203125 -7.671875 L 7.203125 0 Z M 5.890625 0 "/></g></g></g><g fill="#000000" fill-opacity="1"><g transform="translate(66.530143, 62.170545)"><g/></g></g><g fill="#000000" fill-opacity="1"><g transform="translate(68.879215, 62.170545)"><g/></g></g><g fill="#000000" fill-opacity="1"><g transform="translate(71.217643, 62.170545)"><g><path d="M 2.296875 0.125 C 1.304688 0.125 0.632812 -0.296875 0.28125 -1.140625 L 1 -1.515625 C 1.132812 -1.222656 1.300781 -1.015625 1.5 -0.890625 C 1.695312 -0.765625 1.96875 -0.703125 2.3125 -0.703125 C 3.195312 -0.703125 3.640625 -1.222656 3.640625 -2.265625 L 3.640625 -7 L 4.515625 -7 L 4.515625 -2.296875 C 4.515625 -1.835938 4.445312 -1.441406 4.3125 -1.109375 C 4.175781 -0.785156 3.992188 -0.535156 3.765625 -0.359375 C 3.546875 -0.191406 3.3125 -0.0703125 3.0625 0 C 2.820312 0.0820312 2.566406 0.125 2.296875 0.125 Z M 2.296875 0.125 "/></g></g></g><g fill="#000000" fill-opacity="1"><g transform="translate(76.67549, 62.170545)"><g><path d="M 3.765625 0 L 3.765625 -0.46875 C 3.335938 -0.0703125 2.851562 0.125 2.3125 0.125 C 1.769531 0.125 1.335938 -0.0195312 1.015625 -0.3125 C 0.691406 -0.613281 0.53125 -1.039062 0.53125 -1.59375 C 0.53125 -2.15625 0.710938 -2.578125 1.078125 -2.859375 C 1.441406 -3.148438 1.894531 -3.296875 2.4375 -3.296875 C 2.9375 -3.296875 3.378906 -3.179688 3.765625 -2.953125 L 3.765625 -3.3125 C 3.765625 -3.738281 3.664062 -4.035156 3.46875 -4.203125 C 3.28125 -4.378906 3.007812 -4.46875 2.65625 -4.46875 C 2.132812 -4.46875 1.632812 -4.296875 1.15625 -3.953125 L 0.90625 -4.6875 C 1.457031 -5.050781 2.078125 -5.234375 2.765625 -5.234375 C 3.972656 -5.234375 4.578125 -4.617188 4.578125 -3.390625 L 4.578125 0 Z M 2.4375 -0.65625 C 2.9375 -0.65625 3.378906 -0.875 3.765625 -1.3125 L 3.765625 -2.203125 C 3.390625 -2.429688 2.988281 -2.546875 2.5625 -2.546875 C 2.207031 -2.546875 1.914062 -2.460938 1.6875 -2.296875 C 1.457031 -2.140625 1.34375 -1.90625 1.34375 -1.59375 C 1.34375 -1.3125 1.4375 -1.082031 1.625 -0.90625 C 1.820312 -0.738281 2.09375 -0.65625 2.4375 -0.65625 Z M 2.4375 -0.65625 "/></g></g></g><g fill="#000000" fill-opacity="1"><g transform="translate(81.93342, 62.170545)"><g><path d="M 2.203125 0 L 0.328125 -5.109375 L 1.203125 -5.109375 L 2.421875 -1.703125 C 2.503906 -1.441406 2.554688 -1.273438 2.578125 -1.203125 C 2.597656 -1.273438 2.648438 -1.441406 2.734375 -1.703125 L 3.9375 -5.109375 L 4.796875 -5.109375 L 2.9375 0 Z M 2.203125 0 "/></g></g></g><g fill="#000000" fill-opacity="1"><g transform="translate(87.051401, 62.170545)"><g><path d="M 3.765625 0 L 3.765625 -0.46875 C 3.335938 -0.0703125 2.851562 0.125 2.3125 0.125 C 1.769531 0.125 1.335938 -0.0195312 1.015625 -0.3125 C 0.691406 -0.613281 0.53125 -1.039062 0.53125 -1.59375 C 0.53125 -2.15625 0.710938 -2.578125 1.078125 -2.859375 C 1.441406 -3.148438 1.894531 -3.296875 2.4375 -3.296875 C 2.9375 -3.296875 3.378906 -3.179688 3.765625 -2.953125 L 3.765625 -3.3125 C 3.765625 -3.738281 3.664062 -4.035156 3.46875 -4.203125 C 3.28125 -4.378906 3.007812 -4.46875 2.65625 -4.46875 C 2.132812 -4.46875 1.632812 -4.296875 1.15625 -3.953125 L 0.90625 -4.6875 C 1.457031 -5.050781 2.078125 -5.234375 2.765625 -5.234375 C 3.972656 -5.234375 4.578125 -4.617188 4.578125 -3.390625 L 4.578125 0 Z M 2.4375 -0.65625 C 2.9375 -0.65625 3.378906 -0.875 3.765625 -1.3125 L 3.765625 -2.203125 C 3.390625 -2.429688 2.988281 -2.546875 2.5625 -2.546875 C 2.207031 -2.546875 1.914062 -2.460938 1.6875 -2.296875 C 1.457031 -2.140625 1.34375 -1.90625 1.34375 -1.59375 C 1.34375 -1.3125 1.4375 -1.082031 1.625 -0.90625 C 1.820312 -0.738281 2.09375 -0.65625 2.4375 -0.65625 Z M 2.4375 -0.65625 "/></g></g></g><g fill="#000000" fill-opacity="1"><g transform="translate(177.686362, 62.170545)"><g><path d="M 1.679688 0.21875 L 2.640625 0.101562 C 3.488281 -2.898438 5.109375 -5.4375 6.878906 -7.089844 L 6.289062 -7.636719 C 4.519531 -5.917969 2.929688 -3.179688 2.140625 -0.53125 L 2.097656 -0.53125 C 1.75 -1.53125 1.230469 -2.570312 0.621094 -3.488281 L -0.0117188 -3.070312 C 0.699219 -2.058594 1.238281 -1 1.679688 0.21875 Z M 1.679688 0.21875 "/></g></g></g><g fill="#000000" fill-opacity="1"><g transform="translate(262.93944, 62.170545)"><g><path d="M 1.679688 0.21875 L 2.640625 0.101562 C 3.488281 -2.898438 5.109375 -5.4375 6.878906 -7.089844 L 6.289062 -7.636719 C 4.519531 -5.917969 2.929688 -3.179688 2.140625 -0.53125 L 2.097656 -0.53125 C 1.75 -1.53125 1.230469 -2.570312 0.621094 -3.488281 L -0.0117188 -3.070312 C 0.699219 -2.058594 1.238281 -1 1.679688 0.21875 Z M 1.679688 0.21875 "/></g></g></g><g fill="#000000" fill-opacity="1"><g transform="translate(349.534082, 62.170545)"><g><path d="M 1.679688 0.21875 L 2.640625 0.101562 C 3.488281 -2.898438 5.109375 -5.4375 6.878906 -7.089844 L 6.289062 -7.636719 C 4.519531 -5.917969 2.929688 -3.179688 2.140625 -0.53125 L 2.097656 -0.53125 C 1.75 -1.53125 1.230469 -2.570312 0.621094 -3.488281 L -0.0117188 -3.070312 C 0.699219 -2.058594 1.238281 -1 1.679688 0.21875 Z M 1.679688 0.21875 "/></g></g></g><g fill="#000000" fill-opacity="1"><g transform="translate(62.850456, 93.253322)"><g><path d="M 6.09375 0 L 5.265625 0 L 2.109375 -5 C 1.992188 -5.195312 1.898438 -5.359375 1.828125 -5.484375 C 1.835938 -5.285156 1.84375 -5.125 1.84375 -5 L 1.84375 0 L 0.984375 0 L 0.984375 -7 L 1.859375 -7 L 4.953125 -2.015625 C 5.066406 -1.847656 5.164062 -1.675781 5.25 -1.5 C 5.238281 -1.738281 5.234375 -1.910156 5.234375 -2.015625 L 5.234375 -7 L 6.09375 -7 Z M 6.09375 0 "/></g></g></g><g fill="#000000" fill-opacity="1"><g transform="translate(69.927665, 93.253322)"><g><path d="M 4.4375 -0.59375 C 4.03125 -0.113281 3.476562 0.125 2.78125 0.125 C 2.09375 0.125 1.546875 -0.109375 1.140625 -0.578125 C 0.734375 -1.054688 0.53125 -1.710938 0.53125 -2.546875 C 0.53125 -3.378906 0.734375 -4.035156 1.140625 -4.515625 C 1.546875 -4.992188 2.09375 -5.234375 2.78125 -5.234375 C 3.476562 -5.234375 4.03125 -4.992188 4.4375 -4.515625 C 4.84375 -4.046875 5.046875 -3.394531 5.046875 -2.5625 C 5.046875 -1.726562 4.84375 -1.070312 4.4375 -0.59375 Z M 1.765625 -1.1875 C 2.015625 -0.851562 2.351562 -0.6875 2.78125 -0.6875 C 3.21875 -0.6875 3.554688 -0.851562 3.796875 -1.1875 C 4.046875 -1.519531 4.171875 -1.976562 4.171875 -2.5625 C 4.171875 -3.144531 4.046875 -3.601562 3.796875 -3.9375 C 3.554688 -4.269531 3.21875 -4.4375 2.78125 -4.4375 C 2.351562 -4.4375 2.015625 -4.269531 1.765625 -3.9375 C 1.523438 -3.601562 1.40625 -3.140625 1.40625 -2.546875 C 1.40625 -1.972656 1.523438 -1.519531 1.765625 -1.1875 Z M 1.765625 -1.1875 "/></g></g></g><g fill="#000000" fill-opacity="1"><g transform="translate(75.505469, 93.253322)"><g><path d="M 2.640625 0.125 C 1.992188 0.125 1.476562 -0.113281 1.09375 -0.59375 C 0.71875 -1.070312 0.53125 -1.726562 0.53125 -2.5625 C 0.53125 -3.394531 0.722656 -4.046875 1.109375 -4.515625 C 1.492188 -4.992188 2.003906 -5.234375 2.640625 -5.234375 C 3.140625 -5.234375 3.570312 -5.070312 3.9375 -4.75 L 3.9375 -6.8125 L 4.796875 -7.21875 L 4.796875 0 L 3.9375 0 L 3.9375 -0.40625 C 3.601562 -0.0507812 3.171875 0.125 2.640625 0.125 Z M 2.765625 -0.6875 C 3.265625 -0.6875 3.65625 -0.914062 3.9375 -1.375 L 3.9375 -3.78125 C 3.65625 -4.21875 3.265625 -4.4375 2.765625 -4.4375 C 2.328125 -4.4375 1.988281 -4.269531 1.75 -3.9375 C 1.519531 -3.613281 1.40625 -3.15625 1.40625 -2.5625 C 1.40625 -2.019531 1.523438 -1.570312 1.765625 -1.21875 C 2.015625 -0.863281 2.347656 -0.6875 2.765625 -0.6875 Z M 2.765625 -0.6875 "/></g></g></g><g fill="#000000" fill-opacity="1"><g transform="translate(81.123248, 93.253322)"><g><path d="M 2.796875 0.125 C 2.109375 0.125 1.554688 -0.125 1.140625 -0.625 C 0.734375 -1.125 0.53125 -1.769531 0.53125 -2.5625 C 0.53125 -3.394531 0.734375 -4.046875 1.140625 -4.515625 C 1.554688 -4.992188 2.109375 -5.234375 2.796875 -5.234375 C 3.410156 -5.234375 3.914062 -5.023438 4.3125 -4.609375 C 4.707031 -4.203125 4.90625 -3.597656 4.90625 -2.796875 C 4.90625 -2.609375 4.894531 -2.414062 4.875 -2.21875 L 1.421875 -2.21875 C 1.453125 -1.75 1.59375 -1.375 1.84375 -1.09375 C 2.101562 -0.8125 2.425781 -0.671875 2.8125 -0.671875 C 3.238281 -0.671875 3.609375 -0.820312 3.921875 -1.125 L 4.453125 -0.546875 C 4.015625 -0.0976562 3.460938 0.125 2.796875 0.125 Z M 1.40625 -2.953125 L 4.03125 -2.953125 C 4.019531 -3.484375 3.894531 -3.863281 3.65625 -4.09375 C 3.414062 -4.332031 3.128906 -4.453125 2.796875 -4.453125 C 2.398438 -4.453125 2.078125 -4.328125 1.828125 -4.078125 C 1.578125 -3.828125 1.4375 -3.453125 1.40625 -2.953125 Z M 1.40625 -2.953125 "/></g></g></g><g fill="#000000" fill-opacity="1"><g transform="translate(86.501123, 93.253322)"><g><path d="M 1.609375 -0.078125 C 1.472656 0.0546875 1.304688 0.125 1.109375 0.125 C 0.921875 0.125 0.757812 0.0546875 0.625 -0.078125 C 0.5 -0.210938 0.4375 -0.367188 0.4375 -0.546875 C 0.4375 -0.734375 0.5 -0.894531 0.625 -1.03125 C 0.757812 -1.164062 0.921875 -1.234375 1.109375 -1.234375 C 1.304688 -1.234375 1.472656 -1.160156 1.609375 -1.015625 C 1.742188 -0.878906 1.8125 -0.722656 1.8125 -0.546875 C 1.8125 -0.367188 1.742188 -0.210938 1.609375 -0.078125 Z M 1.609375 -0.078125 "/></g></g></g><g fill="#000000" fill-opacity="1"><g transform="translate(88.750231, 93.253322)"><g><path d="M 1.65625 -6.1875 C 1.5625 -6.09375 1.4375 -6.046875 1.28125 -6.046875 C 1.125 -6.046875 0.992188 -6.09375 0.890625 -6.1875 C 0.785156 -6.289062 0.734375 -6.421875 0.734375 -6.578125 C 0.734375 -6.734375 0.785156 -6.863281 0.890625 -6.96875 C 0.992188 -7.082031 1.125 -7.140625 1.28125 -7.140625 C 1.4375 -7.140625 1.5625 -7.082031 1.65625 -6.96875 C 1.757812 -6.863281 1.8125 -6.734375 1.8125 -6.578125 C 1.8125 -6.421875 1.757812 -6.289062 1.65625 -6.1875 Z M -0.0625 2.140625 L -0.46875 1.484375 C 0.0195312 1.398438 0.359375 1.269531 0.546875 1.09375 C 0.742188 0.925781 0.84375 0.679688 0.84375 0.359375 L 0.84375 -5.109375 L 1.703125 -5.109375 L 1.703125 0.046875 C 1.703125 0.660156 1.578125 1.117188 1.328125 1.421875 C 1.003906 1.816406 0.539062 2.054688 -0.0625 2.140625 Z M -0.0625 2.140625 "/></g></g></g><g fill="#000000" fill-opacity="1"><g transform="translate(91.289228, 93.253322)"><g><path d="M 2.34375 0.125 C 1.976562 0.125 1.628906 0.046875 1.296875 -0.109375 C 0.960938 -0.265625 0.691406 -0.472656 0.484375 -0.734375 L 1.109375 -1.265625 C 1.492188 -0.859375 1.910156 -0.65625 2.359375 -0.65625 C 2.648438 -0.65625 2.878906 -0.707031 3.046875 -0.8125 C 3.222656 -0.925781 3.3125 -1.09375 3.3125 -1.3125 C 3.3125 -1.46875 3.25 -1.609375 3.125 -1.734375 C 3 -1.867188 2.867188 -1.96875 2.734375 -2.03125 C 2.597656 -2.09375 2.398438 -2.175781 2.140625 -2.28125 C 1.617188 -2.46875 1.222656 -2.679688 0.953125 -2.921875 C 0.691406 -3.171875 0.5625 -3.488281 0.5625 -3.875 C 0.5625 -4.289062 0.722656 -4.617188 1.046875 -4.859375 C 1.367188 -5.109375 1.78125 -5.234375 2.28125 -5.234375 C 2.988281 -5.234375 3.5625 -4.972656 4 -4.453125 L 3.40625 -3.953125 C 3.09375 -4.285156 2.710938 -4.453125 2.265625 -4.453125 C 2.003906 -4.453125 1.796875 -4.398438 1.640625 -4.296875 C 1.492188 -4.203125 1.421875 -4.0625 1.421875 -3.875 C 1.421875 -3.78125 1.441406 -3.691406 1.484375 -3.609375 C 1.535156 -3.523438 1.625 -3.445312 1.75 -3.375 C 1.882812 -3.300781 1.988281 -3.242188 2.0625 -3.203125 C 2.144531 -3.171875 2.289062 -3.113281 2.5 -3.03125 C 3.039062 -2.832031 3.453125 -2.609375 3.734375 -2.359375 C 4.015625 -2.117188 4.15625 -1.773438 4.15625 -1.328125 C 4.15625 -0.878906 3.992188 -0.523438 3.671875 -0.265625 C 3.347656 -0.00390625 2.90625 0.125 2.34375 0.125 Z M 2.34375 0.125 "/></g></g></g><g fill="#000000" fill-opacity="1"><g transform="translate(177.686362, 93.253322)"><g><path d="M 1.679688 0.21875 L 2.640625 0.101562 C 3.488281 -2.898438 5.109375 -5.4375 6.878906 -7.089844 L 6.289062 -7.636719 C 4.519531 -5.917969 2.929688 -3.179688 2.140625 -0.53125 L 2.097656 -0.53125 C 1.75 -1.53125 1.230469 -2.570312 0.621094 -3.488281 L -0.0117188 -3.070312 C 0.699219 -2.058594 1.238281 -1 1.679688 0.21875 Z M 1.679688 0.21875 "/></g></g></g><g fill="#000000" fill-opacity="1"><g transform="translate(262.93944, 93.253322)"><g><path d="M 1.679688 0.21875 L 2.640625 0.101562 C 3.488281 -2.898438 5.109375 -5.4375 6.878906 -7.089844 L 6.289062 -7.636719 C 4.519531 -5.917969 2.929688 -3.179688 2.140625 -0.53125 L 2.097656 -0.53125 C 1.75 -1.53125 1.230469 -2.570312 0.621094 -3.488281 L -0.0117188 -3.070312 C 0.699219 -2.058594 1.238281 -1 1.679688 0.21875 Z M 1.679688 0.21875 "/></g></g></g><g fill="#000000" fill-opacity="1"><g transform="translate(349.534082, 93.253322)"><g><path d="M 1.679688 0.21875 L 2.640625 0.101562 C 3.488281 -2.898438 5.109375 -5.4375 6.878906 -7.089844 L 6.289062 -7.636719 C 4.519531 -5.917969 2.929688 -3.179688 2.140625 -0.53125 L 2.097656 -0.53125 C 1.75 -1.53125 1.230469 -2.570312 0.621094 -3.488281 L -0.0117188 -3.070312 C 0.699219 -2.058594 1.238281 -1 1.679688 0.21875 Z M 1.679688 0.21875 "/></g></g></g><g fill="#000000" fill-opacity="1"><g transform="translate(35.030146, 124.336096)"><g><path d="M 5.390625 0 L 4.796875 -1.703125 L 2.015625 -1.703125 L 1.421875 0 L 0.515625 0 L 2.984375 -7 L 3.796875 -7 L 6.28125 0 Z M 4.515625 -2.484375 L 3.625 -5.0625 C 3.507812 -5.394531 3.4375 -5.632812 3.40625 -5.78125 C 3.332031 -5.519531 3.257812 -5.28125 3.1875 -5.0625 L 2.265625 -2.484375 Z M 4.515625 -2.484375 "/></g></g></g><g fill="#000000" fill-opacity="1"><g transform="translate(41.817465, 124.336096)"><g><path d="M 3.984375 0 L 3.984375 -3.09375 C 3.984375 -3.550781 3.882812 -3.890625 3.6875 -4.109375 C 3.488281 -4.328125 3.21875 -4.4375 2.875 -4.4375 C 2.09375 -4.4375 1.703125 -3.992188 1.703125 -3.109375 L 1.703125 0 L 0.828125 0 L 0.828125 -5.109375 L 1.703125 -5.109375 L 1.703125 -4.59375 C 2.015625 -5.019531 2.453125 -5.234375 3.015625 -5.234375 C 3.617188 -5.234375 4.070312 -5.050781 4.375 -4.6875 C 4.6875 -4.320312 4.84375 -3.738281 4.84375 -2.9375 L 4.84375 0 Z M 3.984375 0 "/></g></g></g><g fill="#000000" fill-opacity="1"><g transform="translate(47.445245, 124.336096)"><g><path d="M 2.40625 2.0625 L 1.984375 1.390625 C 2.722656 1.347656 3.234375 1.21875 3.515625 1 C 3.796875 0.789062 3.9375 0.5 3.9375 0.125 L 3.9375 -0.5 C 3.632812 -0.0820312 3.195312 0.125 2.625 0.125 C 2.019531 0.125 1.519531 -0.109375 1.125 -0.578125 C 0.726562 -1.046875 0.53125 -1.707031 0.53125 -2.5625 C 0.53125 -3.382812 0.722656 -4.035156 1.109375 -4.515625 C 1.503906 -4.992188 2.019531 -5.234375 2.65625 -5.234375 C 3.1875 -5.234375 3.613281 -5.050781 3.9375 -4.6875 L 3.9375 -5.109375 L 4.8125 -5.109375 L 4.8125 -0.203125 C 4.8125 0.566406 4.601562 1.125 4.1875 1.46875 C 3.769531 1.820312 3.175781 2.019531 2.40625 2.0625 Z M 2.796875 -0.6875 C 3.015625 -0.6875 3.226562 -0.75 3.4375 -0.875 C 3.644531 -1.007812 3.8125 -1.1875 3.9375 -1.40625 L 3.9375 -3.75 C 3.820312 -3.945312 3.648438 -4.109375 3.421875 -4.234375 C 3.203125 -4.367188 2.992188 -4.4375 2.796875 -4.4375 C 2.347656 -4.4375 2.003906 -4.269531 1.765625 -3.9375 C 1.523438 -3.613281 1.40625 -3.15625 1.40625 -2.5625 C 1.40625 -1.976562 1.535156 -1.519531 1.796875 -1.1875 C 2.054688 -0.851562 2.390625 -0.6875 2.796875 -0.6875 Z M 2.796875 -0.6875 "/></g></g></g><g fill="#000000" fill-opacity="1"><g transform="translate(53.073026, 124.336096)"><g><path d="M 3.9375 0 L 3.9375 -0.484375 C 3.613281 -0.078125 3.179688 0.125 2.640625 0.125 C 2.015625 0.125 1.546875 -0.0507812 1.234375 -0.40625 C 0.929688 -0.769531 0.78125 -1.351562 0.78125 -2.15625 L 0.78125 -5.109375 L 1.65625 -5.109375 L 1.65625 -2.03125 C 1.65625 -1.570312 1.75 -1.234375 1.9375 -1.015625 C 2.132812 -0.796875 2.40625 -0.6875 2.75 -0.6875 C 3.539062 -0.6875 3.9375 -1.128906 3.9375 -2.015625 L 3.9375 -5.109375 L 4.796875 -5.109375 L 4.796875 0 Z M 3.9375 0 "/></g></g></g><g fill="#000000" fill-opacity="1"><g transform="translate(58.700806, 124.336096)"><g><path d="M 0.875 0 L 0.875 -6.8125 L 1.75 -7.21875 L 1.75 0 Z M 0.875 0 "/></g></g></g><g fill="#000000" fill-opacity="1"><g transform="translate(61.319775, 124.336096)"><g><path d="M 3.765625 0 L 3.765625 -0.46875 C 3.335938 -0.0703125 2.851562 0.125 2.3125 0.125 C 1.769531 0.125 1.335938 -0.0195312 1.015625 -0.3125 C 0.691406 -0.613281 0.53125 -1.039062 0.53125 -1.59375 C 0.53125 -2.15625 0.710938 -2.578125 1.078125 -2.859375 C 1.441406 -3.148438 1.894531 -3.296875 2.4375 -3.296875 C 2.9375 -3.296875 3.378906 -3.179688 3.765625 -2.953125 L 3.765625 -3.3125 C 3.765625 -3.738281 3.664062 -4.035156 3.46875 -4.203125 C 3.28125 -4.378906 3.007812 -4.46875 2.65625 -4.46875 C 2.132812 -4.46875 1.632812 -4.296875 1.15625 -3.953125 L 0.90625 -4.6875 C 1.457031 -5.050781 2.078125 -5.234375 2.765625 -5.234375 C 3.972656 -5.234375 4.578125 -4.617188 4.578125 -3.390625 L 4.578125 0 Z M 2.4375 -0.65625 C 2.9375 -0.65625 3.378906 -0.875 3.765625 -1.3125 L 3.765625 -2.203125 C 3.390625 -2.429688 2.988281 -2.546875 2.5625 -2.546875 C 2.207031 -2.546875 1.914062 -2.460938 1.6875 -2.296875 C 1.457031 -2.140625 1.34375 -1.90625 1.34375 -1.59375 C 1.34375 -1.3125 1.4375 -1.082031 1.625 -0.90625 C 1.820312 -0.738281 2.09375 -0.65625 2.4375 -0.65625 Z M 2.4375 -0.65625 "/></g></g></g><g fill="#000000" fill-opacity="1"><g transform="translate(66.577705, 124.336096)"><g><path d="M 0.828125 0 L 0.828125 -5.109375 L 1.703125 -5.109375 L 1.703125 -4.4375 C 1.941406 -4.96875 2.34375 -5.234375 2.90625 -5.234375 C 3.226562 -5.234375 3.492188 -5.144531 3.703125 -4.96875 L 3.5625 -4.15625 C 3.351562 -4.300781 3.113281 -4.375 2.84375 -4.375 C 2.539062 -4.375 2.273438 -4.253906 2.046875 -4.015625 C 1.816406 -3.785156 1.703125 -3.40625 1.703125 -2.875 L 1.703125 0 Z M 0.828125 0 "/></g></g></g><g fill="#000000" fill-opacity="1"><g transform="translate(70.466167, 124.336096)"><g><path d="M -0.078125 1.296875 L 3.859375 -7.125 L 4.71875 -7.125 L 0.796875 1.296875 Z M -0.078125 1.296875 "/></g></g></g><g fill="#000000" fill-opacity="1"><g transform="translate(75.364238, 124.336096)"><g><path d="M 0.984375 0 L 0.984375 -7 L 3.734375 -7 C 4.515625 -7 5.078125 -6.804688 5.421875 -6.421875 C 5.773438 -6.046875 5.953125 -5.578125 5.953125 -5.015625 C 5.953125 -4.546875 5.816406 -4.128906 5.546875 -3.765625 C 5.273438 -3.410156 4.863281 -3.175781 4.3125 -3.0625 L 5.8125 0 L 4.84375 0 L 3.40625 -3 L 1.84375 -3 L 1.84375 0 Z M 1.84375 -3.8125 L 3.765625 -3.8125 C 4.210938 -3.8125 4.539062 -3.921875 4.75 -4.140625 C 4.957031 -4.367188 5.0625 -4.648438 5.0625 -4.984375 C 5.0625 -5.304688 4.957031 -5.585938 4.75 -5.828125 C 4.550781 -6.066406 4.222656 -6.1875 3.765625 -6.1875 L 1.84375 -6.1875 Z M 1.84375 -3.8125 "/></g></g></g><g fill="#000000" fill-opacity="1"><g transform="translate(82.011618, 124.336096)"><g><path d="M 2.796875 0.125 C 2.109375 0.125 1.554688 -0.125 1.140625 -0.625 C 0.734375 -1.125 0.53125 -1.769531 0.53125 -2.5625 C 0.53125 -3.394531 0.734375 -4.046875 1.140625 -4.515625 C 1.554688 -4.992188 2.109375 -5.234375 2.796875 -5.234375 C 3.410156 -5.234375 3.914062 -5.023438 4.3125 -4.609375 C 4.707031 -4.203125 4.90625 -3.597656 4.90625 -2.796875 C 4.90625 -2.609375 4.894531 -2.414062 4.875 -2.21875 L 1.421875 -2.21875 C 1.453125 -1.75 1.59375 -1.375 1.84375 -1.09375 C 2.101562 -0.8125 2.425781 -0.671875 2.8125 -0.671875 C 3.238281 -0.671875 3.609375 -0.820312 3.921875 -1.125 L 4.453125 -0.546875 C 4.015625 -0.0976562 3.460938 0.125 2.796875 0.125 Z M 1.40625 -2.953125 L 4.03125 -2.953125 C 4.019531 -3.484375 3.894531 -3.863281 3.65625 -4.09375 C 3.414062 -4.332031 3.128906 -4.453125 2.796875 -4.453125 C 2.398438 -4.453125 2.078125 -4.328125 1.828125 -4.078125 C 1.578125 -3.828125 1.4375 -3.453125 1.40625 -2.953125 Z M 1.40625 -2.953125 "/></g></g></g><g fill="#000000" fill-opacity="1"><g transform="translate(87.389494, 124.336096)"><g><path d="M 3.765625 0 L 3.765625 -0.46875 C 3.335938 -0.0703125 2.851562 0.125 2.3125 0.125 C 1.769531 0.125 1.335938 -0.0195312 1.015625 -0.3125 C 0.691406 -0.613281 0.53125 -1.039062 0.53125 -1.59375 C 0.53125 -2.15625 0.710938 -2.578125 1.078125 -2.859375 C 1.441406 -3.148438 1.894531 -3.296875 2.4375 -3.296875 C 2.9375 -3.296875 3.378906 -3.179688 3.765625 -2.953125 L 3.765625 -3.3125 C 3.765625 -3.738281 3.664062 -4.035156 3.46875 -4.203125 C 3.28125 -4.378906 3.007812 -4.46875 2.65625 -4.46875 C 2.132812 -4.46875 1.632812 -4.296875 1.15625 -3.953125 L 0.90625 -4.6875 C 1.457031 -5.050781 2.078125 -5.234375 2.765625 -5.234375 C 3.972656 -5.234375 4.578125 -4.617188 4.578125 -3.390625 L 4.578125 0 Z M 2.4375 -0.65625 C 2.9375 -0.65625 3.378906 -0.875 3.765625 -1.3125 L 3.765625 -2.203125 C 3.390625 -2.429688 2.988281 -2.546875 2.5625 -2.546875 C 2.207031 -2.546875 1.914062 -2.460938 1.6875 -2.296875 C 1.457031 -2.140625 1.34375 -1.90625 1.34375 -1.59375 C 1.34375 -1.3125 1.4375 -1.082031 1.625 -0.90625 C 1.820312 -0.738281 2.09375 -0.65625 2.4375 -0.65625 Z M 2.4375 -0.65625 "/></g></g></g><g fill="#000000" fill-opacity="1"><g transform="translate(92.647424, 124.336096)"><g><path d="M 2.65625 0.125 C 2 0.125 1.476562 -0.109375 1.09375 -0.578125 C 0.71875 -1.054688 0.53125 -1.710938 0.53125 -2.546875 C 0.53125 -3.390625 0.722656 -4.046875 1.109375 -4.515625 C 1.492188 -4.992188 2.019531 -5.234375 2.6875 -5.234375 C 3.59375 -5.234375 4.191406 -4.835938 4.484375 -4.046875 L 3.65625 -3.734375 C 3.488281 -4.191406 3.171875 -4.421875 2.703125 -4.421875 C 2.273438 -4.421875 1.953125 -4.253906 1.734375 -3.921875 C 1.523438 -3.597656 1.421875 -3.140625 1.421875 -2.546875 C 1.421875 -1.960938 1.523438 -1.507812 1.734375 -1.1875 C 1.953125 -0.863281 2.265625 -0.703125 2.671875 -0.703125 C 3.203125 -0.703125 3.546875 -0.953125 3.703125 -1.453125 L 4.515625 -1.1875 C 4.390625 -0.769531 4.164062 -0.445312 3.84375 -0.21875 C 3.519531 0.0078125 3.125 0.125 2.65625 0.125 Z M 2.65625 0.125 "/></g></g></g><g fill="#000000" fill-opacity="1"><g transform="translate(97.645448, 124.336096)"><g><path d="M 2.203125 0.125 C 1.484375 0.125 1.125 -0.28125 1.125 -1.09375 L 1.125 -4.34375 L 0.296875 -4.34375 L 0.296875 -5.109375 L 1.125 -5.109375 L 1.125 -6.796875 L 2 -7.21875 L 2 -5.109375 L 3.265625 -5.109375 L 3.265625 -4.34375 L 2 -4.34375 L 2 -1.390625 C 2 -1.160156 2.035156 -0.984375 2.109375 -0.859375 C 2.179688 -0.742188 2.320312 -0.6875 2.53125 -0.6875 C 2.757812 -0.6875 3.015625 -0.773438 3.296875 -0.953125 L 3.1875 -0.109375 C 2.894531 0.046875 2.566406 0.125 2.203125 0.125 Z M 2.203125 0.125 "/></g></g></g><g fill="#000000" fill-opacity="1"><g transform="translate(101.383969, 124.336096)"><g><path d="M -0.078125 1.296875 L 3.859375 -7.125 L 4.71875 -7.125 L 0.796875 1.296875 Z M -0.078125 1.296875 "/></g></g></g><g fill="#000000" fill-opacity="1"><g transform="translate(106.28204, 124.336096)"><g><path d="M 2.875 0 L 0.484375 -7 L 1.40625 -7 L 3.078125 -1.9375 C 3.203125 -1.53125 3.273438 -1.296875 3.296875 -1.234375 C 3.316406 -1.359375 3.378906 -1.59375 3.484375 -1.9375 L 5.109375 -7 L 6.046875 -7 L 3.65625 0 Z M 2.875 0 "/></g></g></g><g fill="#000000" fill-opacity="1"><g transform="translate(112.799472, 124.336096)"><g><path d="M 3.9375 0 L 3.9375 -0.484375 C 3.613281 -0.078125 3.179688 0.125 2.640625 0.125 C 2.015625 0.125 1.546875 -0.0507812 1.234375 -0.40625 C 0.929688 -0.769531 0.78125 -1.351562 0.78125 -2.15625 L 0.78125 -5.109375 L 1.65625 -5.109375 L 1.65625 -2.03125 C 1.65625 -1.570312 1.75 -1.234375 1.9375 -1.015625 C 2.132812 -0.796875 2.40625 -0.6875 2.75 -0.6875 C 3.539062 -0.6875 3.9375 -1.128906 3.9375 -2.015625 L 3.9375 -5.109375 L 4.796875 -5.109375 L 4.796875 0 Z M 3.9375 0 "/></g></g></g><g fill="#000000" fill-opacity="1"><g transform="translate(118.427253, 124.336096)"><g><path d="M 2.796875 0.125 C 2.109375 0.125 1.554688 -0.125 1.140625 -0.625 C 0.734375 -1.125 0.53125 -1.769531 0.53125 -2.5625 C 0.53125 -3.394531 0.734375 -4.046875 1.140625 -4.515625 C 1.554688 -4.992188 2.109375 -5.234375 2.796875 -5.234375 C 3.410156 -5.234375 3.914062 -5.023438 4.3125 -4.609375 C 4.707031 -4.203125 4.90625 -3.597656 4.90625 -2.796875 C 4.90625 -2.609375 4.894531 -2.414062 4.875 -2.21875 L 1.421875 -2.21875 C 1.453125 -1.75 1.59375 -1.375 1.84375 -1.09375 C 2.101562 -0.8125 2.425781 -0.671875 2.8125 -0.671875 C 3.238281 -0.671875 3.609375 -0.820312 3.921875 -1.125 L 4.453125 -0.546875 C 4.015625 -0.0976562 3.460938 0.125 2.796875 0.125 Z M 1.40625 -2.953125 L 4.03125 -2.953125 C 4.019531 -3.484375 3.894531 -3.863281 3.65625 -4.09375 C 3.414062 -4.332031 3.128906 -4.453125 2.796875 -4.453125 C 2.398438 -4.453125 2.078125 -4.328125 1.828125 -4.078125 C 1.578125 -3.828125 1.4375 -3.453125 1.40625 -2.953125 Z M 1.40625 -2.953125 "/></g></g></g><g fill="#000000" fill-opacity="1"><g transform="translate(177.686362, 124.336096)"><g><path d="M 1.679688 0.21875 L 2.640625 0.101562 C 3.488281 -2.898438 5.109375 -5.4375 6.878906 -7.089844 L 6.289062 -7.636719 C 4.519531 -5.917969 2.929688 -3.179688 2.140625 -0.53125 L 2.097656 -0.53125 C 1.75 -1.53125 1.230469 -2.570312 0.621094 -3.488281 L -0.0117188 -3.070312 C 0.699219 -2.058594 1.238281 -1 1.679688 0.21875 Z M 1.679688 0.21875 "/></g></g></g><g fill="#000000" fill-opacity="1"><g transform="translate(262.93944, 124.336096)"><g><path d="M 1.679688 0.21875 L 2.640625 0.101562 C 3.488281 -2.898438 5.109375 -5.4375 6.878906 -7.089844 L 6.289062 -7.636719 C 4.519531 -5.917969 2.929688 -3.179688 2.140625 -0.53125 L 2.097656 -0.53125 C 1.75 -1.53125 1.230469 -2.570312 0.621094 -3.488281 L -0.0117188 -3.070312 C 0.699219 -2.058594 1.238281 -1 1.679688 0.21875 Z M 1.679688 0.21875 "/></g></g></g><g fill="#000000" fill-opacity="1"><g transform="translate(349.534082, 124.336096)"><g><path d="M 1.679688 0.21875 L 2.640625 0.101562 C 3.488281 -2.898438 5.109375 -5.4375 6.878906 -7.089844 L 6.289062 -7.636719 C 4.519531 -5.917969 2.929688 -3.179688 2.140625 -0.53125 L 2.097656 -0.53125 C 1.75 -1.53125 1.230469 -2.570312 0.621094 -3.488281 L -0.0117188 -3.070312 C 0.699219 -2.058594 1.238281 -1 1.679688 0.21875 Z M 1.679688 0.21875 "/></g></g></g><g fill="#000000" fill-opacity="1"><g transform="translate(63.623894, 155.418885)"><g><path d="M 3.65625 0.125 C 3.132812 0.125 2.675781 0.0234375 2.28125 -0.171875 C 1.894531 -0.378906 1.585938 -0.65625 1.359375 -1 C 1.128906 -1.351562 0.957031 -1.738281 0.84375 -2.15625 C 0.738281 -2.582031 0.6875 -3.03125 0.6875 -3.5 C 0.6875 -3.96875 0.742188 -4.410156 0.859375 -4.828125 C 0.984375 -5.253906 1.160156 -5.640625 1.390625 -5.984375 C 1.617188 -6.328125 1.925781 -6.601562 2.3125 -6.8125 C 2.707031 -7.019531 3.15625 -7.125 3.65625 -7.125 C 4.25 -7.125 4.710938 -7.007812 5.046875 -6.78125 C 5.390625 -6.5625 5.679688 -6.265625 5.921875 -5.890625 L 5.140625 -5.4375 C 4.953125 -5.707031 4.742188 -5.914062 4.515625 -6.0625 C 4.296875 -6.21875 4.007812 -6.296875 3.65625 -6.296875 C 3.351562 -6.296875 3.082031 -6.238281 2.84375 -6.125 C 2.601562 -6.007812 2.40625 -5.859375 2.25 -5.671875 C 2.09375 -5.492188 1.960938 -5.28125 1.859375 -5.03125 C 1.753906 -4.789062 1.679688 -4.539062 1.640625 -4.28125 C 1.597656 -4.03125 1.578125 -3.769531 1.578125 -3.5 C 1.578125 -2.707031 1.75 -2.039062 2.09375 -1.5 C 2.445312 -0.96875 2.96875 -0.703125 3.65625 -0.703125 C 4.125 -0.703125 4.5 -0.847656 4.78125 -1.140625 C 5.070312 -1.441406 5.21875 -1.832031 5.21875 -2.3125 L 5.21875 -2.59375 L 3.953125 -2.59375 L 3.953125 -3.40625 L 6.125 -3.40625 L 6.125 -2.5625 C 6.125 -1.71875 5.890625 -1.054688 5.421875 -0.578125 C 4.960938 -0.109375 4.375 0.125 3.65625 0.125 Z M 3.65625 0.125 "/></g></g></g><g fill="#000000" fill-opacity="1"><g transform="translate(70.501186, 155.418885)"><g><path d="M 4.4375 -0.59375 C 4.03125 -0.113281 3.476562 0.125 2.78125 0.125 C 2.09375 0.125 1.546875 -0.109375 1.140625 -0.578125 C 0.734375 -1.054688 0.53125 -1.710938 0.53125 -2.546875 C 0.53125 -3.378906 0.734375 -4.035156 1.140625 -4.515625 C 1.546875 -4.992188 2.09375 -5.234375 2.78125 -5.234375 C 3.476562 -5.234375 4.03125 -4.992188 4.4375 -4.515625 C 4.84375 -4.046875 5.046875 -3.394531 5.046875 -2.5625 C 5.046875 -1.726562 4.84375 -1.070312 4.4375 -0.59375 Z M 1.765625 -1.1875 C 2.015625 -0.851562 2.351562 -0.6875 2.78125 -0.6875 C 3.21875 -0.6875 3.554688 -0.851562 3.796875 -1.1875 C 4.046875 -1.519531 4.171875 -1.976562 4.171875 -2.5625 C 4.171875 -3.144531 4.046875 -3.601562 3.796875 -3.9375 C 3.554688 -4.269531 3.21875 -4.4375 2.78125 -4.4375 C 2.351562 -4.4375 2.015625 -4.269531 1.765625 -3.9375 C 1.523438 -3.601562 1.40625 -3.140625 1.40625 -2.546875 C 1.40625 -1.972656 1.523438 -1.519531 1.765625 -1.1875 Z M 1.765625 -1.1875 "/></g></g></g><g fill="#000000" fill-opacity="1"><g transform="translate(76.07899, 155.418885)"><g><path d="M 0.875 0 L 0.875 -6.8125 L 1.75 -7.21875 L 1.75 0 Z M 0.875 0 "/></g></g></g><g fill="#000000" fill-opacity="1"><g transform="translate(78.697959, 155.418885)"><g><path d="M 3.765625 0 L 3.765625 -0.46875 C 3.335938 -0.0703125 2.851562 0.125 2.3125 0.125 C 1.769531 0.125 1.335938 -0.0195312 1.015625 -0.3125 C 0.691406 -0.613281 0.53125 -1.039062 0.53125 -1.59375 C 0.53125 -2.15625 0.710938 -2.578125 1.078125 -2.859375 C 1.441406 -3.148438 1.894531 -3.296875 2.4375 -3.296875 C 2.9375 -3.296875 3.378906 -3.179688 3.765625 -2.953125 L 3.765625 -3.3125 C 3.765625 -3.738281 3.664062 -4.035156 3.46875 -4.203125 C 3.28125 -4.378906 3.007812 -4.46875 2.65625 -4.46875 C 2.132812 -4.46875 1.632812 -4.296875 1.15625 -3.953125 L 0.90625 -4.6875 C 1.457031 -5.050781 2.078125 -5.234375 2.765625 -5.234375 C 3.972656 -5.234375 4.578125 -4.617188 4.578125 -3.390625 L 4.578125 0 Z M 2.4375 -0.65625 C 2.9375 -0.65625 3.378906 -0.875 3.765625 -1.3125 L 3.765625 -2.203125 C 3.390625 -2.429688 2.988281 -2.546875 2.5625 -2.546875 C 2.207031 -2.546875 1.914062 -2.460938 1.6875 -2.296875 C 1.457031 -2.140625 1.34375 -1.90625 1.34375 -1.59375 C 1.34375 -1.3125 1.4375 -1.082031 1.625 -0.90625 C 1.820312 -0.738281 2.09375 -0.65625 2.4375 -0.65625 Z M 2.4375 -0.65625 "/></g></g></g><g fill="#000000" fill-opacity="1"><g transform="translate(83.955889, 155.418885)"><g><path d="M 3.984375 0 L 3.984375 -3.09375 C 3.984375 -3.550781 3.882812 -3.890625 3.6875 -4.109375 C 3.488281 -4.328125 3.21875 -4.4375 2.875 -4.4375 C 2.09375 -4.4375 1.703125 -3.992188 1.703125 -3.109375 L 1.703125 0 L 0.828125 0 L 0.828125 -5.109375 L 1.703125 -5.109375 L 1.703125 -4.59375 C 2.015625 -5.019531 2.453125 -5.234375 3.015625 -5.234375 C 3.617188 -5.234375 4.070312 -5.050781 4.375 -4.6875 C 4.6875 -4.320312 4.84375 -3.738281 4.84375 -2.9375 L 4.84375 0 Z M 3.984375 0 "/></g></g></g><g fill="#000000" fill-opacity="1"><g transform="translate(89.583669, 155.418885)"><g><path d="M 2.40625 2.0625 L 1.984375 1.390625 C 2.722656 1.347656 3.234375 1.21875 3.515625 1 C 3.796875 0.789062 3.9375 0.5 3.9375 0.125 L 3.9375 -0.5 C 3.632812 -0.0820312 3.195312 0.125 2.625 0.125 C 2.019531 0.125 1.519531 -0.109375 1.125 -0.578125 C 0.726562 -1.046875 0.53125 -1.707031 0.53125 -2.5625 C 0.53125 -3.382812 0.722656 -4.035156 1.109375 -4.515625 C 1.503906 -4.992188 2.019531 -5.234375 2.65625 -5.234375 C 3.1875 -5.234375 3.613281 -5.050781 3.9375 -4.6875 L 3.9375 -5.109375 L 4.8125 -5.109375 L 4.8125 -0.203125 C 4.8125 0.566406 4.601562 1.125 4.1875 1.46875 C 3.769531 1.820312 3.175781 2.019531 2.40625 2.0625 Z M 2.796875 -0.6875 C 3.015625 -0.6875 3.226562 -0.75 3.4375 -0.875 C 3.644531 -1.007812 3.8125 -1.1875 3.9375 -1.40625 L 3.9375 -3.75 C 3.820312 -3.945312 3.648438 -4.109375 3.421875 -4.234375 C 3.203125 -4.367188 2.992188 -4.4375 2.796875 -4.4375 C 2.347656 -4.4375 2.003906 -4.269531 1.765625 -3.9375 C 1.523438 -3.613281 1.40625 -3.15625 1.40625 -2.5625 C 1.40625 -1.976562 1.535156 -1.519531 1.796875 -1.1875 C 2.054688 -0.851562 2.390625 -0.6875 2.796875 -0.6875 Z M 2.796875 -0.6875 "/></g></g></g><g fill="#000000" fill-opacity="1"><g transform="translate(179.10433, 155.418885)"><g><path d="M 0.828125 -2.5625 L 0.828125 -3.40625 L 3.171875 -3.40625 L 3.171875 -2.5625 Z M 0.828125 -2.5625 "/></g></g></g><g fill="#000000" fill-opacity="1"><g transform="translate(262.93944, 155.418885)"><g><path d="M 1.679688 0.21875 L 2.640625 0.101562 C 3.488281 -2.898438 5.109375 -5.4375 6.878906 -7.089844 L 6.289062 -7.636719 C 4.519531 -5.917969 2.929688 -3.179688 2.140625 -0.53125 L 2.097656 -0.53125 C 1.75 -1.53125 1.230469 -2.570312 0.621094 -3.488281 L -0.0117188 -3.070312 C 0.699219 -2.058594 1.238281 -1 1.679688 0.21875 Z M 1.679688 0.21875 "/></g></g></g><g fill="#000000" fill-opacity="1"><g transform="translate(349.534082, 155.418885)"><g><path d="M 1.679688 0.21875 L 2.640625 0.101562 C 3.488281 -2.898438 5.109375 -5.4375 6.878906 -7.089844 L 6.289062 -7.636719 C 4.519531 -5.917969 2.929688 -3.179688 2.140625 -0.53125 L 2.097656 -0.53125 C 1.75 -1.53125 1.230469 -2.570312 0.621094 -3.488281 L -0.0117188 -3.070312 C 0.699219 -2.058594 1.238281 -1 1.679688 0.21875 Z M 1.679688 0.21875 "/></g></g></g><g fill="#000000" fill-opacity="1"><g transform="translate(63.330925, 186.50165)"><g><path d="M 0.984375 0 L 0.984375 -7 L 3.65625 -7 C 4.0625 -7 4.414062 -6.9375 4.71875 -6.8125 C 5.03125 -6.695312 5.269531 -6.535156 5.4375 -6.328125 C 5.601562 -6.128906 5.722656 -5.910156 5.796875 -5.671875 C 5.878906 -5.429688 5.921875 -5.175781 5.921875 -4.90625 C 5.921875 -4.34375 5.734375 -3.851562 5.359375 -3.4375 C 4.984375 -3.019531 4.414062 -2.8125 3.65625 -2.8125 L 1.84375 -2.8125 L 1.84375 0 Z M 3.71875 -3.625 C 4.175781 -3.625 4.507812 -3.75 4.71875 -4 C 4.9375 -4.25 5.046875 -4.550781 5.046875 -4.90625 C 5.046875 -5.238281 4.941406 -5.535156 4.734375 -5.796875 C 4.535156 -6.054688 4.195312 -6.1875 3.71875 -6.1875 L 1.84375 -6.1875 L 1.84375 -3.625 Z M 3.71875 -3.625 "/></g></g></g><g fill="#000000" fill-opacity="1"><g transform="translate(69.628436, 186.50165)"><g><path d="M 1.4375 1.9375 L 2.21875 -0.125 L 0.328125 -5.109375 L 1.203125 -5.109375 L 2.46875 -1.625 C 2.519531 -1.507812 2.570312 -1.347656 2.625 -1.140625 C 2.6875 -1.347656 2.742188 -1.507812 2.796875 -1.625 L 4.078125 -5.109375 L 4.96875 -5.109375 L 2.3125 1.9375 Z M 1.4375 1.9375 "/></g></g></g><g fill="#000000" fill-opacity="1"><g transform="translate(74.926341, 186.50165)"><g><path d="M 2.203125 0.125 C 1.484375 0.125 1.125 -0.28125 1.125 -1.09375 L 1.125 -4.34375 L 0.296875 -4.34375 L 0.296875 -5.109375 L 1.125 -5.109375 L 1.125 -6.796875 L 2 -7.21875 L 2 -5.109375 L 3.265625 -5.109375 L 3.265625 -4.34375 L 2 -4.34375 L 2 -1.390625 C 2 -1.160156 2.035156 -0.984375 2.109375 -0.859375 C 2.179688 -0.742188 2.320312 -0.6875 2.53125 -0.6875 C 2.757812 -0.6875 3.015625 -0.773438 3.296875 -0.953125 L 3.1875 -0.109375 C 2.894531 0.046875 2.566406 0.125 2.203125 0.125 Z M 2.203125 0.125 "/></g></g></g><g fill="#000000" fill-opacity="1"><g transform="translate(78.664862, 186.50165)"><g><path d="M 0.828125 0 L 0.828125 -6.8125 L 1.703125 -7.21875 L 1.703125 -4.578125 C 2.015625 -5.015625 2.453125 -5.234375 3.015625 -5.234375 C 3.617188 -5.234375 4.070312 -5.050781 4.375 -4.6875 C 4.6875 -4.320312 4.84375 -3.738281 4.84375 -2.9375 L 4.84375 0 L 3.984375 0 L 3.984375 -3.09375 C 3.984375 -3.550781 3.882812 -3.890625 3.6875 -4.109375 C 3.488281 -4.328125 3.21875 -4.4375 2.875 -4.4375 C 2.09375 -4.4375 1.703125 -3.992188 1.703125 -3.109375 L 1.703125 0 Z M 0.828125 0 "/></g></g></g><g fill="#000000" fill-opacity="1"><g transform="translate(84.292643, 186.50165)"><g><path d="M 4.4375 -0.59375 C 4.03125 -0.113281 3.476562 0.125 2.78125 0.125 C 2.09375 0.125 1.546875 -0.109375 1.140625 -0.578125 C 0.734375 -1.054688 0.53125 -1.710938 0.53125 -2.546875 C 0.53125 -3.378906 0.734375 -4.035156 1.140625 -4.515625 C 1.546875 -4.992188 2.09375 -5.234375 2.78125 -5.234375 C 3.476562 -5.234375 4.03125 -4.992188 4.4375 -4.515625 C 4.84375 -4.046875 5.046875 -3.394531 5.046875 -2.5625 C 5.046875 -1.726562 4.84375 -1.070312 4.4375 -0.59375 Z M 1.765625 -1.1875 C 2.015625 -0.851562 2.351562 -0.6875 2.78125 -0.6875 C 3.21875 -0.6875 3.554688 -0.851562 3.796875 -1.1875 C 4.046875 -1.519531 4.171875 -1.976562 4.171875 -2.5625 C 4.171875 -3.144531 4.046875 -3.601562 3.796875 -3.9375 C 3.554688 -4.269531 3.21875 -4.4375 2.78125 -4.4375 C 2.351562 -4.4375 2.015625 -4.269531 1.765625 -3.9375 C 1.523438 -3.601562 1.40625 -3.140625 1.40625 -2.546875 C 1.40625 -1.972656 1.523438 -1.519531 1.765625 -1.1875 Z M 1.765625 -1.1875 "/></g></g></g><g fill="#000000" fill-opacity="1"><g transform="translate(89.870447, 186.50165)"><g><path d="M 3.984375 0 L 3.984375 -3.09375 C 3.984375 -3.550781 3.882812 -3.890625 3.6875 -4.109375 C 3.488281 -4.328125 3.21875 -4.4375 2.875 -4.4375 C 2.09375 -4.4375 1.703125 -3.992188 1.703125 -3.109375 L 1.703125 0 L 0.828125 0 L 0.828125 -5.109375 L 1.703125 -5.109375 L 1.703125 -4.59375 C 2.015625 -5.019531 2.453125 -5.234375 3.015625 -5.234375 C 3.617188 -5.234375 4.070312 -5.050781 4.375 -4.6875 C 4.6875 -4.320312 4.84375 -3.738281 4.84375 -2.9375 L 4.84375 0 Z M 3.984375 0 "/></g></g></g><g fill="#000000" fill-opacity="1"><g transform="translate(179.10433, 186.50165)"><g><path d="M 0.828125 -2.5625 L 0.828125 -3.40625 L 3.171875 -3.40625 L 3.171875 -2.5625 Z M 0.828125 -2.5625 "/></g></g></g><g fill="#000000" fill-opacity="1"><g transform="translate(262.93944, 186.50165)"><g><path d="M 1.679688 0.21875 L 2.640625 0.101562 C 3.488281 -2.898438 5.109375 -5.4375 6.878906 -7.089844 L 6.289062 -7.636719 C 4.519531 -5.917969 2.929688 -3.179688 2.140625 -0.53125 L 2.097656 -0.53125 C 1.75 -1.53125 1.230469 -2.570312 0.621094 -3.488281 L -0.0117188 -3.070312 C 0.699219 -2.058594 1.238281 -1 1.679688 0.21875 Z M 1.679688 0.21875 "/></g></g></g><g fill="#000000" fill-opacity="1"><g transform="translate(349.534082, 186.50165)"><g><path d="M 1.679688 0.21875 L 2.640625 0.101562 C 3.488281 -2.898438 5.109375 -5.4375 6.878906 -7.089844 L 6.289062 -7.636719 C 4.519531 -5.917969 2.929688 -3.179688 2.140625 -0.53125 L 2.097656 -0.53125 C 1.75 -1.53125 1.230469 -2.570312 0.621094 -3.488281 L -0.0117188 -3.070312 C 0.699219 -2.058594 1.238281 -1 1.679688 0.21875 Z M 1.679688 0.21875 "/></g></g></g><g fill="#000000" fill-opacity="1"><g transform="translate(67.819206, 217.584417)"><g><path d="M 0.984375 0 L 0.984375 -7 L 3.734375 -7 C 4.515625 -7 5.078125 -6.804688 5.421875 -6.421875 C 5.773438 -6.046875 5.953125 -5.578125 5.953125 -5.015625 C 5.953125 -4.546875 5.816406 -4.128906 5.546875 -3.765625 C 5.273438 -3.410156 4.863281 -3.175781 4.3125 -3.0625 L 5.8125 0 L 4.84375 0 L 3.40625 -3 L 1.84375 -3 L 1.84375 0 Z M 1.84375 -3.8125 L 3.765625 -3.8125 C 4.210938 -3.8125 4.539062 -3.921875 4.75 -4.140625 C 4.957031 -4.367188 5.0625 -4.648438 5.0625 -4.984375 C 5.0625 -5.304688 4.957031 -5.585938 4.75 -5.828125 C 4.550781 -6.066406 4.222656 -6.1875 3.765625 -6.1875 L 1.84375 -6.1875 Z M 1.84375 -3.8125 "/></g></g></g><g fill="#000000" fill-opacity="1"><g transform="translate(74.466586, 217.584417)"><g><path d="M 3.9375 0 L 3.9375 -0.484375 C 3.613281 -0.078125 3.179688 0.125 2.640625 0.125 C 2.015625 0.125 1.546875 -0.0507812 1.234375 -0.40625 C 0.929688 -0.769531 0.78125 -1.351562 0.78125 -2.15625 L 0.78125 -5.109375 L 1.65625 -5.109375 L 1.65625 -2.03125 C 1.65625 -1.570312 1.75 -1.234375 1.9375 -1.015625 C 2.132812 -0.796875 2.40625 -0.6875 2.75 -0.6875 C 3.539062 -0.6875 3.9375 -1.128906 3.9375 -2.015625 L 3.9375 -5.109375 L 4.796875 -5.109375 L 4.796875 0 Z M 3.9375 0 "/></g></g></g><g fill="#000000" fill-opacity="1"><g transform="translate(80.094367, 217.584417)"><g><path d="M 3.015625 0.125 C 2.523438 0.125 2.085938 -0.0625 1.703125 -0.4375 L 1.703125 0 L 0.828125 0 L 0.828125 -6.8125 L 1.703125 -7.21875 L 1.703125 -4.671875 C 2.035156 -5.046875 2.460938 -5.234375 2.984375 -5.234375 C 3.617188 -5.234375 4.128906 -4.992188 4.515625 -4.515625 C 4.898438 -4.046875 5.09375 -3.394531 5.09375 -2.5625 C 5.09375 -1.695312 4.90625 -1.03125 4.53125 -0.5625 C 4.164062 -0.101562 3.660156 0.125 3.015625 0.125 Z M 2.890625 -0.6875 C 3.328125 -0.6875 3.65625 -0.851562 3.875 -1.1875 C 4.09375 -1.519531 4.203125 -1.976562 4.203125 -2.5625 C 4.203125 -3.164062 4.09375 -3.628906 3.875 -3.953125 C 3.65625 -4.273438 3.328125 -4.4375 2.890625 -4.4375 C 2.617188 -4.4375 2.375 -4.363281 2.15625 -4.21875 C 1.945312 -4.082031 1.796875 -3.925781 1.703125 -3.75 L 1.703125 -1.375 C 1.828125 -1.164062 1.992188 -1 2.203125 -0.875 C 2.421875 -0.75 2.648438 -0.6875 2.890625 -0.6875 Z M 2.890625 -0.6875 "/></g></g></g><g fill="#000000" fill-opacity="1"><g transform="translate(85.712145, 217.584417)"><g><path d="M 1.4375 1.9375 L 2.21875 -0.125 L 0.328125 -5.109375 L 1.203125 -5.109375 L 2.46875 -1.625 C 2.519531 -1.507812 2.570312 -1.347656 2.625 -1.140625 C 2.6875 -1.347656 2.742188 -1.507812 2.796875 -1.625 L 4.078125 -5.109375 L 4.96875 -5.109375 L 2.3125 1.9375 Z M 1.4375 1.9375 "/></g></g></g><g fill="#000000" fill-opacity="1"><g transform="translate(179.10433, 217.584417)"><g><path d="M 0.828125 -2.5625 L 0.828125 -3.40625 L 3.171875 -3.40625 L 3.171875 -2.5625 Z M 0.828125 -2.5625 "/></g></g></g><g fill="#000000" fill-opacity="1"><g transform="translate(262.93944, 217.584417)"><g><path d="M 1.679688 0.21875 L 2.640625 0.101562 C 3.488281 -2.898438 5.109375 -5.4375 6.878906 -7.089844 L 6.289062 -7.636719 C 4.519531 -5.917969 2.929688 -3.179688 2.140625 -0.53125 L 2.097656 -0.53125 C 1.75 -1.53125 1.230469 -2.570312 0.621094 -3.488281 L -0.0117188 -3.070312 C 0.699219 -2.058594 1.238281 -1 1.679688 0.21875 Z M 1.679688 0.21875 "/></g></g></g><g fill="#000000" fill-opacity="1"><g transform="translate(349.534082, 217.584417)"><g><path d="M 1.679688 0.21875 L 2.640625 0.101562 C 3.488281 -2.898438 5.109375 -5.4375 6.878906 -7.089844 L 6.289062 -7.636719 C 4.519531 -5.917969 2.929688 -3.179688 2.140625 -0.53125 L 2.097656 -0.53125 C 1.75 -1.53125 1.230469 -2.570312 0.621094 -3.488281 L -0.0117188 -3.070312 C 0.699219 -2.058594 1.238281 -1 1.679688 0.21875 Z M 1.679688 0.21875 "/></g></g></g><g fill="#000000" fill-opacity="1"><g transform="translate(57.7528, 248.66721)"><g><path d="M 1.609375 -0.078125 C 1.472656 0.0546875 1.304688 0.125 1.109375 0.125 C 0.921875 0.125 0.757812 0.0546875 0.625 -0.078125 C 0.5 -0.210938 0.4375 -0.367188 0.4375 -0.546875 C 0.4375 -0.734375 0.5 -0.894531 0.625 -1.03125 C 0.757812 -1.164062 0.921875 -1.234375 1.109375 -1.234375 C 1.304688 -1.234375 1.472656 -1.160156 1.609375 -1.015625 C 1.742188 -0.878906 1.8125 -0.722656 1.8125 -0.546875 C 1.8125 -0.367188 1.742188 -0.210938 1.609375 -0.078125 Z M 1.609375 -0.078125 "/></g></g></g><g fill="#000000" fill-opacity="1"><g transform="translate(60.001908, 248.66721)"><g><path d="M 6.09375 0 L 5.265625 0 L 2.109375 -5 C 1.992188 -5.195312 1.898438 -5.359375 1.828125 -5.484375 C 1.835938 -5.285156 1.84375 -5.125 1.84375 -5 L 1.84375 0 L 0.984375 0 L 0.984375 -7 L 1.859375 -7 L 4.953125 -2.015625 C 5.066406 -1.847656 5.164062 -1.675781 5.25 -1.5 C 5.238281 -1.738281 5.234375 -1.910156 5.234375 -2.015625 L 5.234375 -7 L 6.09375 -7 Z M 6.09375 0 "/></g></g></g><g fill="#000000" fill-opacity="1"><g transform="translate(67.079116, 248.66721)"><g><path d="M 0.984375 0 L 0.984375 -7 L 5.140625 -7 L 5.140625 -6.1875 L 1.84375 -6.1875 L 1.84375 -4.03125 L 4.015625 -4.03125 L 4.015625 -3.203125 L 1.84375 -3.203125 L 1.84375 -0.828125 L 5.359375 -0.828125 L 5.359375 0 Z M 0.984375 0 "/></g></g></g><g fill="#000000" fill-opacity="1"><g transform="translate(73.066756, 248.66721)"><g><path d="M 3.34375 -6.171875 L 3.34375 0 L 2.484375 0 L 2.484375 -6.171875 L 0.53125 -6.171875 L 0.53125 -7 L 5.296875 -7 L 5.296875 -6.171875 Z M 3.34375 -6.171875 "/></g></g></g><g fill="#000000" fill-opacity="1"><g transform="translate(78.894454, 248.66721)"><g/></g></g><g fill="#000000" fill-opacity="1"><g transform="translate(81.243525, 248.66721)"><g><path d="M 2.65625 0.125 C 2 0.125 1.476562 -0.109375 1.09375 -0.578125 C 0.71875 -1.054688 0.53125 -1.710938 0.53125 -2.546875 C 0.53125 -3.390625 0.722656 -4.046875 1.109375 -4.515625 C 1.492188 -4.992188 2.019531 -5.234375 2.6875 -5.234375 C 3.59375 -5.234375 4.191406 -4.835938 4.484375 -4.046875 L 3.65625 -3.734375 C 3.488281 -4.191406 3.171875 -4.421875 2.703125 -4.421875 C 2.273438 -4.421875 1.953125 -4.253906 1.734375 -3.921875 C 1.523438 -3.597656 1.421875 -3.140625 1.421875 -2.546875 C 1.421875 -1.960938 1.523438 -1.507812 1.734375 -1.1875 C 1.953125 -0.863281 2.265625 -0.703125 2.671875 -0.703125 C 3.203125 -0.703125 3.546875 -0.953125 3.703125 -1.453125 L 4.515625 -1.1875 C 4.390625 -0.769531 4.164062 -0.445312 3.84375 -0.21875 C 3.519531 0.0078125 3.125 0.125 2.65625 0.125 Z M 2.65625 0.125 "/></g></g></g><g fill="#000000" fill-opacity="1"><g transform="translate(86.241548, 248.66721)"><g><path d="M 4.4375 -0.59375 C 4.03125 -0.113281 3.476562 0.125 2.78125 0.125 C 2.09375 0.125 1.546875 -0.109375 1.140625 -0.578125 C 0.734375 -1.054688 0.53125 -1.710938 0.53125 -2.546875 C 0.53125 -3.378906 0.734375 -4.035156 1.140625 -4.515625 C 1.546875 -4.992188 2.09375 -5.234375 2.78125 -5.234375 C 3.476562 -5.234375 4.03125 -4.992188 4.4375 -4.515625 C 4.84375 -4.046875 5.046875 -3.394531 5.046875 -2.5625 C 5.046875 -1.726562 4.84375 -1.070312 4.4375 -0.59375 Z M 1.765625 -1.1875 C 2.015625 -0.851562 2.351562 -0.6875 2.78125 -0.6875 C 3.21875 -0.6875 3.554688 -0.851562 3.796875 -1.1875 C 4.046875 -1.519531 4.171875 -1.976562 4.171875 -2.5625 C 4.171875 -3.144531 4.046875 -3.601562 3.796875 -3.9375 C 3.554688 -4.269531 3.21875 -4.4375 2.78125 -4.4375 C 2.351562 -4.4375 2.015625 -4.269531 1.765625 -3.9375 C 1.523438 -3.601562 1.40625 -3.140625 1.40625 -2.546875 C 1.40625 -1.972656 1.523438 -1.519531 1.765625 -1.1875 Z M 1.765625 -1.1875 "/></g></g></g><g fill="#000000" fill-opacity="1"><g transform="translate(91.819353, 248.66721)"><g><path d="M 0.828125 0 L 0.828125 -5.109375 L 1.703125 -5.109375 L 1.703125 -4.4375 C 1.941406 -4.96875 2.34375 -5.234375 2.90625 -5.234375 C 3.226562 -5.234375 3.492188 -5.144531 3.703125 -4.96875 L 3.5625 -4.15625 C 3.351562 -4.300781 3.113281 -4.375 2.84375 -4.375 C 2.539062 -4.375 2.273438 -4.253906 2.046875 -4.015625 C 1.816406 -3.785156 1.703125 -3.40625 1.703125 -2.875 L 1.703125 0 Z M 0.828125 0 "/></g></g></g><g fill="#000000" fill-opacity="1"><g transform="translate(95.707814, 248.66721)"><g><path d="M 2.796875 0.125 C 2.109375 0.125 1.554688 -0.125 1.140625 -0.625 C 0.734375 -1.125 0.53125 -1.769531 0.53125 -2.5625 C 0.53125 -3.394531 0.734375 -4.046875 1.140625 -4.515625 C 1.554688 -4.992188 2.109375 -5.234375 2.796875 -5.234375 C 3.410156 -5.234375 3.914062 -5.023438 4.3125 -4.609375 C 4.707031 -4.203125 4.90625 -3.597656 4.90625 -2.796875 C 4.90625 -2.609375 4.894531 -2.414062 4.875 -2.21875 L 1.421875 -2.21875 C 1.453125 -1.75 1.59375 -1.375 1.84375 -1.09375 C 2.101562 -0.8125 2.425781 -0.671875 2.8125 -0.671875 C 3.238281 -0.671875 3.609375 -0.820312 3.921875 -1.125 L 4.453125 -0.546875 C 4.015625 -0.0976562 3.460938 0.125 2.796875 0.125 Z M 1.40625 -2.953125 L 4.03125 -2.953125 C 4.019531 -3.484375 3.894531 -3.863281 3.65625 -4.09375 C 3.414062 -4.332031 3.128906 -4.453125 2.796875 -4.453125 C 2.398438 -4.453125 2.078125 -4.328125 1.828125 -4.078125 C 1.578125 -3.828125 1.4375 -3.453125 1.40625 -2.953125 Z M 1.40625 -2.953125 "/></g></g></g><g fill="#000000" fill-opacity="1"><g transform="translate(179.10433, 248.66721)"><g><path d="M 0.828125 -2.5625 L 0.828125 -3.40625 L 3.171875 -3.40625 L 3.171875 -2.5625 Z M 0.828125 -2.5625 "/></g></g></g><g fill="#000000" fill-opacity="1"><g transform="translate(262.93944, 248.66721)"><g><path d="M 1.679688 0.21875 L 2.640625 0.101562 C 3.488281 -2.898438 5.109375 -5.4375 6.878906 -7.089844 L 6.289062 -7.636719 C 4.519531 -5.917969 2.929688 -3.179688 2.140625 -0.53125 L 2.097656 -0.53125 C 1.75 -1.53125 1.230469 -2.570312 0.621094 -3.488281 L -0.0117188 -3.070312 C 0.699219 -2.058594 1.238281 -1 1.679688 0.21875 Z M 1.679688 0.21875 "/></g></g></g><g fill="#000000" fill-opacity="1"><g transform="translate(350.95205, 248.66721)"><g><path d="M 0.828125 -2.5625 L 0.828125 -3.40625 L 3.171875 -3.40625 L 3.171875 -2.5625 Z M 0.828125 -2.5625 "/></g></g></g><g fill="#000000" fill-opacity="1"><g transform="translate(69.623893, 279.749977)"><g><path d="M 0.984375 0 L 0.984375 -7 L 3.65625 -7 C 4.0625 -7 4.414062 -6.9375 4.71875 -6.8125 C 5.03125 -6.695312 5.269531 -6.535156 5.4375 -6.328125 C 5.601562 -6.128906 5.722656 -5.910156 5.796875 -5.671875 C 5.878906 -5.429688 5.921875 -5.175781 5.921875 -4.90625 C 5.921875 -4.34375 5.734375 -3.851562 5.359375 -3.4375 C 4.984375 -3.019531 4.414062 -2.8125 3.65625 -2.8125 L 1.84375 -2.8125 L 1.84375 0 Z M 3.71875 -3.625 C 4.175781 -3.625 4.507812 -3.75 4.71875 -4 C 4.9375 -4.25 5.046875 -4.550781 5.046875 -4.90625 C 5.046875 -5.238281 4.941406 -5.535156 4.734375 -5.796875 C 4.535156 -6.054688 4.195312 -6.1875 3.71875 -6.1875 L 1.84375 -6.1875 L 1.84375 -3.625 Z M 3.71875 -3.625 "/></g></g></g><g fill="#000000" fill-opacity="1"><g transform="translate(75.921405, 279.749977)"><g><path d="M 5.15625 0 L 5.15625 -3.21875 L 1.84375 -3.21875 L 1.84375 0 L 0.984375 0 L 0.984375 -7 L 1.84375 -7 L 1.84375 -4.046875 L 5.15625 -4.046875 L 5.15625 -7 L 6.015625 -7 L 6.015625 0 Z M 5.15625 0 "/></g></g></g><g fill="#000000" fill-opacity="1"><g transform="translate(82.918642, 279.749977)"><g><path d="M 0.984375 0 L 0.984375 -7 L 3.65625 -7 C 4.0625 -7 4.414062 -6.9375 4.71875 -6.8125 C 5.03125 -6.695312 5.269531 -6.535156 5.4375 -6.328125 C 5.601562 -6.128906 5.722656 -5.910156 5.796875 -5.671875 C 5.878906 -5.429688 5.921875 -5.175781 5.921875 -4.90625 C 5.921875 -4.34375 5.734375 -3.851562 5.359375 -3.4375 C 4.984375 -3.019531 4.414062 -2.8125 3.65625 -2.8125 L 1.84375 -2.8125 L 1.84375 0 Z M 3.71875 -3.625 C 4.175781 -3.625 4.507812 -3.75 4.71875 -4 C 4.9375 -4.25 5.046875 -4.550781 5.046875 -4.90625 C 5.046875 -5.238281 4.941406 -5.535156 4.734375 -5.796875 C 4.535156 -6.054688 4.195312 -6.1875 3.71875 -6.1875 L 1.84375 -6.1875 L 1.84375 -3.625 Z M 3.71875 -3.625 "/></g></g></g><g fill="#000000" fill-opacity="1"><g transform="translate(179.10433, 279.749977)"><g><path d="M 0.828125 -2.5625 L 0.828125 -3.40625 L 3.171875 -3.40625 L 3.171875 -2.5625 Z M 0.828125 -2.5625 "/></g></g></g><g fill="#000000" fill-opacity="1"><g transform="translate(262.93944, 279.749977)"><g><path d="M 1.679688 0.21875 L 2.640625 0.101562 C 3.488281 -2.898438 5.109375 -5.4375 6.878906 -7.089844 L 6.289062 -7.636719 C 4.519531 -5.917969 2.929688 -3.179688 2.140625 -0.53125 L 2.097656 -0.53125 C 1.75 -1.53125 1.230469 -2.570312 0.621094 -3.488281 L -0.0117188 -3.070312 C 0.699219 -2.058594 1.238281 -1 1.679688 0.21875 Z M 1.679688 0.21875 "/></g></g></g><g fill="#000000" fill-opacity="1"><g transform="translate(349.534082, 279.749977)"><g><path d="M 1.679688 0.21875 L 2.640625 0.101562 C 3.488281 -2.898438 5.109375 -5.4375 6.878906 -7.089844 L 6.289062 -7.636719 C 4.519531 -5.917969 2.929688 -3.179688 2.140625 -0.53125 L 2.097656 -0.53125 C 1.75 -1.53125 1.230469 -2.570312 0.621094 -3.488281 L -0.0117188 -3.070312 C 0.699219 -2.058594 1.238281 -1 1.679688 0.21875 Z M 1.679688 0.21875 "/></g></g></g></svg>